<?xml version="1.0" encoding="UTF-8" standalone="no"?>
<!-- Created with Inkscape (http://www.inkscape.org/) -->

<svg
   xmlns:dc="http://purl.org/dc/elements/1.1/"
   xmlns:cc="http://creativecommons.org/ns#"
   xmlns:rdf="http://www.w3.org/1999/02/22-rdf-syntax-ns#"
   xmlns:svg="http://www.w3.org/2000/svg"
   xmlns="http://www.w3.org/2000/svg"
   xmlns:sodipodi="http://sodipodi.sourceforge.net/DTD/sodipodi-0.dtd"
   xmlns:inkscape="http://www.inkscape.org/namespaces/inkscape"
   width="557.79584"
   height="217.96875"
   id="svg6271"
   version="1.1"
   inkscape:version="0.48.1 r9760"
   sodipodi:docname="New document 25">
  <defs
     id="defs6273" />
  <sodipodi:namedview
     id="base"
     pagecolor="#ffffff"
     bordercolor="#666666"
     borderopacity="1.0"
     inkscape:pageopacity="0.0"
     inkscape:pageshadow="2"
     inkscape:zoom="0.35"
     inkscape:cx="278.89792"
     inkscape:cy="108.98438"
     inkscape:document-units="px"
     inkscape:current-layer="layer1"
     showgrid="false"
     fit-margin-top="0"
     fit-margin-left="0"
     fit-margin-right="0"
     fit-margin-bottom="0"
     inkscape:window-width="1440"
     inkscape:window-height="832"
     inkscape:window-x="0"
     inkscape:window-y="24"
     inkscape:window-maximized="1" />
  <metadata
     id="metadata6276">
    <rdf:RDF>
      <cc:Work
         rdf:about="">
        <dc:format>image/svg+xml</dc:format>
        <dc:type
           rdf:resource="http://purl.org/dc/dcmitype/StillImage" />
        <dc:title></dc:title>
      </cc:Work>
    </rdf:RDF>
  </metadata>
  <g
     inkscape:label="Layer 1"
     inkscape:groupmode="layer"
     id="layer1"
     transform="translate(-96.102084,-423.37781)">
    <path
       inkscape:connector-curvature="0"
       style="font-size:63.49426651px;font-style:normal;font-variant:normal;font-weight:bold;font-stretch:normal;text-indent:0;text-align:center;text-decoration:none;line-height:125%;letter-spacing:-5px;word-spacing:0px;text-transform:none;direction:ltr;block-progression:tb;writing-mode:lr-tb;text-anchor:middle;color:#000000;fill:#000000;fill-opacity:1;fill-rule:nonzero;stroke:none;stroke-width:2;marker:none;visibility:visible;font-family:Otaku Rant;-inkscape-font-specification:Otaku Rant Bold"
       d="m 317.22708,423.37781 -1.3437,0.25 c -2.0346,5.95546 -4.629,11.94667 -7.75,17.9375 l -0.875,0.15625 c -2.3044,-3.10263 -8.6328,-8.38109 -18.9688,-15.8125 l -0.875,0.15625 c -5.8204,3.16252 -10.4774,7.85169 -13.9688,14.03125 1.553,1.86313 2.3563,2.9133 2.4063,3.1875 13.0817,12.96339 19.6375,19.60078 19.6875,19.875 2.0766,-0.37725 5.7497,13.77938 10.9688,42.5 l 0.2187,1.3125 c 0.2706,1.48894 6.1676,1.18704 17.6875,-0.90625 l 3.125,-0.59375 c 0.9795,-0.17799 1.9415,-0.80568 2.875,-1.90625 -2.3566,-12.96934 -4.608,-26.91809 -6.7188,-41.875 4.2287,-6.35403 8.7758,-15.91551 13.625,-28.65625 -0.5911,-3.25203 -7.2925,-6.47758 -20.0937,-9.65625 z m -123.3125,2.46875 c -17.9464,1.55726 -26.9062,2.87879 -26.9062,3.96875 -9.6544,24.0584 -14.5,46.02106 -14.5,65.875 l 0,4.96875 0.5312,6 c -0.3504,2e-5 -0.5312,0.3382 -0.5312,1 0.5061,0.97323 1.0251,1.46875 1.5312,1.46875 l 1.4375,0 c 0.8564,0 6.2209,-0.33818 16.0313,-1 l 1.9687,0 c 1.3234,-0.77857 2,-1.45498 2,-2 l 0,-15.46875 c 0,-1.36251 0.1573,-2.68406 0.4687,-3.96875 0,-1.16786 4.1377,-2.15121 12.4688,-2.96875 l 2.5312,13.4375 c 0.9733,8.33088 2.9399,12.46875 5.9376,12.46875 l 2,0 c 12.6519,-0.89537 18.9687,-1.72141 18.9687,-2.5 -0.9961,-4.85058 -1.9711,-9.44105 -2.9375,-13.875 7.6724,-0.67408 11.5625,-1.38554 11.5625,-2.1875 l 0,-11.375 0.6563,0 c 1.7229,4.03757 4.9611,8.47773 9.7187,13.3125 l 1,0 c 4.4749,-2.86906 7.6187,-5.30348 9.4375,-7.28125 0.7518,13.56087 1.5574,20.375 2.4062,20.375 l 1.2188,0 c 1.9031,0 8.1435,-1.42667 18.6875,-4.28125 4.7061,-0.6172 7.0311,-1.44007 7.0313,-2.46875 -0.8488,-8.94946 -1.3991,-13.43747 -1.6563,-13.4375 -1.8515,-0.17999 -6.4041,0.86194 -13.6563,3.125 l -0.2812,-3.15625 c 5.5035,-1.02865 8.25,-1.95275 8.25,-2.75 l 0,-0.625 c 0.36,-5.73484 -0.1793,-8.44463 -1.5938,-8.1875 l 0,-0.5625 c -1.4916,0.36006 -3.5165,0.6859 -6.0624,0.96875 l -0.3126,-3.25 c 3.0603,-0.36001 4.5938,-0.64904 4.5938,-0.90625 4.6805,-0.72003 7.0311,-1.53738 7.0312,-2.4375 l 0,-3.6875 c 0,-8.76942 -0.7105,-13.15618 -2.125,-13.15625 -8.0236,2.03169 -12.9128,3.35158 -14.6874,3.96875 -4.7947,1.01116 -8.0584,1.82995 -9.8126,2.46875 0.3861,-1.20599 0.5938,-2.43087 0.5938,-3.65625 0,-0.46286 -0.1068,-1.65941 -0.3125,-3.5625 -3.549,-7.79218 -9.8117,-11.68744 -18.8125,-11.6875 -4.2948,6e-5 -9.6056,0.21911 -15.9062,0.65625 -0.7458,5e-5 -1.2908,1.96054 -1.625,5.84375 -10e-5,0.23149 0.1066,0.55733 0.3124,0.96875 l -0.6562,18.5 c 0.2315,2.85461 0.3438,5.25322 0.3438,7.15625 0,0.10321 -0.029,0.7961 -0.031,0.96875 -6.0918,-24.86012 -11.531,-40.58513 -16.3125,-47.0625 z m 158.4688,17.21875 c -1.5943,0.15435 -3.9086,0.69372 -6.9688,1.59375 -12.0098,6.30069 -18.0312,16.11065 -18.0312,29.40625 l 0,2.1875 c -10e-5,12.36983 8.1162,19.65781 24.3437,21.84375 2.623,0 5.69,-0.4326 9.1875,-1.28125 7.7109,-3.6383 12.6851,-9.22011 14.9688,-16.71875 -0.2986,6.15969 -0.5889,13.36033 -0.8438,21.90625 l -0.2812,3.0625 c -10e-5,2.46882 4.9005,3.6875 14.75,3.6875 11.2382,0 18.4193,-1.03641 21.5312,-3.09375 3.4459,0 5.4821,-16.58071 6.125,-49.78125 l 0.3125,-1.25 c -0.4888,-0.82289 -1.4183,-1.21871 -2.7813,-1.21875 l -4.5624,0 c -2.649,4e-5 -5.1176,0.2891 -7.4063,0.90625 -0.6945,7e-5 -1.5117,12.21971 -2.4375,36.625 0,4.29473 -1.6457,6.43751 -4.9375,6.4375 l -2.1563,0 c -0.3086,10e-6 -0.6289,-0.42704 -0.9374,-1.25 -3e-4,-2.64883 0.1066,-4.68484 0.3124,-6.125 2.0573,-17.61604 3.0938,-28.87481 3.0938,-33.8125 0,-1.10577 -0.4271,-1.85315 -1.25,-2.1875 l -0.625,0 c -0.6173,0.30866 -0.9062,0.62894 -0.9062,0.9375 -0.2058,4e-5 -0.526,-0.10672 -0.9376,-0.3125 l -13.5,1.5625 c -0.5517,0.4905 -1.0293,3.2945 -1.5,8.21875 -0.6454,-4.20742 -2.0839,-8.05882 -4.3437,-11.53125 -5.3491,-6.53204 -12.0921,-9.81245 -20.2187,-9.8125 z m -171.4376,4.75 0.4688,0 c 1.674,7.43556 3.019,12.40713 4.0312,14.9375 0,0.66185 -2.8241,1.6452 -8.4687,2.96875 l -0.5313,0 c 1.2068,-6.85152 2.7092,-12.80645 4.5,-17.90625 z m 44.25,3.34375 0.625,0 c 0.6686,5e-5 1,0.10681 1,0.3125 3.4461,0.61725 5.1563,2.03286 5.1563,4.21875 l 0,0.34375 c 0,2.72602 -2.3675,4.87434 -7.125,6.46875 0.2313,-5.0919 0.3437,-8.87489 0.3437,-11.34375 z m 19.9376,9.28125 c 1.0128,12.38738 1.6085,18.63654 1.8124,18.6875 0.051,1.06802 0.1054,1.99543 0.1563,3 -5.9489,-8.81555 -8.9375,-13.64652 -8.9375,-14.4375 l 0.3125,0 c 3.0407,-2.37423 5.2572,-4.79329 6.6563,-7.25 z m 105.3124,1.625 c 10e-5,0.41151 1.0475,0.62504 3.1563,0.625 2.7518,2.21169 4.1561,4.30662 4.1563,6.3125 -1.1058,5.47774 -3.1255,8.21879 -6.0313,8.21875 l -0.9375,0 c -4.2176,-0.77147 -6.3125,-2.57183 -6.3125,-5.375 0,-4.06324 1.9826,-7.3124 5.9687,-9.78125 z m -195.25,50.6875 -1.875,0.5625 c -1.3377,13.29975 -4.2553,27.70716 -8.7187,43.1875 -0.6341,-2.00506 -2.8514,-14.99666 -6.6875,-39 -0.4911,-0.79841 -1.8149,-1.31811 -3.9688,-1.53125 -10.2966,3.2567 -22.6601,6.01015 -37.093696,8.25 -0.1699,2.85568 -0.4246,4.33469 -0.75,4.4375 15.824496,60.21243 24.580896,97.39421 26.249996,111.53125 0.2057,0.65029 1.2396,1.03722 3.125,1.15625 16.0924,-6.04338 25.6107,-9.77701 28.5625,-11.1875 0.679,0.2621 2.2096,0.004 4.5938,-0.75 l 1.3124,-0.40625 c 0.8898,-0.57948 1.5845,-2.64978 2.125,-6.21875 -2.9511,-8.00866 -4.7912,-13.24882 -5.5624,-15.6875 l -0.5938,-1.84375 0.5625,-0.1875 c 6.866,5.87638 16.1589,12.42405 27.875,19.6875 l 1.875,-0.5625 2,-2.71875 c 6.3674,-8.98856 11.3979,-16.8927 15.0625,-23.71875 l 2.3125,23.09375 c 1.2653,0.7635 2.1018,1.10845 2.5,1.03125 5.3183,-1.49907 11.532,-3.80546 18.6563,-6.96875 l 2.8124,-0.8125 c 1.4386,-1.10558 1.7305,-3.22946 0.8438,-6.375 l -1.375,-4.90625 c -2.7056,-9.59869 -5.5939,-28.10563 -8.625,-55.5 -0.6125,-2.17261 -5.6559,-1.91896 -15.125,0.75 l -2.4688,0.6875 c -4.313,1.2158 -5.3255,5.89185 -3.0312,14.03125 l 2.625,26.28125 c -0.4726,-0.0807 -0.9778,-0.13401 -1.5312,-0.1875 -10.4848,-9.02396 -19.2646,-15.55185 -26.375,-19.5625 4.9818,-10.63678 7.376,-16.24755 7.1874,-16.84375 8.0485,-17.15077 11.9557,-26.06836 11.75,-26.71875 -0.2228,-0.70443 -0.9183,-1.39236 -2.0937,-2.09375 -8.0304,-0.32154 -20.0671,-3.95275 -36.1563,-10.90625 z m 318.9063,3.4375 c -8.7759,1.3e-4 -13.1563,0.98744 -13.1563,2.9375 10e-5,1.79634 0.2142,4.40539 0.625,7.84375 l -0.625,9.5625 c 10e-5,1.0265 0.2142,2.63707 0.625,4.84375 -1.5908,12.11169 -3.6193,38.46811 -6.0312,79.0625 0,1.23169 2.2114,1.84375 6.625,1.84375 l 1.1562,0 c 11.6496,0 18.6705,0.56964 21.0313,1.75 l 2.375,-1.21875 c 0,-0.41056 -0.2146,-1.01144 -0.625,-1.78125 2.0014,-13.70252 3.4289,-26.88634 4.25,-39.5625 l 0.5313,0 c 2.7198,7.08226 6.1442,13.28773 10.25,18.625 l 1.75,0 c 4.8754,-5.54256 8.4715,-10.93271 10.7812,-16.21875 l 0.625,0 0,0.59375 -1.2188,17.40625 c 0.41,4.46491 0.5935,10.27273 0.5938,17.40625 l 0,3.53125 c -3e-4,2.41206 2.8124,3.625 8.4062,3.625 l 18,0 1.1563,0.625 c -2e-4,-0.66717 0.4287,-1.0961 1.25,-1.25 0.8143,-10.5161 1.5441,-17.97584 2.1875,-22.53125 0.9397,15.9568 1.9149,24.0625 2.9688,24.0625 l 1.625,0 c 2.4932,0 10.6549,-1.85395 24.4687,-5.59375 6.1656,-0.80858 9.25,-1.90232 9.25,-3.25 -1.1119,-11.72471 -1.8506,-17.59371 -2.1875,-17.59375 -2.4258,-0.2358 -8.3739,1.12891 -17.875,4.09375 l -0.4062,-4.125 c 7.2099,-1.34764 10.8124,-2.54927 10.8124,-3.59375 l 0,-0.8125 c 0.4717,-7.51323 -0.2407,-11.08687 -2.0937,-10.75 l 0,-0.71875 c -1.954,0.47171 -4.5709,0.87944 -7.9063,1.25 l -0.4062,-4.21875 c 4.0093,-0.47164 6,-0.88177 6,-1.21875 6.1318,-0.94331 9.1875,-2.00825 9.1875,-3.1875 l 0,-4.84375 c 0,-11.48882 -0.9282,-17.24992 -2.7813,-17.25 -10.5117,2.66172 -16.9252,4.41021 -19.25,5.21875 -3.2264,0.68043 -5.8557,1.29202 -8.0312,1.84375 l 2.8125,-39.84375 c -0.4099,1.4e-4 -0.625,-0.21433 -0.625,-0.625 0,-1.18029 -10.9725,-2.56521 -32.9375,-4.15625 -4.9782,4.36235 -9.7874,11.34069 -14.4062,20.9375 l -0.5938,0 -2.4062,-18.5625 c 0,-1.33422 -8.3744,-2.71916 -25.1563,-4.15625 l -0.625,0 z m 138.4063,4.28125 c -5.6245,0.0536 -10.4683,0.78494 -14.5,2.21875 -5.0633,1.95246 -8.9091,10.12874 -11.5626,24.5625 l -0.8124,6.90625 c -0.8339,0.95959 -1.3381,1.9006 -1.5,2.78125 l -0.094,0.5 c 0.03,0.66311 0.7117,1.46913 2.0625,2.375 l 3.0313,0.0937 4.8437,0.875 c 4.4525,0.81861 7.5817,1.23755 9.4063,1.21875 2.5931,0.47681 4.0776,-0.26158 4.4374,-2.21875 l 0.5313,-2.9375 c 0.5935,-3.22922 1.5113,-6.43241 2.75,-9.59375 l 0.875,0.6875 0.5,0.0937 c 1.7124,0.31488 4.4653,0.98726 8.2187,2.03125 l -0.4687,2.4375 c -1.0345,5.62682 -6.673,11.64831 -16.9063,18.0625 -7.0939,7.49714 -11.3993,15.41454 -12.9374,23.78125 -0.1079,0.58718 0.053,1.44936 0.5,2.59375 3.2832,0.30002 5.7737,0.60043 7.4374,0.90625 l 0.4376,0.0937 c 3.9632,0.72862 7.6563,1.74759 11.0624,3.03125 0.6991,-0.22572 1.2198,-0.3129 1.5626,-0.25 4.0791,-6.23038 9.2222,-11.48602 15.4687,-15.75 14.0389,-7.0297 22.5497,-18.57645 25.5,-34.625 l 0.5313,-2.9375 c 1.1151,-6.06706 1.3083,-10.73248 0.5937,-14 -1.4142,-4.96399 -7.3283,-8.39652 -17.75,-10.3125 l -3.9685,-0.7186 c -7.2171,-1.32665 -13.6256,-1.95981 -19.25,-1.90625 z m -295.25,23.90625 c -4.481,8e-5 -6.7188,4.23094 -6.7188,12.6875 l -0.1875,1.15625 c -5.2445,-8.45996 -16.1605,-12.71868 -32.75,-12.71875 -10.6803,0.33699 -16.0313,1.294 -16.0313,2.84375 l 0,0.96875 c -5.4062,-2.03334 -12.1795,-3.06246 -20.3124,-3.0625 -10.6805,0.33699 -16,1.294 -16,2.84375 l 0,2.375 c 0,7.85023 1.4198,18.98379 4.25,33.4375 2.7289,22.33764 4.7459,33.53125 6.0937,33.53125 l 0.9687,0 c 3.5041,0 9.6465,-2.83979 18.4063,-8.5 4.9635,-4.9989 9.0275,-9.94848 12.25,-14.84375 2.0297,14.97754 3.6153,22.59375 4.7187,22.59375 l 0.9688,0 c 3.5038,0 9.6151,-2.83978 18.375,-8.5 5.2427,-5.28019 9.5122,-10.49167 12.8125,-15.65625 l -3.7187,21 c 1.0107,1.07814 1.7208,1.62255 2.125,1.65625 5.5255,0 12.1282,-0.54443 19.8437,-1.65625 l 2.9375,0 c 1.6846,-0.67383 2.5311,-2.63815 2.5312,-5.90625 l 0,-5.125 c 0,-9.97273 2.2665,-28.56072 6.7813,-55.75 -10e-5,-2.25727 -4.9434,-3.37492 -14.7813,-3.375 l -2.5624,0 z m 21.0937,1.53125 c -1.3815,6e-5 -2.2521,0.4893 -2.6563,1.5 l 0,0.8125 c -2.8302,30.3226 -4.25,52.18446 -4.25,65.59375 l 0,1.9375 c 0,1.14551 6.9052,2.04735 20.7188,2.6875 1.0107,-0.64015 1.5312,-1.7866 1.5312,-3.4375 l 0,-0.8125 c 0,-1.51613 -0.3838,-4.71088 -1.125,-9.5625 l 0,-5.75 0.3438,0 c 2.3921,5.55914 4.8218,10.14257 7.2812,13.78125 0,2.83011 5.3772,4.25 16.125,4.25 l 8.8438,0 c 2.5606,-0.20216 3.8438,-0.96482 3.8438,-2.3125 -0.1012,-1.34284 -0.1868,-2.32691 -0.25,-3.3125 5.0928,4.85253 12.6171,7.28125 22.5624,7.28125 4.3464,0 11.033,-1.23044 20.0626,-3.65625 -0.3033,2.15628 -0.4688,3.38672 -0.4688,3.65625 0,0.90966 0.3309,1.34375 0.9375,1.34375 l 15.0313,0 c 2.1225,0 3.1874,-0.29979 3.1874,-0.90625 1.5159,-0.74121 2.5809,-11.68533 3.1876,-32.84375 l -0.4376,-2.28125 c -2e-4,-2.08885 -8.3512,-4.81828 -25.0624,-8.1875 -1.0443,4e-5 -1.8384,0.16557 -2.3438,0.46875 -0.6066,5e-5 -2.2711,4.82807 -5,14.53125 0,1.48246 1.5303,2.41066 4.5625,2.78125 l 0,0.9375 c -3.8409,1.51617 -6.7359,2.25003 -8.6563,2.25 -0.775,3e-5 -2.605,-0.29977 -5.4687,-0.90625 -6.7047,-2.25732 -10.0313,-7.27968 -10.0313,-15.0625 l 0,-0.4375 c 2.7291,-9.13041 8.4851,-13.71871 17.3126,-13.71875 l 1.375,0 c 9.1304,1.21294 13.6873,2.4434 13.6874,3.65625 l 1.375,0 c 1.3812,4e-5 4.1108,-5.32209 8.1876,-15.96875 -10e-5,-2.29097 -1.9644,-4.12101 -5.9063,-5.46875 l -0.9063,0.46875 c -5.559,-1.21283 -11.8119,-1.81243 -18.7187,-1.8125 -6.2667,7e-5 -11.289,1.19927 -15.0625,3.625 -4.6939,3.49829 -8.5984,7.17286 -11.75,11.03125 0.2611,-3.548 0.5574,-7.15155 0.875,-10.8125 l 0,-0.34375 c -10e-5,-0.84222 -5.898,-1.74406 -17.6562,-2.6875 -10e-5,0.2359 -0.1081,0.37506 -0.3438,0.375 -2.5607,7.14271 -4.3619,16.20161 -5.4062,27.21875 l -0.3438,0 c -0.4718,-2.56052 -0.8843,-3.84371 -1.1875,-3.84375 -1.2804,-14.82432 -2.1508,-22.21868 -2.6563,-22.21875 -12.23,-2.5605 -19.4112,-3.84369 -21.5,-3.84375 l -3.8437,0 z m -57.4063,23.65625 0.4376,0 c 7.547,2.59432 11.3437,4.6426 11.3437,6.125 l 0,1.40625 c 0,3.57137 -2.7057,7.20263 -8.0625,10.875 0,-3.70606 -1.2256,-9.84852 -3.7188,-18.40625 z m -36.3437,0.75 0.4687,0 c 7.547,2.59431 11.3126,4.6426 11.3126,6.125 l 0,1.40625 c 0,3.57137 -2.6742,7.20264 -8.0313,10.875 0,-3.70606 -1.2567,-9.84852 -3.75,-18.40625 z m 345.0313,36.53125 c -2.1526,0.1348 -4.3005,4.27386 -6.4063,12.375 -0.2428,1.32106 0.9831,2.20182 3.625,2.6875 l 1.9063,0.375 c 5.7735,1.06141 10.3993,1.39825 13.9062,1.03125 l 1.875,0.875 2.125,-0.6875 c 1.6641,-9.05173 1.1872,-13.80446 -1.4062,-14.28125 l -3.0313,-0.0937 c -0.3913,-0.0719 -1.9661,-0.52847 -4.75,-1.34375 -1.6147,-0.29681 -4.0741,-0.59716 -7.4063,-0.90625 -0.1437,-0.0264 -0.2939,-0.0402 -0.4374,-0.0312 z"
       id="path5531" />
  </g>
</svg>
