<?xml version="1.0" encoding="UTF-8" standalone="no"?>
<!-- Created with Inkscape (http://www.inkscape.org/) -->

<svg
   xmlns:dc="http://purl.org/dc/elements/1.1/"
   xmlns:cc="http://creativecommons.org/ns#"
   xmlns:rdf="http://www.w3.org/1999/02/22-rdf-syntax-ns#"
   xmlns:svg="http://www.w3.org/2000/svg"
   xmlns="http://www.w3.org/2000/svg"
   xmlns:sodipodi="http://sodipodi.sourceforge.net/DTD/sodipodi-0.dtd"
   xmlns:inkscape="http://www.inkscape.org/namespaces/inkscape"
   width="548.53131"
   height="122.8125"
   id="svg6316"
   version="1.1"
   inkscape:version="0.48.1 r9760"
   sodipodi:docname="New document 28">
  <defs
     id="defs6318" />
  <sodipodi:namedview
     id="base"
     pagecolor="#ffffff"
     bordercolor="#666666"
     borderopacity="1.0"
     inkscape:pageopacity="0.0"
     inkscape:pageshadow="2"
     inkscape:zoom="0.35"
     inkscape:cx="274.26565"
     inkscape:cy="61.406247"
     inkscape:document-units="px"
     inkscape:current-layer="layer1"
     showgrid="false"
     fit-margin-top="0"
     fit-margin-left="0"
     fit-margin-right="0"
     fit-margin-bottom="0"
     inkscape:window-width="1440"
     inkscape:window-height="832"
     inkscape:window-x="0"
     inkscape:window-y="24"
     inkscape:window-maximized="1" />
  <metadata
     id="metadata6321">
    <rdf:RDF>
      <cc:Work
         rdf:about="">
        <dc:format>image/svg+xml</dc:format>
        <dc:type
           rdf:resource="http://purl.org/dc/dcmitype/StillImage" />
        <dc:title></dc:title>
      </cc:Work>
    </rdf:RDF>
  </metadata>
  <g
     inkscape:label="Layer 1"
     inkscape:groupmode="layer"
     id="layer1"
     transform="translate(-100.73435,-470.95593)">
    <path
       inkscape:connector-curvature="0"
       style="font-size:70.86363983px;font-style:normal;font-variant:normal;font-weight:900;font-stretch:normal;text-indent:0;text-align:center;text-decoration:none;line-height:125%;letter-spacing:0px;word-spacing:0px;text-transform:none;direction:ltr;block-progression:tb;writing-mode:lr-tb;text-anchor:middle;color:#000000;fill:#000000;fill-opacity:1;fill-rule:nonzero;stroke:none;stroke-width:2;marker:none;visibility:visible;font-family:VAL;-inkscape-font-specification:VAL Heavy"
       d="m 235.73435,470.95593 c -26.2739,0 -48.1875,27.68185 -48.1875,61.46875 0,33.95585 21.9136,61.15625 48.1875,61.15625 26.6721,0 48.4062,-27.2004 48.4063,-61.15625 0,-33.7869 -21.7342,-61.46875 -48.4063,-61.46875 z m 167.5625,1.34375 c -11.6773,0 -21.2188,12.33395 -21.2188,27.03125 l 0,66.5625 c 0,15.20411 9.5415,27.03125 21.2188,27.03125 9.9523,0 18.572,-8.78103 20.5625,-20.4375 l -7.5625,-14.875 c -0.398,-1.18256 0.8207,-2.7011 1.2188,-1.6875 7.431,9.96714 14.9833,19.08949 22.8124,28.71875 11.9426,15.37304 35.9688,7.26592 35.9688,-18.75 l 0,-66.5625 c 0,-14.6973 -9.5651,-27.03125 -21.375,-27.03125 -9.8195,0 -18.4471,9.44996 -20.4375,20.9375 l 7.8437,14.53125 c 0.3981,1.01361 -0.8206,2.04485 -1.2187,1.03125 l -21.625,-27.03125 c -3.9809,-5.06802 -9.818,-9.46875 -16.1875,-9.46875 z m -281.7188,0.15625 c -11.5446,0 -20.8437,11.65232 -20.8437,26.6875 l 0,66.0625 c 0,14.52838 9.5645,27.1875 20.8437,27.1875 l 35.0313,0 c 14.066,0 29.4375,-19.23064 29.4375,-36.96875 0,-15.37303 -2.496,-18.41835 -6.875,-24.5 -4.7771,6.58845 -11.2954,10.47462 -18.5938,10.8125 -0.9288,0 -0.9287,-1.69338 0,-2.03125 11.8102,-3.54762 20.9688,-17.07621 20.9688,-33.125 0,-19.25854 -12.325,-34.125 -26.6562,-34.125 l -33.3126,0 z m 405.6876,0 c -25.8758,0.5068 -46.9688,26.51972 -46.9688,59.96875 0,31.92864 20.8346,60.15625 46.3125,60.15625 l 19.25,0 c 12.3407,0 22.4062,-13.3584 22.4063,-28.5625 0,-15.87986 -10.0656,-29.375 -22.4063,-29.375 -6.6349,0 -11.8317,3.875 -15.8125,3.875 -2.7866,0 -5.1563,-2.71504 -5.1562,-6.09375 0,-3.54762 2.3696,-6.5625 5.1562,-6.5625 3.9808,0 9.1776,3.875 15.8125,3.875 12.3407,0 22.4062,-12.68264 22.4063,-28.5625 0,-15.2041 -10.0656,-28.71875 -22.4063,-28.71875 l -18.5937,0 z m 66.4062,0 c -12.4733,0 -21.375,12.18357 -21.375,27.21875 l 0,66.21875 c 0,14.52835 9.284,26.6875 21.0938,26.6875 l 34.9062,0 c 14.7292,0 20.9688,-16.21356 20.9688,-26.6875 0,-7.09525 -0.6732,-10.15937 -2,-13.03125 -4.9098,7.4331 -11.7874,9.12593 -18.6876,8.28125 -0.929,0 -0.929,-2.03125 0,-2.03125 5.5734,-0.84468 10.863,-2.86265 14.8438,-8.4375 5.8387,-7.43313 7.1766,-20.43911 3.5938,-30.40625 -5.3079,7.09525 -12.483,9.12005 -19.7813,7.9375 -0.9288,-0.5068 -0.9288,-2.1875 0,-2.1875 7.9619,-0.33788 14.1913,-3.37164 18.4375,-12.15625 8.6252,-17.06239 -0.6552,-41.40625 -17.375,-41.40625 l -34.625,0 z m -284.5625,0.1875 c -11.81,0 -21.375,12.32127 -21.375,27.1875 l 0,36.3125 c 0,31.42184 20.4358,57.625 45.25,57.625 24.6815,0 45.25,-26.20316 45.25,-57.625 l 0,-36.3125 c 0,-14.86623 -9.6896,-27.1875 -20.9687,-27.1875 -11.8102,0 -21.375,12.32127 -21.375,27.1875 l 0,33.125 c 0,2.02721 -1.3139,4.21875 -2.9063,4.21875 -1.725,0 -2.9375,-2.19154 -2.9375,-4.21875 l 0,-33.125 c 0,-14.86623 -9.2602,-27.1875 -20.9375,-27.1875 z m -73.375,53.375 c 2.7866,0 5.1562,2.52076 5.1563,6.40625 0,3.54763 -2.3697,6.59375 -5.1563,6.59375 -2.3886,0 -4.7812,-3.04612 -4.7813,-6.59375 0,-3.88549 2.3927,-6.40625 4.7813,-6.40625 z"
       id="path5671" />
  </g>
</svg>
