<?xml version="1.0" encoding="UTF-8" standalone="no"?>
<!-- Created with Inkscape (http://www.inkscape.org/) -->

<svg
   xmlns:dc="http://purl.org/dc/elements/1.1/"
   xmlns:cc="http://creativecommons.org/ns#"
   xmlns:rdf="http://www.w3.org/1999/02/22-rdf-syntax-ns#"
   xmlns:svg="http://www.w3.org/2000/svg"
   xmlns="http://www.w3.org/2000/svg"
   xmlns:sodipodi="http://sodipodi.sourceforge.net/DTD/sodipodi-0.dtd"
   xmlns:inkscape="http://www.inkscape.org/namespaces/inkscape"
   width="544.85382"
   height="239.47986"
   id="svg6226"
   version="1.1"
   inkscape:version="0.48.1 r9760"
   sodipodi:docname="New document 22">
  <defs
     id="defs6228" />
  <sodipodi:namedview
     id="base"
     pagecolor="#ffffff"
     bordercolor="#666666"
     borderopacity="1.0"
     inkscape:pageopacity="0.0"
     inkscape:pageshadow="2"
     inkscape:zoom="0.35"
     inkscape:cx="272.42692"
     inkscape:cy="119.73993"
     inkscape:document-units="px"
     inkscape:current-layer="layer1"
     showgrid="false"
     fit-margin-top="0"
     fit-margin-left="0"
     fit-margin-right="0"
     fit-margin-bottom="0"
     inkscape:window-width="1440"
     inkscape:window-height="832"
     inkscape:window-x="0"
     inkscape:window-y="24"
     inkscape:window-maximized="1" />
  <metadata
     id="metadata6231">
    <rdf:RDF>
      <cc:Work
         rdf:about="">
        <dc:format>image/svg+xml</dc:format>
        <dc:type
           rdf:resource="http://purl.org/dc/dcmitype/StillImage" />
        <dc:title></dc:title>
      </cc:Work>
    </rdf:RDF>
  </metadata>
  <g
     inkscape:label="Layer 1"
     inkscape:groupmode="layer"
     id="layer1"
     transform="translate(-102.57308,-412.62225)">
    <path
       inkscape:connector-curvature="0"
       style="font-size:64.534729px;font-style:normal;font-variant:normal;font-weight:normal;font-stretch:normal;text-indent:0;text-align:center;text-decoration:none;line-height:125%;letter-spacing:0px;word-spacing:0px;text-transform:none;direction:ltr;block-progression:tb;writing-mode:lr-tb;text-anchor:middle;color:#000000;fill:#000000;fill-opacity:1;fill-rule:nonzero;stroke:none;stroke-width:2;marker:none;visibility:visible;font-family:Komika Axis;-inkscape-font-specification:Komika Axis"
       d="m 151.9751,412.62298 c -4.2363,0.0179 -8.4331,0.38187 -12.5625,1.09375 -5.5062,0.8545 -10.7197,2.16518 -15.6563,3.96875 -4.8416,1.70888 -9.0487,3.56903 -12.6562,5.5625 l -8.2812,90.43749 c -0.2846,2.37331 -0.3163,4.29361 -0.125,5.8125 0.1896,1.51893 0.6167,2.83077 1.2812,3.875 0.5695,1.04427 1.2706,1.98937 2.125,2.84375 0.8544,0.75947 1.7696,1.55185 2.7188,2.40625 2.5632,1.89861 4.8501,3.51472 6.8437,4.84375 1.9934,1.23411 4.3104,2.51469 6.9687,3.84375 5.316,2.56314 10.3773,2.98999 15.2188,1.28125 9.4931,-2.65809 18.0003,-6.22571 25.5,-10.6875 7.4996,-4.46177 13.9639,-9.49274 19.375,-15.09375 3.0025,-3.05429 5.681,-6.21982 8.0625,-9.49999 0.1625,1.61398 0.3685,3.20826 0.6875,4.75 0.7044,3.40416 1.7788,6.4564 3.1875,9.15624 0.8803,1.64338 2.0678,3.11503 3.5937,4.40625 1.526,1.29124 3.0717,2.33456 4.6563,3.15625 1.9369,0.99778 4.0897,1.71797 6.4375,2.1875 2.3477,0.52823 4.6447,0.92148 6.875,1.15625 3.3454,0.35215 6.2924,0.20811 8.875,-0.4375 2.5824,-0.58692 5.0585,-1.80555 7.4062,-3.625 3.4628,-3.05199 6.3711,-6.75433 8.7188,-11.15625 2.4065,-4.4019 4.2749,-9.0698 5.625,-13.99999 1.4085,-4.9888 2.3039,-9.97986 2.6562,-14.96875 0.3522,-5.04749 0.2081,-9.71541 -0.4374,-14 -0.4696,-2.5824 -1.2561,-4.87941 -2.3126,-6.875 -0.9976,-2.05416 -2.6133,-3.99299 -4.8437,-5.8125 -1.9955,-1.58463 -4.5105,-2.91603 -7.5625,-4.03125 -2.9933,-1.11509 -6.1545,-1.94045 -9.5,-2.46875 -2.5825,-0.41078 -5.3116,-0.22787 -8.1875,0.59375 -2.8173,0.82177 -5.2583,2.04038 -7.3125,3.625 -1.6989,1.47022 -3.2694,3.06159 -4.75,4.75 -0.053,-0.91171 -0.1512,-1.81543 -0.25,-2.71875 -0.6646,-6.07553 -2.3108,-11.68611 -4.9688,-16.8125 -3.1329,-6.45525 -6.9748,-11.60771 -11.5312,-15.5 -4.557,-3.89207 -9.5577,-6.78876 -14.9688,-8.6875 -5.3162,-1.99344 -10.8654,-3.09127 -16.6562,-3.28125 -1.424,-0.0712 -2.8379,-0.0997 -4.25,-0.0937 z m 182.6562,26.9375 c -1.1658,0.0619 -2.0602,0.88411 -2.6874,2.46875 -0.8217,2.05431 -1.7912,4.35512 -2.9063,6.9375 -1.1153,2.58254 -2.2989,5.20267 -3.5313,7.84375 -1.1738,2.58253 -2.2911,5.06242 -3.4062,7.46875 -1.1151,2.40644 -2.0808,4.41536 -2.8438,6 -1.0563,2.23036 -0.1609,3.59682 2.6563,4.125 1.1739,0.11746 2.2872,0.25767 3.3437,0.375 1.1151,0.11746 2.2286,0.0824 3.3438,-0.0937 2.2302,-0.11732 4.1341,-1.08674 5.7188,-2.90625 0.8216,-0.93902 1.7521,-2.15764 2.75,-3.625 0.9978,-1.46724 1.9709,-3.04787 2.9687,-4.75 0.792,-1.35091 1.5377,-2.68027 2.2187,-4.03125 0.6401,1.27475 1.468,2.82141 2.5,4.65625 0.9979,1.87822 2.1112,3.42378 3.3438,4.65625 1.1739,1.2326 2.2171,2.01911 3.1562,2.3125 0.9392,0.23484 2.1576,0.1647 3.625,-0.1875 1.0564,-0.29341 2.3528,-0.54262 3.9376,-0.71875 1.5846,-0.23471 3.2353,-0.48772 4.9374,-0.78125 -0.8802,3.99114 -1.7446,8.33592 -2.625,13.03125 -0.8804,4.63673 -1.7057,9.23454 -2.4687,13.8125 -0.7043,4.57802 -1.3155,8.92281 -1.8437,13.03125 -0.5283,4.10847 -0.8865,7.58901 -1.0626,10.40624 -0.2348,1.11515 -0.1986,2.08456 0.094,2.90625 0.2935,0.76299 0.7606,1.41308 1.4062,2 0.7043,0.58692 1.5335,1.08916 2.5313,1.5 0.9976,0.41085 2.1112,0.80409 3.3437,1.15625 1.2326,0.35215 2.346,0.6753 3.3438,0.96875 0.9977,0.29347 1.8933,0.4375 2.6562,0.4375 0.763,0.0587 1.3394,-0.0503 1.75,-0.34375 0.4696,-0.23476 0.7888,-0.77205 0.9063,-1.59375 0.8217,-4.28452 1.7561,-8.88234 2.8125,-13.8125 1.1151,-4.93012 2.2674,-9.99131 3.5,-15.15624 1.2324,-5.22359 2.5212,-10.46766 3.8125,-15.75 1.3499,-5.28226 2.6111,-10.3823 3.8437,-15.3125 2.8758,-0.29339 5.6751,-0.57768 8.375,-0.8125 2.6998,-0.29341 5.211,-0.54642 7.5,-0.78125 1.8194,-0.11732 2.8628,-0.4054 3.1563,-0.875 0.3521,-0.52818 0.3521,-1.46251 0,-2.8125 -0.4109,-1.52593 -0.987,-3.10274 -1.75,-4.6875 -0.763,-1.58462 -1.7326,-3.02502 -2.9063,-4.375 -0.5871,-0.76293 -1.3033,-1.30021 -2.125,-1.59375 -0.7629,-0.35207 -2.0556,-0.53117 -3.875,-0.53125 -3.4628,0.11746 -7.3792,0.33542 -11.7812,0.6875 -4.3432,0.29353 -8.8282,0.68679 -13.4062,1.15625 -4.5195,0.46962 -8.9731,1.0069 -13.375,1.59375 -4.2412,0.5732 -8.0671,1.19 -11.4688,1.875 0.2954,-0.70617 0.5521,-1.40048 0.7812,-2.0625 0.2349,-0.9977 0.4139,-1.788 0.5313,-2.375 0.1761,-0.64554 0.2813,-1.11272 0.2813,-1.40625 0,-0.93901 -0.5374,-2.16142 -1.5938,-3.6875 -0.8218,-0.8803 -1.721,-1.74073 -2.7188,-2.5625 -0.9978,-0.88031 -2.1813,-1.74072 -3.5312,-2.5625 -1.2325,-0.873 -2.312,-1.2669 -3.2188,-1.21875 z m -179.6874,1.5625 c 2.6106,-0.0949 4.989,0.25563 7.125,1.0625 4.2719,1.61391 7.2598,4.05366 8.9687,7.28125 1.7086,3.22774 2.3797,7.70924 2,13.5 -0.2848,4.17705 -1.2912,8.68978 -3,13.53125 -1.7087,4.84155 -4.2699,9.68979 -7.6875,14.53125 -3.4175,4.84157 -7.7776,9.507 -13.0938,13.96875 -5.3161,4.36689 -11.6889,8.11725 -19.0937,11.24999 2.3735,-12.34108 4.843,-24.53738 7.4063,-36.59374 2.563,-12.15117 5.5209,-24.47015 8.8437,-36.90625 3.0851,-0.99674 5.9206,-1.53007 8.5313,-1.625 z m 148.3437,10.125 c -0.719,-0.0147 -1.3137,0.0759 -1.8125,0.28125 -0.9391,0.41092 -1.6556,1.45425 -2.125,3.15625 -1.7021,6.28014 -3.4268,13.17114 -5.1875,20.625 -1.7022,7.45395 -3.1388,14.99885 -4.3125,22.6875 -0.6457,-2.99328 -1.2918,-6.0844 -1.9375,-9.3125 -0.6456,-3.28673 -1.2568,-6.44795 -1.8437,-9.5 -0.5869,-3.11063 -1.1244,-5.9838 -1.5938,-8.625 -0.4696,-2.6411 -0.8316,-4.82911 -1.125,-6.53125 -0.3521,-2.23024 -0.9246,-3.91603 -1.6875,-5.03125 -0.763,-1.17377 -2.0556,-2.14318 -3.875,-2.90625 -2.2302,-1.0564 -4.3833,-1.88556 -6.4375,-2.53125 -2.0542,-0.64554 -4.1408,-1.29181 -6.3125,-1.9375 -1.8194,-0.46946 -3.2561,-0.46946 -4.3125,0 -1.0565,0.41092 -1.8079,1.4893 -2.2188,3.25 -0.6455,3.05206 -1.3269,6.53644 -2.0312,10.46875 -0.6456,3.93245 -1.2919,8.02421 -1.9375,12.25 -0.6457,4.22589 -1.2217,8.4655 -1.75,12.75 -0.5868,4.22588 -1.0891,8.24372 -1.5,12 -0.4696,3.69763 -0.8277,7.00291 -1.0625,9.9375 -0.2934,2.93462 -0.4763,5.19656 -0.5938,6.78124 -0.1172,1.526 0.031,2.71338 0.5,3.59375 0.4109,0.8217 1.2714,1.57314 2.5626,2.21875 1.3499,0.82168 2.7475,1.43291 4.1562,1.84375 1.4674,0.35216 2.9038,0.71036 4.3125,1.0625 1.526,0.41086 2.5343,0.44972 3.0625,0.15625 0.5282,-0.23476 0.9216,-0.84597 1.1562,-1.84375 0.2936,-2.11291 0.6555,-4.55777 1.125,-7.375 0.5283,-2.87591 1.1006,-5.96321 1.6876,-9.24999 0.6455,-3.34543 1.2918,-6.86106 1.9374,-10.5 0.7043,-3.63889 1.3858,-7.2673 2.0313,-10.90625 0.763,3.05203 1.5882,6.10429 2.4687,9.15625 0.8803,2.99334 1.7447,5.90155 2.625,8.71875 0.8806,2.75855 1.7409,5.34363 2.5626,7.74999 0.8805,2.4064 1.7406,4.5243 2.5624,6.34375 1.0564,2.52378 2.8552,4.28349 5.4376,5.28125 2.8171,0.99778 5.5813,1.75302 8.2812,2.28125 3.1693,0.7043 4.9289,-0.0509 5.2812,-2.28125 0.939,-4.10844 2.0525,-8.88156 3.3438,-14.28124 1.3499,-5.45836 2.7475,-11.02559 4.1562,-16.71875 1.4673,-5.69312 2.9078,-11.29539 4.375,-16.8125 1.4674,-5.51701 2.9001,-10.43796 4.25,-14.78125 0.4694,-1.52593 0.5786,-2.81847 0.3438,-3.875 -0.1761,-1.11508 -1.1104,-2.19347 -2.8125,-3.25 -0.9978,-0.64554 -1.8933,-1.18283 -2.6563,-1.59375 -0.7629,-0.41078 -1.483,-0.76898 -2.1874,-1.0625 -0.6458,-0.2934 -1.3269,-0.51136 -2.0313,-0.6875 -0.7043,-0.17601 -1.4946,-0.39015 -2.375,-0.625 -0.9391,-0.23473 -1.781,-0.36033 -2.5,-0.375 z m -76.5,14.6875 c 0.3265,-0.0147 0.6606,0.0223 0.9687,0.125 1.1739,0.35221 2.0342,1.57463 2.5626,3.6875 0.5868,2.05428 0.875,4.56543 0.875,7.5 0,2.87596 -0.2493,5.96708 -0.7188,9.3125 -0.4696,3.28682 -1.0807,6.304 -1.8438,9.0625 -0.8805,3.34549 -1.9237,6.46785 -3.1562,9.34375 -1.1739,2.81725 -2.4626,5.18818 -3.8125,7.125 -1.3499,1.93686 -2.6814,3.37343 -4.0313,4.31249 -1.3499,0.93909 -2.6424,1.22335 -3.875,0.8125 -1.3499,-0.41085 -2.3894,-1.52429 -3.0937,-3.34375 -0.7044,-1.81944 -1.1015,-4.00746 -1.2187,-6.53124 -0.1173,-2.58244 -0.01,-5.3466 0.3437,-8.28125 0.3522,-2.99327 0.9595,-5.86643 1.7813,-8.625 0.8216,-2.81718 1.865,-5.7254 3.1562,-8.71875 1.3499,-3.05195 2.7865,-5.81612 4.3125,-8.28125 1.526,-2.46502 3.0365,-4.37258 4.5625,-5.78125 1.1445,-1.10043 2.2081,-1.67471 3.1875,-1.71875 z m 148.0313,65.18749 c -0.4356,-0.006 -0.8169,0.0345 -1.1563,0.125 -1.3575,0.27163 -2.7051,1.81964 -4.0625,4.625 -1.086,2.08162 -2.4647,4.77661 -4.0938,8.125 -1.5385,3.25807 -3.2904,6.9934 -5.2812,11.15625 -1.9007,4.16308 -3.9876,8.64115 -6.25,13.4375 -2.1721,4.70605 -4.3939,9.5226 -6.6562,14.5 -2.2625,4.97753 -4.5186,9.9601 -6.7813,14.9375 -2.1719,4.88702 -4.1934,9.56555 -6.0937,14 0.3618,-5.33945 0.7006,-10.82649 1.0624,-16.4375 0.4525,-5.6109 0.8878,-10.89749 1.25,-15.875 0.3619,-4.97741 0.6659,-9.3207 0.9376,-13.03125 0.2712,-3.71039 0.4062,-6.33641 0.4062,-7.875 0,-1.3574 -0.035,-2.53567 -0.125,-3.53125 -10e-5,-0.99541 -0.2005,-1.86965 -0.5625,-2.59375 -0.2717,-0.7239 -0.7447,-1.36312 -1.4687,-1.90625 -0.6335,-0.54287 -1.6427,-1.08191 -3,-1.625 -2.4437,-0.9954 -4.5652,-1.80388 -6.375,-2.4375 -1.7198,-0.63337 -3.9069,-1.20689 -6.5313,-1.75 -2.6245,-0.63338 -4.6113,-0.69927 -5.9687,-0.15625 -1.2672,0.54309 -2.4456,1.82161 -3.5313,3.8125 -1.4481,2.35309 -3.3345,6.02263 -5.6875,11 -2.2625,4.97755 -4.7537,10.4991 -7.4688,16.5625 -2.6246,6.06352 -5.3507,12.35911 -8.1562,18.875 -2.715,6.51601 -5.2407,12.51083 -7.5938,18.03125 0,-5.42992 0.037,-11.12074 0.125,-17.09375 0.1809,-6.06342 0.3816,-11.85446 0.5626,-17.375 0.2716,-5.6109 0.4753,-10.6937 0.6562,-15.21875 0.2716,-4.52487 0.4721,-7.95942 0.5625,-10.3125 0.09,-1.17638 0.09,-2.42365 0,-3.78125 -0.09,-1.44788 -0.36,-2.82666 -0.8125,-4.09375 -0.3619,-1.35739 -0.9666,-2.60465 -1.7812,-3.78125 -0.8145,-1.17639 -1.8928,-2.1854 -3.25,-3 -2.3533,-1.35737 -4.8786,-2.40088 -7.5938,-3.125 -2.7149,-0.81436 -5.7454,-1.5884 -9.0938,-2.3125 -2.896,-0.63337 -4.8482,-0.53313 -5.8437,0.28125 -0.9956,0.81463 -1.5346,2.66663 -1.625,5.5625 0,5.15858 0.037,10.78039 0.125,16.84375 0.09,5.97303 0.2599,12.13386 0.5313,18.46875 0.2714,6.24453 0.6066,12.50885 0.9687,18.84375 0.3619,6.33503 0.7663,12.42683 1.2187,18.21875 0.4525,5.5205 0.9917,10.70681 1.625,15.59375 0.5431,4.79649 1.1823,9.03951 1.9063,12.75 0.2716,2.53399 0.8449,4.45176 1.75,5.71875 0.9955,1.1765 2.5779,2.11976 4.75,2.84375 2.3528,0.724 4.81,1.39777 7.3437,2.03125 2.6245,0.72401 5.3508,1.32873 8.1563,1.78125 2.0816,0.27147 3.6984,0.20558 4.875,-0.15625 1.267,-0.27148 2.4451,-1.28375 3.5313,-3.09375 0.9953,-2.26247 2.3086,-5.1235 3.9374,-8.5625 1.6288,-3.52945 3.3808,-7.33376 5.2813,-11.40625 1.9911,-4.07245 4.0782,-8.24652 6.25,-12.5 2.1721,-4.34395 4.2933,-8.48672 6.375,-12.46875 -3e-4,3.16753 0.1365,6.40155 0.4063,9.75 0.3618,3.3485 0.7315,6.67955 1.0937,9.9375 0.3618,3.16751 0.7318,6.09753 1.0937,8.8125 0.4525,2.71499 0.8222,5.00577 1.0938,6.90625 0.3619,1.9005 1.0703,3.68349 2.1562,5.3125 1.086,1.53847 2.9035,2.75126 5.4376,3.65625 1.2669,0.27149 2.3793,0.54101 3.375,0.8125 1.0859,0.36199 2.1295,0.69726 3.125,0.96875 1.0862,0.27149 2.2297,0.541 3.4062,0.8125 1.1765,0.36202 2.5896,0.66601 4.2188,0.9375 2.8958,0.45249 5.0862,0.45249 6.625,0 1.5383,-0.4525 2.7822,-1.5305 3.6874,-3.25 1.6288,-3.71045 3.5814,-8.05375 5.8438,-13.03125 2.2624,-4.97747 4.6535,-10.26401 7.1875,-15.875 2.6244,-5.70145 5.3197,-11.55826 8.125,-17.53125 0.1989,-0.41651 0.3952,-0.80352 0.5937,-1.21875 -0.6291,3.57531 -0.9768,7.10692 -1.0312,10.59375 -0.067,4.29759 0.2879,8.41785 1.0938,12.3125 0.8058,3.89466 2.0135,7.37989 3.625,10.46875 1.0073,1.88019 2.3792,3.55399 4.125,5.03125 1.7458,1.4773 3.5307,2.68491 5.3437,3.625 2.2161,1.14155 4.6577,1.99407 7.3437,2.53125 2.6861,0.60435 5.3234,1.01266 7.875,1.28125 3.8275,0.4029 7.2016,0.23863 10.1563,-0.5 2.9546,-0.67149 5.7827,-2.04339 8.4687,-4.125 3.9617,-3.49176 7.2829,-7.74504 9.9688,-12.78125 2.753,-5.03618 4.8931,-10.39067 6.4375,-16.03125 1.6117,-5.70764 2.6283,-11.41726 3.0313,-17.125 0.4029,-5.77479 0.2385,-11.09804 -0.5,-16 -0.5373,-2.95451 -1.4164,-5.56061 -2.625,-7.84375 -1.1416,-2.35016 -2.9799,-4.57456 -5.5313,-6.65625 -2.2832,-1.81295 -5.1645,-3.34908 -8.6563,-4.625 -3.4247,-1.27575 -7.0475,-2.23933 -10.875,-2.84375 -2.9547,-0.46997 -6.0846,-0.22125 -9.375,0.71875 -3.2231,0.94018 -6.0246,2.31206 -8.375,4.125 -1.287,1.1138 -2.5099,2.27674 -3.6874,3.5 2.4884,-4.87476 4.8072,-9.29394 6.9062,-13.15625 1.0859,-2.3529 1.6593,-4.67493 1.75,-6.9375 0.09,-2.2624 -0.8873,-4.38388 -2.9688,-6.375 -1.9005,-1.53837 -3.8873,-2.88587 -5.9687,-4.0625 -1.9913,-1.26688 -4.0437,-2.41066 -6.125,-3.40625 -2.1722,-0.88228 -3.9122,-1.32674 -5.2187,-1.34375 z m 243.0312,25.78125 c -2.0775,0.063 -3.729,0.5189 -4.9375,1.375 -1.6116,1.14162 -2.9303,2.62456 -3.9375,4.4375 -2.8203,5.03628 -5.8129,10.79909 -8.9688,17.3125 -3.0889,6.44639 -6.1345,12.97727 -9.1562,19.625 -2.9546,6.64781 -5.6984,13.0989 -8.25,19.34375 -2.6189,6.2449 -4.7323,11.67924 -6.3438,16.3125 -0.4029,1.41016 -0.567,2.56458 -0.5,3.4375 0,0.80582 0.1642,1.49407 0.5,2.03125 0.3358,0.53721 0.8019,1.00335 1.4063,1.40625 0.6044,0.33573 1.3192,0.7753 2.125,1.3125 1.0744,0.53718 2.1444,1.02997 3.2187,1.5 1.0073,0.40291 1.9395,0.75799 2.8126,1.09375 1.5444,0.53718 2.6988,0.70145 3.4374,0.5 0.8059,-0.20144 1.463,-0.85847 2,-2 0.9403,-2.14878 1.8991,-4.31531 2.9063,-6.53125 1.0073,-2.28306 2.1883,-4.75617 3.5313,-7.375 3.8274,-1.00723 8.2496,-1.82849 13.2187,-2.5 5.0361,-0.73863 10.0577,-1.4535 15.0937,-2.125 0.2016,2.75313 0.3923,5.30604 0.5938,7.65625 0.2015,2.28309 0.4502,4.39642 0.7188,6.34375 0.2683,1.88018 0.7081,3.19887 1.3124,3.9375 0.6715,0.73866 1.7946,1.34244 3.4063,1.8125 1.5444,0.53718 3.0539,0.83909 4.5313,0.90625 1.4769,0.13424 3.0978,0.1875 4.8437,0.1875 1.7459,0 2.8737,-0.21744 3.3437,-0.6875 0.537,-0.47005 0.7811,-1.32258 0.7813,-2.53125 -0.067,-5.77484 -0.094,-12.00381 -0.094,-18.71875 0.067,-6.78205 0.178,-13.53505 0.3124,-20.25 0.1337,-6.71489 0.3252,-13.16598 0.5938,-19.34375 0.2686,-6.17768 0.597,-11.66982 1,-16.4375 0.2014,-1.94724 0.01,-3.51 -0.5938,-4.71875 -0.5372,-1.20861 -1.8557,-2.19877 -3.9374,-2.9375 -1.5445,-0.40282 -3.0806,-0.81111 -4.625,-1.28125 -1.4774,-0.46995 -3.1245,-0.90953 -4.9376,-1.3125 -1.7456,-0.40282 -3.6949,-0.76256 -5.8437,-1.03125 -2.1489,-0.33566 -4.5909,-0.55309 -7.3437,-0.6875 -0.7891,-0.0671 -1.5263,-0.0835 -2.2188,-0.0625 z m -120.2188,1.75 c -0.8225,-0.0168 -1.523,0.0775 -2.0937,0.3125 -1.0744,0.47013 -1.869,1.67775 -2.4063,3.625 -1.9474,7.18506 -3.9543,15.06586 -5.9687,23.59375 -1.9473,8.528 -3.5946,17.17223 -4.9375,25.96875 -0.7388,-3.42458 -1.449,-6.96302 -2.1875,-10.65625 -0.7388,-3.76033 -1.4537,-7.41444 -2.125,-10.90625 -0.6716,-3.55886 -1.2754,-6.82197 -1.8125,-9.84375 -0.5373,-3.02165 -0.9768,-5.52134 -1.3125,-7.46875 -0.403,-2.55159 -1.0332,-4.47409 -1.9063,-5.75 -0.8728,-1.34291 -2.3559,-2.43949 -4.4374,-3.3125 -2.5517,-1.20861 -4.9936,-2.19877 -7.3438,-2.9375 -2.3501,-0.73855 -4.7655,-1.44877 -7.25,-2.1875 -2.0815,-0.5371 -3.7288,-0.5371 -4.9375,0 -1.2087,0.47014 -2.0611,1.70436 -2.5313,3.71875 -0.7386,3.49184 -1.5067,7.46982 -2.3124,11.96875 -0.7387,4.49907 -1.4804,9.16531 -2.2188,14 -0.7387,4.8348 -1.3957,9.72314 -2,14.625 -0.6716,4.83479 -1.2488,9.38998 -1.7188,13.6875 -0.5372,4.23041 -0.9501,8.01756 -1.2187,11.375 -0.3357,3.35748 -0.5845,5.96822 -0.7187,7.78125 -0.1337,1.74587 0.088,3.11777 0.625,4.125 0.4701,0.9401 1.4289,1.76137 2.9062,2.5 1.5446,0.94008 3.1383,1.65497 4.75,2.125 1.6786,0.40291 3.3259,0.81587 4.9375,1.21875 1.7459,0.47006 2.9268,0.52324 3.5313,0.1875 0.6042,-0.2686 1.0126,-0.98345 1.2812,-2.125 0.3358,-2.41737 0.7753,-5.21434 1.3125,-8.4375 0.6044,-3.29031 1.2661,-6.83337 1.9375,-10.59375 0.7387,-3.82748 1.4488,-7.80546 2.1875,-11.96875 0.8059,-4.16321 1.6051,-8.3367 2.3437,-12.5 0.8729,3.49181 1.8052,6.97704 2.8126,10.46875 1.0072,3.42466 2.0239,6.74562 3.0312,9.96875 1.0071,3.15604 1.9662,6.12189 2.9062,8.875 1.0073,2.75313 1.9662,5.16838 2.9063,7.25 1.2087,2.88743 3.2954,4.88971 6.25,6.03125 3.2232,1.14155 6.3798,2.02066 9.4687,2.625 3.6263,0.80578 5.6598,-0.0733 6.0626,-2.625 1.0743,-4.70043 2.3352,-10.13477 3.8124,-16.3125 1.5445,-6.24486 3.1384,-12.6115 4.75,-19.125 1.6785,-6.51344 3.3525,-12.93792 5.0313,-19.25 1.6788,-6.31195 3.2994,-11.93713 4.8437,-16.90625 0.5372,-1.74579 0.6436,-3.22874 0.375,-4.4375 -0.2015,-1.27576 -1.2716,-2.50998 -3.2187,-3.71875 -1.1416,-0.73856 -2.1272,-1.34236 -3,-1.8125 -0.8731,-0.46996 -1.7255,-0.88294 -2.5313,-1.21875 -0.7386,-0.33568 -1.507,-0.61098 -2.3124,-0.8125 -0.8059,-0.20137 -1.7116,-0.41881 -2.7188,-0.6875 -1.0745,-0.26855 -2.0212,-0.42072 -2.8438,-0.4375 z m 70.625,0 c -0.8225,-0.0168 -1.523,0.0775 -2.0937,0.3125 -1.0744,0.47013 -1.8692,1.67775 -2.4063,3.625 -1.9474,7.18506 -3.9542,15.06586 -5.9687,23.59375 -1.9473,8.528 -3.5945,17.17223 -4.9375,25.96875 -0.7387,-3.42458 -1.4489,-6.96302 -2.1875,-10.65625 -0.7387,-3.76033 -1.4536,-7.41444 -2.125,-10.90625 -0.6713,-3.55886 -1.2753,-6.82197 -1.8125,-9.84375 -0.5372,-3.02165 -0.9768,-5.52134 -1.3125,-7.46875 -0.4029,-2.55159 -1.0334,-4.47409 -1.9063,-5.75 -0.873,-1.34291 -2.3559,-2.43949 -4.4374,-3.3125 -2.5517,-1.20861 -4.9936,-2.19877 -7.3438,-2.9375 -2.3501,-0.73855 -4.7654,-1.44877 -7.25,-2.1875 -2.0816,-0.5371 -3.7288,-0.5371 -4.9375,0 -1.2087,0.47014 -2.0613,1.70436 -2.5313,3.71875 -0.7388,3.49184 -1.5068,7.46982 -2.3124,11.96875 -0.7389,4.49907 -1.4804,9.16531 -2.2188,14 -0.7387,4.8348 -1.427,9.72314 -2.0312,14.625 -0.6715,4.83479 -1.2174,9.38998 -1.6876,13.6875 -0.5372,4.23041 -0.95,8.01756 -1.2187,11.375 -0.3357,3.35748 -0.5843,5.96822 -0.7187,7.78125 -0.1337,1.74587 0.088,3.11777 0.625,4.125 0.4699,0.9401 1.4289,1.76137 2.9062,2.5 1.5444,0.94008 3.1383,1.65497 4.75,2.125 1.6788,0.40291 3.3258,0.81587 4.9375,1.21875 1.7459,0.47006 2.927,0.52324 3.5313,0.1875 0.6042,-0.2686 1.0126,-0.98345 1.2812,-2.125 0.3357,-2.41737 0.7752,-5.21434 1.3125,-8.4375 0.6043,-3.29031 1.2659,-6.83337 1.9375,-10.59375 0.7386,-3.82748 1.4489,-7.80546 2.1875,-11.96875 0.8057,-4.16321 1.6052,-8.3367 2.3437,-12.5 0.8731,3.49181 1.8052,6.97704 2.8126,10.46875 1.0072,3.42466 2.024,6.74562 3.0312,9.96875 1.0073,3.15604 1.966,6.12189 2.9062,8.875 1.0073,2.75313 1.9661,5.16838 2.9063,7.25 1.2087,2.88743 3.2955,4.88971 6.25,6.03125 3.2232,1.14155 6.38,2.02066 9.4687,2.625 3.6261,0.80578 5.6596,-0.0733 6.0626,-2.625 1.074,-4.70043 2.335,-10.13477 3.8124,-16.3125 1.5445,-6.24486 3.1383,-12.6115 4.75,-19.125 1.6787,-6.51344 3.3524,-12.93792 5.0313,-19.25 1.6787,-6.31195 3.2993,-11.93713 4.8437,-16.90625 0.5373,-1.74579 0.6436,-3.22874 0.375,-4.4375 -0.2015,-1.27576 -1.2713,-2.50998 -3.2187,-3.71875 -1.1416,-0.73856 -2.127,-1.34236 -3,-1.8125 -0.8729,-0.46996 -1.7254,-0.88294 -2.5313,-1.21875 -0.7386,-0.33568 -1.5067,-0.61098 -2.3124,-0.8125 -0.8059,-0.20137 -1.7116,-0.41881 -2.7188,-0.6875 -1.0745,-0.26855 -2.0212,-0.42072 -2.8438,-0.4375 z m -158.1562,16.78125 c 0.3735,-0.0168 0.7412,0.0387 1.0938,0.15625 1.3427,0.40295 2.3019,1.83269 2.9062,4.25 0.6715,2.35029 1.0312,5.17386 1.0312,8.53125 -1e-4,3.29038 -0.2754,6.86004 -0.8124,10.6875 -0.5373,3.76041 -1.2522,7.21903 -2.125,10.375 -1.0071,3.82754 -2.2149,7.39721 -3.625,10.6875 -1.3432,3.2232 -2.7681,5.94035 -4.3126,8.15625 -1.5443,2.21595 -3.1118,3.86312 -4.6562,4.9375 -1.5444,1.0744 -3.0273,1.3763 -4.4375,0.90625 -1.5444,-0.47005 -2.6943,-1.76212 -3.5,-3.84375 -0.8058,-2.08162 -1.272,-4.55005 -1.4063,-7.4375 -0.1336,-2.95453 -0.028,-6.11124 0.375,-9.46875 0.4028,-3.42458 1.0912,-6.71894 2.0313,-9.875 0.9401,-3.22312 2.1475,-6.54409 3.625,-9.96875 1.5444,-3.4917 3.1915,-6.64841 4.9375,-9.46875 1.7456,-2.8202 3.4726,-5.04461 5.2188,-6.65625 1.3092,-1.25899 2.5356,-1.91837 3.6562,-1.96875 z m 214.8125,1.78125 c -0.1336,5.372 -0.1928,10.80632 -0.125,16.3125 0.067,5.43915 0.1782,10.90006 0.3125,16.40625 -3.0889,0.20148 -6.1923,0.47679 -9.2812,0.8125 -3.0217,0.33578 -6.0409,0.74874 -9.0626,1.21875 3.1562,-6.37916 6.2863,-12.52831 9.375,-18.4375 3.1562,-5.97621 6.0955,-11.41054 8.7813,-16.3125 z"
       id="path5509" />
  </g>
</svg>
