<?xml version="1.0" encoding="UTF-8" standalone="no"?>
<!-- Created with Inkscape (http://www.inkscape.org/) -->

<svg
   xmlns:dc="http://purl.org/dc/elements/1.1/"
   xmlns:cc="http://creativecommons.org/ns#"
   xmlns:rdf="http://www.w3.org/1999/02/22-rdf-syntax-ns#"
   xmlns:svg="http://www.w3.org/2000/svg"
   xmlns="http://www.w3.org/2000/svg"
   xmlns:sodipodi="http://sodipodi.sourceforge.net/DTD/sodipodi-0.dtd"
   xmlns:inkscape="http://www.inkscape.org/namespaces/inkscape"
   width="550.40088"
   height="174.96753"
   id="svg6136"
   version="1.1"
   inkscape:version="0.48.1 r9760"
   sodipodi:docname="New document 16">
  <defs
     id="defs6138" />
  <sodipodi:namedview
     id="base"
     pagecolor="#ffffff"
     bordercolor="#666666"
     borderopacity="1.0"
     inkscape:pageopacity="0.0"
     inkscape:pageshadow="2"
     inkscape:zoom="0.35"
     inkscape:cx="275.20045"
     inkscape:cy="87.48376"
     inkscape:document-units="px"
     inkscape:current-layer="layer1"
     showgrid="false"
     fit-margin-top="0"
     fit-margin-left="0"
     fit-margin-right="0"
     fit-margin-bottom="0"
     inkscape:window-width="1440"
     inkscape:window-height="832"
     inkscape:window-x="0"
     inkscape:window-y="24"
     inkscape:window-maximized="1" />
  <metadata
     id="metadata6141">
    <rdf:RDF>
      <cc:Work
         rdf:about="">
        <dc:format>image/svg+xml</dc:format>
        <dc:type
           rdf:resource="http://purl.org/dc/dcmitype/StillImage" />
        <dc:title></dc:title>
      </cc:Work>
    </rdf:RDF>
  </metadata>
  <g
     inkscape:label="Layer 1"
     inkscape:groupmode="layer"
     id="layer1"
     transform="translate(-99.799549,-444.87842)">
    <path
       inkscape:connector-curvature="0"
       style="font-size:39.54980087px;font-style:normal;font-variant:normal;font-weight:normal;font-stretch:normal;text-indent:0;text-align:center;text-decoration:none;line-height:125%;letter-spacing:0px;word-spacing:0px;text-transform:none;direction:ltr;block-progression:tb;writing-mode:lr-tb;text-anchor:middle;color:#000000;fill:#000000;fill-opacity:1;fill-rule:nonzero;stroke:none;stroke-width:2;marker:none;visibility:visible;font-family:Comix Loud;-inkscape-font-specification:Comix Loud"
       d="m 471.10658,444.87842 c -17.0513,0.98454 -32.2649,2.57037 -45.625,4.75 -0.07,44.43918 -2.4488,98.28291 -7.125,161.53125 4.5705,-0.73834 11.1171,-1.78515 19.625,-3.15625 6.1526,-1.23054 13.3865,-2.73824 21.7188,-4.53125 2.5668,-28.33695 3.9772,-44.87871 4.1875,-49.625 l 19.8125,-3.96875 c -1.5117,30.27061 -2.3564,51.49563 -2.5312,63.625 11.2502,-2.10949 23.9605,-6.02327 38.0937,-11.71875 0.1555,-2.03691 0.3913,-4.86014 0.5625,-7.0625 4.6708,7.35984 10.7937,11.85569 18.375,13.46875 28.6525,2.68003 44.7703,-12.84256 48.3438,-46.59375 0.1306,-5.51259 -0.4362,-11.03751 -1.6563,-16.59375 -2.0299,-7.96756 -5.1355,-15.06436 -9.3125,-21.28125 6.0967,-0.70289 11.8397,-1.17047 17.1562,-1.375 l -2.1562,87.84375 c 9.7014,-0.24122 19.5262,-1.07968 29.4688,-2.5 -0.3217,-37.67941 0.01,-66.49898 1,-86.4375 8.1198,-0.99149 17.0574,-1.5088 26.8124,-1.5625 1.8758,-9.70117 2.6252,-19.9499 2.25,-30.75 -28.8089,1.87603 -57.4903,2.8661 -86.0312,3 -0.3738,8.1796 -0.4708,15.13256 -0.3125,20.90625 -11.6069,-6.44294 -23.9195,-2.56191 -36.9687,11.6875 -0.524,0.66143 -0.9578,1.22395 -1.4063,1.8125 1.9049,-22.60084 4.0699,-47.82306 6.625,-77.25 -16.8405,1.44159 -31.1831,3.56644 -43.0313,6.34375 -1.6174,27.07138 -2.715,46.9879 -3.3124,59.75 -4.4652,1.19542 -7.8947,1.93755 -10.25,2.21875 -0.3166,6e-5 -3.6406,0.79297 -9.9688,2.375 0.6328,-27.80951 2.5273,-52.79206 5.6562,-74.90625 z m -287.0937,25.21875 c -25.4705,0.22293 -46.291,8.97078 -62.4375,26.28125 -3.5995,4.25963 -6.6465,9.0884 -9.1562,14.4375 -13.967304,31.3027 -16.337604,58.31374 -7.125,81.03125 14.7597,25.29305 36.8036,33.45006 66.125,24.46875 22.7028,-12.23879 34.7512,-36.18046 36.2187,-71.78125 0.6156,13.50515 0.9687,23.75743 0.9687,30.3125 1e-4,7.77476 -0.052,12.44381 -0.125,14.03125 27.8159,-3.15682 44.4584,-4.90727 49.9063,-5.25 0.2704,-9.29004 -0.2591,-17.18866 -1.5937,-23.71875 -8.8573,0.54118 -15.1722,1.12703 -18.9063,1.8125 -3.8603,0.66745 -7.0766,1.05286 -9.6563,1.125 l -0.4062,-0.125 c -0.054,-1.29879 -0.137,-3.98569 -0.2812,-8.0625 l 0.2187,-0.25 15.2187,-1.59375 0.25,-16.0625 c -0.9561,-0.27054 -6.5532,-0.0256 -16.7812,0.75 -0.054,-1.76778 0.034,-4.04768 0.25,-6.84375 8.8931,-1.42503 19.0369,-2.24741 30.4375,-2.5 1.3709,-8.85705 1.7252,-15.88528 1.0937,-21.0625 -15.4593,1.0824 -32.7885,2.01047 -52,2.75 -0.1984,1.74984 0.086,7.71432 0.8438,17.90625 0.081,4.35214 0.1352,6.7353 0.1875,8.15625 -7.6928,0.61037 -19.0975,1.14152 -34.2813,1.59375 -15.4861,0.42931 -23.2189,1.10498 -23.2187,2.0625 l 0,26.96875 c 13.2407,-1.32077 21.1451,-1.71579 23.6875,-1.1875 -4.7879,13.20788 -12.5793,19.13506 -23.3438,17.78125 -12.7785,-3.59913 -15.4034,-18.61724 -7.875,-45 4.3587,-10.20301 11.5852,-17.85063 21.6563,-22.96875 9.4435,-4.25946 22.5401,-4.90919 39.2813,-1.9375 -0.4957,-10.13695 2.1293,-23.62685 7.875,-40.5 -9.5262,-1.82431 -18.5411,-2.69931 -27.0313,-2.625 z m 148.6563,33.375 c -2.3507,0.0395 -4.4784,0.28779 -6.4063,0.75 -5.5379,1.31691 -8.6714,4.91384 -9.375,10.8125 -0.2524,3.04863 0.2817,5.40297 1.5625,7.0625 2.4533,2.92235 5.0392,4.61157 7.7812,5.0625 4.9245,0.6314 9.9395,-0.2174 15.0626,-2.5625 7.7746,-8.38804 6.3964,-15.37663 -4.1563,-20.96875 -1.5627,-0.1285 -3.0583,-0.17993 -4.4687,-0.15625 z m 69.6874,25.09375 c -19.3919,1.26278 -38.6948,1.94115 -57.9062,2.03125 -0.025,0.54685 -0.041,1.00037 -0.062,1.53125 -12.6165,-0.9474 -21.4918,-0.61988 -26.5937,0.9375 0.2525,23.90157 1.0004,41.64615 2.2812,53.28125 0.1984,0.0541 2.2466,0.0806 6.125,0.0625 3.8964,-10e-6 8.3601,-0.5907 13.375,-1.78125 1.5485,-14.93588 3.1083,-31.11674 4.6875,-48.28125 -0.1761,7.31066 0.036,12.88505 0.6563,16.59375 6.927,-1.04622 13.2156,-1.65849 18.8437,-1.875 l -1.4687,59.125 c 6.53,-0.16237 13.1512,-0.73145 19.8437,-1.6875 -0.2166,-25.3627 -0.011,-44.76652 0.6563,-58.1875 5.4657,-0.6674 11.4962,-0.99513 18.0624,-1.03125 1.2627,-6.53004 1.7526,-13.44901 1.5,-20.71875 z m -96.9687,1.40625 c -19.3919,1.26279 -38.6948,1.94115 -57.9063,2.03125 -0.469,10.26419 -0.3069,17.73905 0.4688,22.375 6.927,-1.04621 13.2155,-1.68974 18.8438,-1.90625 l -1.4688,59.125 c 6.5299,-0.16237 13.1514,-0.73145 19.8438,-1.6875 -0.2164,-25.3627 -0.011,-44.73527 0.6562,-58.15625 5.4658,-0.66739 11.4962,-1.02638 18.0625,-1.0625 1.2625,-6.53004 1.7525,-13.44901 1.5,-20.71875 z m 245.8125,10.125 c 5.0116,-0.17426 8.7848,4.59464 11.3125,14.3125 1.8519,7.64797 1.0772,15.26119 -2.3437,22.84375 -3.1159,5.94841 -7.2736,8.63848 -12.4376,8.09375 -5.8613,-0.17431 -9.6442,-4.6849 -11.3437,-13.53125 -0.6755,-4.64104 -0.3293,-9.61149 1,-14.90625 2.8761,-10.32796 7.472,-15.9191 13.8125,-16.8125 z"
       id="path5491" />
  </g>
</svg>
