<?xml version="1.0" encoding="UTF-8" standalone="no"?>
<!-- Created with Inkscape (http://www.inkscape.org/) -->

<svg
   xmlns:dc="http://purl.org/dc/elements/1.1/"
   xmlns:cc="http://creativecommons.org/ns#"
   xmlns:rdf="http://www.w3.org/1999/02/22-rdf-syntax-ns#"
   xmlns:svg="http://www.w3.org/2000/svg"
   xmlns="http://www.w3.org/2000/svg"
   xmlns:sodipodi="http://sodipodi.sourceforge.net/DTD/sodipodi-0.dtd"
   xmlns:inkscape="http://www.inkscape.org/namespaces/inkscape"
   width="384.84381"
   height="259.40619"
   id="svg6422"
   version="1.1"
   inkscape:version="0.48.1 r9760"
   sodipodi:docname="New document 34">
  <defs
     id="defs6424" />
  <sodipodi:namedview
     id="base"
     pagecolor="#ffffff"
     bordercolor="#666666"
     borderopacity="1.0"
     inkscape:pageopacity="0.0"
     inkscape:pageshadow="2"
     inkscape:zoom="0.35"
     inkscape:cx="192.4219"
     inkscape:cy="129.7031"
     inkscape:document-units="px"
     inkscape:current-layer="layer1"
     showgrid="false"
     fit-margin-top="0"
     fit-margin-left="0"
     fit-margin-right="0"
     fit-margin-bottom="0"
     inkscape:window-width="1440"
     inkscape:window-height="832"
     inkscape:window-x="0"
     inkscape:window-y="24"
     inkscape:window-maximized="1" />
  <metadata
     id="metadata6427">
    <rdf:RDF>
      <cc:Work
         rdf:about="">
        <dc:format>image/svg+xml</dc:format>
        <dc:type
           rdf:resource="http://purl.org/dc/dcmitype/StillImage" />
        <dc:title></dc:title>
      </cc:Work>
    </rdf:RDF>
  </metadata>
  <g
     inkscape:label="Layer 1"
     inkscape:groupmode="layer"
     id="layer1"
     transform="translate(-182.5781,-402.65908)">
    <path
       inkscape:connector-curvature="0"
       style="font-size:87.08725739px;font-style:normal;font-variant:normal;font-weight:normal;font-stretch:normal;text-indent:0;text-align:center;text-decoration:none;line-height:125%;letter-spacing:0px;word-spacing:0px;text-transform:none;direction:ltr;block-progression:tb;writing-mode:lr-tb;text-anchor:middle;color:#000000;fill:#000000;fill-opacity:1;fill-rule:nonzero;stroke:none;stroke-width:2;marker:none;visibility:visible;font-family:Superstar M54;-inkscape-font-specification:Superstar M54"
       d="m 282.1407,402.65908 0,12.7812 3.6562,0 0,43.6562 -3.6562,0 0,12.75 20.125,0 0,-12.75 -3.6563,0 0,-43.6562 3.6563,0 0,-12.7812 -20.125,0 z m 56.5312,0 -8.2812,7.2812 0,54.6875 8.1562,7.2187 23,0 8.2812,-7.2187 0,-33.7813 -21.5,0 0,12.8126 8.7188,0 0,15.4374 -13.8125,0 0,-43.6562 13.8125,0 0,5.5938 12.7812,0 0,-11.0938 -8.2812,-7.2812 -22.875,0 z m 45.5,0 -8.125,7.2812 0,54.6875 8.125,7.2187 23.7812,0 8.25,-7.2187 0,-54.6875 -8.25,-7.2812 -23.7812,0 z m 38.1875,0 0,18.375 12.7813,0 0,-5.5938 3.5624,0 0,43.6562 -3.6562,0 0,12.75 20.125,0 0,-12.75 -3.6562,0 0,-43.6562 3.5624,0 0,5.5938 12.7813,0 0,-18.375 -45.5,0 z m -33.5625,12.7812 14.5938,0 0,43.6562 -14.5938,0 0,-43.6562 z m -206.0625,76.4375 0,15.5937 4.5,0 0,53.2813 -4.6563,0 0,15.5937 24.5626,0 0,-15.5937 -4.3126,0 0,-32 13.5626,29.0625 13.5937,-29.0625 0,32 -4.2813,0 0,15.5937 24.5626,0 0,-15.5937 -4.625,0 0,-53.2813 4.4687,0 0,-15.5937 -20.125,0 -13.5937,29.0313 -13.5626,-29.0313 -20.0937,0 z m 75.125,0 0,15.5937 5.9063,0 13.2187,37.625 0,15.6563 -4.4063,0 0,15.5937 24.5938,0 0,-15.5937 -4.375,0 0,-15.5313 13.625,-37.75 5.0312,0 0,-15.5937 -23.9062,0 0,15.5937 2.6875,0 -5.2813,15.875 -5.375,-15.875 2.8438,0 0,-15.5937 -24.5625,0 z m 87.9687,0 0,15.5937 4.4688,0 0,53.2813 -4.4688,0 0,15.5937 49.3126,0 0,-22.4062 -15.5938,0 0,6.8125 -13.6562,0 0,-18.8125 21.3437,0 0,-15.6562 -21.3437,0 0,-18.8126 13.6562,0 0,6.8126 15.5938,0 0,-22.4063 -49.3126,0 z m 56.7813,0 0,15.5937 5.9063,0 13.25,37.625 0,15.6563 -4.4063,0 0,15.5937 24.5625,0 0,-15.5937 -4.3438,0 0,-15.5313 13.5938,-37.75 5.0625,0 0,-15.5937 -23.9375,0 0,15.5937 2.6875,0 -5.2813,15.875 -5.375,-15.875 2.8438,0 0,-15.5937 -24.5625,0 z m 61.0937,0 0,15.5937 4.4688,0 0,53.2813 -4.4688,0 0,15.5937 49.3126,0 0,-22.4062 -15.5938,0 0,6.8125 -13.6562,0 0,-18.8125 21.3437,0 0,-15.6562 -21.3437,0 0,-18.8126 13.6562,0 0,6.8126 15.5938,0 0,-22.4063 -49.3126,0 z m 66.8438,0 -10.0625,8.875 0,32.3125 10.0625,8.875 21.2812,0 0,18.8125 -15.75,0 0,-6.8125 -15.5937,0 0,13.5938 10.0625,8.8124 26.9375,0 9.9375,-8.8124 0,-32.375 -9.9375,-8.875 -21.4063,0 0,-18.8126 15.75,0 0,6.8126 15.5938,0 0,-13.5938 -9.9375,-8.8125 -26.9375,0 z m -267.6875,108 -7.3125,6.5313 0,49.1562 7.3125,6.5 21.375,0 7.4063,-6.5 0,-49.1562 -7.4063,-6.5313 -21.375,0 z m 34.375,0 0,11.4687 3.2813,0 0,39.25 -3.3126,0 0,11.4688 18.0938,0 0,-11.4688 -3.3438,0 0,-21.125 12.5626,32.5938 12.3124,0 0,-50.7188 3.3126,0 0,-11.4687 -18.0626,0 0,11.4687 3.3438,0 0,21.1563 -12.5938,-32.625 -15.5937,0 z m 68.1875,0 0,11.4687 4.375,0 9.7188,27.7188 0,11.5312 -3.2188,0 0,11.4688 18.0625,0 0,-11.4688 -3.1875,0 0,-11.4374 10,-27.8126 3.7188,0 0,-11.4687 -17.5938,0 0,11.4687 1.9688,0 -3.875,11.6876 -3.9688,-11.6876 2.0938,0 0,-11.4687 -18.0938,0 z m 52.3125,0 -7.3437,6.5313 0,49.1562 7.3437,6.5 21.375,0 7.4063,-6.5 0,-49.1562 -7.4063,-6.5313 -21.375,0 z m 34.3125,0 0,11.4687 3.2812,0 0,44.2188 7.375,6.5 20.9376,0 7.5312,-6.5312 0,-44.1876 3.2812,0 0,-11.4687 -18.0937,0 0,11.4687 3.3125,0 0,39.25 -12.8438,0 0,-39.25 3.2813,0 0,-11.4687 -18.0625,0 z m -185.0312,11.4687 13.125,0 0,39.25 -13.125,0 0,-39.25 z m 154.875,0 13.0937,0 0,39.25 -13.0937,0 0,-39.25 z"
       id="path5579" />
  </g>
</svg>
