<?xml version="1.0" encoding="UTF-8" standalone="no"?>
<!-- Created with Inkscape (http://www.inkscape.org/) -->

<svg
   xmlns:dc="http://purl.org/dc/elements/1.1/"
   xmlns:cc="http://creativecommons.org/ns#"
   xmlns:rdf="http://www.w3.org/1999/02/22-rdf-syntax-ns#"
   xmlns:svg="http://www.w3.org/2000/svg"
   xmlns="http://www.w3.org/2000/svg"
   xmlns:sodipodi="http://sodipodi.sourceforge.net/DTD/sodipodi-0.dtd"
   xmlns:inkscape="http://www.inkscape.org/namespaces/inkscape"
   width="474.24036"
   height="255.04367"
   id="svg6512"
   version="1.1"
   inkscape:version="0.48.1 r9760"
   sodipodi:docname="New document 40">
  <defs
     id="defs6514" />
  <sodipodi:namedview
     id="base"
     pagecolor="#ffffff"
     bordercolor="#666666"
     borderopacity="1.0"
     inkscape:pageopacity="0.0"
     inkscape:pageshadow="2"
     inkscape:zoom="0.35"
     inkscape:cx="237.12018"
     inkscape:cy="127.52183"
     inkscape:document-units="px"
     inkscape:current-layer="layer1"
     showgrid="false"
     fit-margin-top="0"
     fit-margin-left="0"
     fit-margin-right="0"
     fit-margin-bottom="0"
     inkscape:window-width="1440"
     inkscape:window-height="832"
     inkscape:window-x="0"
     inkscape:window-y="24"
     inkscape:window-maximized="1" />
  <metadata
     id="metadata6517">
    <rdf:RDF>
      <cc:Work
         rdf:about="">
        <dc:format>image/svg+xml</dc:format>
        <dc:type
           rdf:resource="http://purl.org/dc/dcmitype/StillImage" />
        <dc:title></dc:title>
      </cc:Work>
    </rdf:RDF>
  </metadata>
  <g
     inkscape:label="Layer 1"
     inkscape:groupmode="layer"
     id="layer1"
     transform="translate(-137.87982,-404.84035)">
    <path
       inkscape:connector-curvature="0"
       style="font-size:39.54980087px;font-style:normal;font-variant:normal;font-weight:normal;font-stretch:normal;text-indent:0;text-align:center;text-decoration:none;line-height:125%;letter-spacing:0px;word-spacing:0px;text-transform:none;direction:ltr;block-progression:tb;writing-mode:lr-tb;text-anchor:middle;color:#000000;fill:#000000;fill-opacity:1;fill-rule:nonzero;stroke:none;stroke-width:2;marker:none;visibility:visible;font-family:Comix Loud;-inkscape-font-specification:Comix Loud"
       d="m 218.02647,404.84785 c -7.9866,0.146 -14.9032,2.3369 -20.75,6.5937 -4.6228,3.775 -7.1523,8.2287 -7.5625,13.3438 0.4102,7.2215 5.7426,10.8125 16,10.8125 6.6745,-0.4923 12.1391,-2.0693 16.4062,-4.75 2.9268,-1.5864 5.144,-3.1166 6.5938,-4.5937 2.5985,-3.7474 3.9997,-6.9794 4.2188,-9.6876 l 0,-2.375 -0.3438,-1.5312 c -2.4893,-5.2245 -6.8142,-7.8123 -12.9688,-7.8125 -0.5419,-0.01 -1.0613,-0.01 -1.5937,0 z m 165.875,20.0625 c -7.4588,-0.054 -13.7569,0.8581 -18.9063,2.75 -0.3739,1.5006 -1.1995,7.4142 -2.4374,17.75 -1.0069,6.7972 -2.0771,14.5945 -3.2188,22.8438 -0.603,-11.0281 -1.4403,-24.0437 -2.4688,-39.1563 -8.5611,-0.5016 -15.8809,-0.5712 -21.9687,-0.1563 -4.4275,10.602 -7.9264,19.0517 -10.4687,25.3126 -2.8018,-8.1806 -4.9747,-17.4529 -6.5313,-27.8126 -8.0421,0.4325 -15.7016,0.9187 -23,1.4376 -2.4088,17.527 -4.7407,31.5642 -7.0313,42.1562 0,-0.1136 0,-0.2307 0,-0.3438 0.8129,-11.0515 -0.2581,-24.5924 -3.25,-40.625 -0.934,10e-5 -2.204,0.224 -3.8124,0.6563 -8.4746,2.7846 -13.5552,5.0099 -15.25,6.6875 0.8993,16.7243 0.3852,29.6669 -1.5,38.7812 -1.1588,3.2689 -3.2548,5.1234 -6.2813,5.625 -1.9543,0.1729 -3.4311,-0.9364 -4.4687,-3.375 -1.4531,-4.4621 -1.4808,-12.3067 -0.063,-23.5312 1.4354,-11.2417 2.499,-18.474 3.1563,-21.6562 -7.1084,0.8994 -13.7106,2.1867 -19.7813,3.8124 -1.4182,2.7327 -2.8038,8.2157 -4.1874,16.5 -0.157,1.3799 -0.2813,2.5554 -0.4063,3.7813 -0.937,-9.9401 -1.626,-15.8878 -2.0937,-17.7187 -11.3519,0.2462 -23.3275,1.425 -35.9376,3.5312 3.2825,29.6243 2.2792,47.1387 -3,52.5 -3.2004,3.4466 -7.3458,5.328 -12.4062,5.6562 -6.6198,-0.3283 -9.2895,-4.7858 -8.0312,-13.375 0.684,-5.0878 2.6981,-9.8069 6.0624,-14.1562 -7.4128,-7.0846 -15.4185,-11.8935 -24.0624,-14.4375 l -0.3126,-0.062 c -6.3461,5.1699 -10.7687,13.812 -13.3124,25.875 -1.313,8.8627 -1.399,16.6889 -0.25,23.5 1.5864,6.4828 4.1628,12.0334 7.7187,16.6562 2.6807,3.5834 7.0097,6.6006 13,9.0626 6.2095,2.0515 13.5127,2.8322 21.9375,2.3124 10.3125,-0.7933 19.6141,-4.1579 27.875,-10.0937 13.5662,-9.764 21.3552,-24.4926 23.375,-44.1563 0.1406,0.6901 0.2731,1.3709 0.4375,2.0313 1.4182,6.5029 3.2025,11.6114 5.3125,15.3125 2.1619,3.9432 4.3979,6.7213 6.75,8.3125 2.4213,1.7814 4.9125,2.8522 7.4375,3.25 4.7734,0.6226 9.5808,-0.3466 14.4063,-2.9063 2.8882,-1.4182 5.831,-3.8395 8.875,-7.2812 1.8851,-2.1273 3.3791,-4.1288 4.4687,-6.0312 2.1989,-4.1046 3.8795,-8.0063 5.125,-11.6876 -1.253,6.9511 -2.1895,13.4085 -2.8125,19.25 6.6066,2.0754 13.3353,2.9676 20.2188,2.6563 0.7783,-8.6821 2.0378,-18.1363 3.75,-28.375 1.7123,-10.2386 2.5349,-14.7698 2.5,-13.5937 l 12.9374,39.8124 c 7.1947,-15.5135 12.6778,-27.9664 16.5,-37.375 l 0.2188,0.031 c 0,0.1556 -0.08,0.2225 -0.2188,0.1875 0.1729,1.055 0.3583,4.0956 0.5313,9.0938 1.2972,18.7131 1.965,30.1968 2,34.4687 l 13.1875,-2.1563 c -0.4361,3.3673 -0.8618,6.5698 -1.3125,10.0938 8.3741,0.101 16.9785,-0.7758 25.7813,-2.6562 0.5801,-11.8729 1.4501,-21.9905 2.625,-30.3438 2.0387,-0.072 5.9941,-0.3855 11.8437,-0.9375 16.5271,-2.1379 25.7377,-11.9945 27.6563,-29.5625 0.024,-13.5806 -5.7699,-22.3148 -17.4063,-26.2188 -7.1985,-1.2195 -13.6987,-1.8639 -19.5,-1.9062 z m 5.7813,20.2188 c 3.0924,-0.096 6.1499,0.8371 9.125,2.7812 2.305,1.8666 3.1995,4.7882 2.6874,8.75 -1.3763,5.4878 -7.5467,8.4776 -18.4687,9 0.4827,-6.5641 1.2877,-13.1364 2.4063,-19.75 1.4298,-0.4653 2.8443,-0.7375 4.25,-0.7812 z m 211.25,65.6874 c -6.4879,-0.061 -13.4549,0.4759 -20.8438,1.5938 -1.7069,31.8956 -2.5772,55.4191 -2.6562,70.5625 0.1555,0.05 0.2187,0.1251 0.2187,0.2813 9.4607,0.8242 18.204,0.6472 26.25,-0.5626 1.8794,-13.9926 4.6305,-37.698 8.2187,-71.125 -3.5683,-0.4607 -7.2947,-0.7135 -11.1874,-0.75 z m -67.3438,7.75 c -13.4382,0.4869 -22.9356,1.8967 -28.5312,4.1876 l 0.031,1.7812 c -6.8442,0.8898 -15.1052,2.0817 -24.9375,3.5938 -2.1124,16.5138 -4.0017,29.6938 -5.6875,39.5312 -1.6722,-3.1382 -4.3212,-8.3817 -7.9688,-15.7188 -3.6245,-7.3587 -7.557,-16.2767 -11.7812,-26.7187 l -24.4688,1.4687 c -0.6734,6.2067 -1.2856,11.8247 -1.8437,17.0938 -0.4764,-4.1546 -1.0264,-8.4192 -1.7187,-12.875 -1.207,-0.036 -2.8734,0.192 -4.9688,0.6875 -11.0617,3.266 -17.7124,5.9298 -19.9688,8.0313 0.5058,21.6493 -0.6433,38.3258 -3.4374,50.0312 -1.626,4.1788 -4.4124,6.533 -8.3438,7.0625 -2.5324,0.1467 -4.4109,-1.3703 -5.6562,-4.5625 -1.7024,-5.8239 -1.4297,-15.956 0.8437,-30.4062 2.2965,-14.4721 3.932,-23.7568 4.9063,-27.8438 -9.2219,0.8834 -17.7783,2.2624 -25.6876,4.125 -1.9402,3.476 -3.9805,10.5356 -6.0937,21.1875 -0.1407,0.9727 -0.2485,1.7428 -0.375,2.6563 -1.9164,-4.7528 -4.269,-9.1546 -7.125,-13.1876 -14.2978,-16.8779 -30.3597,-16.1619 -48.1875,2.1563 -3.2724,3.883 -5.1842,6.5132 -5.7188,7.9063 -0.4481,0.7329 -0.8895,1.5669 -1.3437,2.4374 -0.107,-0.8526 -0.251,-1.7038 -0.4375,-2.5624 -1.5176,-4.5428 -5.0208,-8.5438 -10.5312,-12 -5.2918,-3.2928 -11.1868,-5.0969 -17.6876,-5.4063 -12.5074,0.045 -24.0378,3.5488 -34.5624,10.5 -1.1828,20.6272 -2.2054,37.3177 -3.0938,50.9063 l -8.5625,-54.0938 -1.5,-10.3125 c -15.4654,-1.4236 -27.7074,0.4487 -36.75,5.625 l -9.1875,29.2813 c -5.4814,18.0404 -9.0247,29.176 -10.625,33.4062 -1.5724,4.2042 -6.8261,20.0174 -15.7812,47.4375 11.3433,5.2233 22.1025,6.7296 32.2812,4.5313 1.6458,-5.7281 4.2607,-14.6965 7.875,-26.9063 8.1354,-0.4343 13.7562,-0.2431 16.8125,0.5313 l 1,5.7812 c 0.2624,1.2346 1.6429,8.5654 4.125,21.9688 13.8975,0.095 23.4627,-1.2009 28.75,-3.875 l -2.5313,-16 c 5.4622,2.0621 11.7476,3.9061 18.875,5.4687 0.6205,-10.1157 1.133,-21.1421 1.5626,-33.0313 l 19.8124,33.8126 21.1876,-18.875 c 4.0907,4.9651 9.1272,8.1884 15.125,9.6562 24.4996,3.0444 40.4024,-7.2599 47.7187,-30.875 1.3222,5.2268 2.8961,9.5645 4.7187,13 2.6391,5.181 5.4604,8.8514 8.4376,11 3.0594,2.3974 6.19,3.9179 9.4374,4.5312 6.1446,0.9919 12.3822,-0.069 18.7188,-3.1874 3.7883,-1.7195 7.7436,-4.7655 11.8125,-9.0938 2.5196,-2.6754 4.5172,-5.209 6,-7.625 1.0994,-1.9104 2.0992,-3.7829 3.0313,-5.625 -0.6264,4.9085 -1.3114,10.1043 -2.0938,15.8438 9.4513,-0.3395 18.3298,-1.5414 26.625,-3.5938 l 3.1562,-31 1.4376,-16.3438 c 10.2786,22.5052 17.9471,41.4095 23.0312,56.6876 8.09,-1.1862 14.9192,-2.9087 20.4688,-5.1563 l 11.0937,-80.625 0.2187,20.9063 c -0.1804,11.0687 -0.4495,22.2088 -0.8124,33.4062 l -0.9376,18.4062 c 6.8458,1.4833 14.9676,1.3083 24.375,-0.5312 16.2038,-1.6779 28.1427,-6.878 35.8126,-15.5938 7.6697,-8.716 11.5664,-22.1952 11.7187,-40.4687 0.1336,-1.4501 -0.1467,-4.6861 -0.8437,-9.7187 -0.7759,-5.393 -2.9339,-10.8793 -6.5,-16.4688 -9.7001,-11.3688 -21.2809,-16.8303 -34.7188,-16.3438 z m 1.75,28.4063 c 3.7028,-0.085 7.5996,0.7754 11.6562,2.5625 4.4212,4.6984 6.4165,10.4295 6.0313,17.2188 -0.9102,15.9685 -9.1759,24.0724 -24.8437,24.3124 0.8061,-11.0721 1.027,-25.3874 0.6874,-42.9374 2.0943,-0.725 4.2471,-1.1053 6.4688,-1.1563 z m -208.1875,20.5937 c 5.1461,-0.023 8.8663,4.9838 11.1563,15.0313 1.6614,7.9032 0.6203,15.7032 -3.125,23.375 -3.3818,6.0049 -7.72,8.657 -13,7.9375 -6.0073,-0.3615 -9.751,-5.1221 -11.2188,-14.25 -0.5483,-4.782 -0.06,-9.8598 1.4688,-15.25 3.2722,-10.5051 8.1864,-16.1249 14.7187,-16.8438 z m -62.3125,0.6563 c 0.2749,-0.014 0.513,-0.024 0.75,0 2.8176,0.041 4.2125,1.5831 4.1875,4.625 -0.089,3.6662 -3.6615,7.6648 -10.75,11.9687 l -3.0625,1.5 c -0.051,-6.4221 0.048,-11.4284 0.3125,-15 3.7795,-1.9796 6.6385,-2.9926 8.5625,-3.0937 z m -67.2188,16.1563 c 1.8476,7.3608 3.4851,16.3022 4.9376,26.8124 -4.2209,-0.1283 -8.0298,-0.1882 -11.4376,-0.1562 1.7762,-6.4328 3.9478,-15.3135 6.5,-26.6562 z m 90.1563,0.3437 c -0.7821,4.9532 -1.054,9.8609 -0.8437,14.7187 0.3775,7.2828 2.0153,14.0704 4.875,20.4063 -5.6484,-6.1156 -11.7517,-13.5272 -18.2813,-22.2813 5.9491,-4.1913 10.6913,-8.4745 14.25,-12.8437 z m 302.2187,6.6875 c -3.1291,-0.041 -6.4272,0.3564 -9.9062,1.1875 -6.4509,1.7282 -9.4323,5.1475 -8.9375,10.2187 1.166,4.331 4.115,7.4419 8.8437,9.375 4.2305,1.4037 9.8749,1.1343 16.9376,-0.8437 4.253,-1.5485 7.2726,-3.3035 9.0312,-5.2187 1.1785,-1.2396 1.7335,-2.9223 1.6875,-5.0938 -0.066,-2.2616 -1.6409,-4.4476 -4.6875,-6.5312 -2.0243,-1.113 -4.5287,-1.9479 -7.5312,-2.5313 -1.7516,-0.3385 -3.5601,-0.538 -5.4376,-0.5625 z"
       id="path5627" />
  </g>
</svg>
