<?xml version="1.0" encoding="UTF-8" standalone="no"?>
<!-- Created with Inkscape (http://www.inkscape.org/) -->

<svg
   xmlns:dc="http://purl.org/dc/elements/1.1/"
   xmlns:cc="http://creativecommons.org/ns#"
   xmlns:rdf="http://www.w3.org/1999/02/22-rdf-syntax-ns#"
   xmlns:svg="http://www.w3.org/2000/svg"
   xmlns="http://www.w3.org/2000/svg"
   xmlns:sodipodi="http://sodipodi.sourceforge.net/DTD/sodipodi-0.dtd"
   xmlns:inkscape="http://www.inkscape.org/namespaces/inkscape"
   width="411.65619"
   height="164.25845"
   id="svg6361"
   version="1.1"
   inkscape:version="0.48.1 r9760"
   sodipodi:docname="New document 31">
  <defs
     id="defs6363" />
  <sodipodi:namedview
     id="base"
     pagecolor="#ffffff"
     bordercolor="#666666"
     borderopacity="1.0"
     inkscape:pageopacity="0.0"
     inkscape:pageshadow="2"
     inkscape:zoom="0.35"
     inkscape:cx="205.8281"
     inkscape:cy="82.129228"
     inkscape:document-units="px"
     inkscape:current-layer="layer1"
     showgrid="false"
     fit-margin-top="0"
     fit-margin-left="0"
     fit-margin-right="0"
     fit-margin-bottom="0"
     inkscape:window-width="1440"
     inkscape:window-height="832"
     inkscape:window-x="0"
     inkscape:window-y="24"
     inkscape:window-maximized="1" />
  <metadata
     id="metadata6366">
    <rdf:RDF>
      <cc:Work
         rdf:about="">
        <dc:format>image/svg+xml</dc:format>
        <dc:type
           rdf:resource="http://purl.org/dc/dcmitype/StillImage" />
        <dc:title></dc:title>
      </cc:Work>
    </rdf:RDF>
  </metadata>
  <g
     inkscape:label="Layer 1"
     inkscape:groupmode="layer"
     id="layer1"
     transform="translate(-169.1719,-450.23295)">
    <path
       inkscape:connector-curvature="0"
       style="font-size:39.54980087px;font-style:normal;font-variant:normal;font-weight:normal;font-stretch:normal;text-indent:0;text-align:center;text-decoration:none;line-height:125%;letter-spacing:0px;word-spacing:0px;text-transform:none;direction:ltr;block-progression:tb;writing-mode:lr-tb;text-anchor:middle;color:#000000;fill:#000000;fill-opacity:1;fill-rule:nonzero;stroke:none;stroke-width:2;marker:none;visibility:visible;font-family:Comix Loud;-inkscape-font-specification:Comix Loud"
       d="m 566.1406,450.23342 c -11.131,0.0274 -23.0899,1.19789 -35.875,3.53125 -1.1669,50.487 -1.4448,87.7209 -0.8437,111.6563 0.2475,0.071 0.375,0.2212 0.375,0.4687 14.9907,0.8485 28.8115,0.1106 41.4687,-2.1875 2.298,-22.2029 5.4964,-59.7839 9.5625,-112.78125 -4.7178,-0.46399 -9.628,-0.69994 -14.6875,-0.6875 z m -285.75,2.9375 c -15.5035,2.7171 -28.6137,5.72081 -39.3125,9.03125 -3.4343,20.8052 -6.101,37.338 -8,49.5938 -8.4568,-13.4294 -16.2539,-29.0589 -23.4062,-46.9063 -14.1824,4.16635 -27.6827,8.24334 -40.5,12.25 3.1327,32.7242 4.8695,59.0861 5.2187,79.0625 0.5147,22.0575 1.8358,41.3731 3.9375,58 12.6766,0.9189 25.0864,-0.3516 37.25,-3.8125 -2.274,-15.8361 -4.0188,-33.2394 -5.2812,-52.25 -1.2633,-19.0104 -1.6843,-27.4589 -1.25,-25.3437 l 39.875,65.6562 c 6.3041,-30.7461 10.893,-55.3005 13.75,-73.7188 l 0.375,0 c 0.065,0.278 -0.02,0.4063 -0.2813,0.4063 0.7539,1.8114 2.3316,7.1454 4.75,16 10.214,32.8776 16.26,53.1344 18.125,60.75 l 33.5937,-13.9687 c -0.2369,-1.081 -0.5003,-2.262 -0.7812,-3.4688 2.8647,1.7603 5.9841,3.0285 9.375,3.75 29.3669,2.7468 46.814,-11.8216 52.375,-43.6562 1.3881,7.7313 2.3415,12.436 2.7188,13.2812 2.4115,10.7786 5.0823,20.3443 8,28.6875 5.8112,0.6992 13.5563,0.5057 23.25,-0.5313 l 7.5624,-0.6874 c 0.6993,-1.7363 2.0825,-5.1836 4.1563,-10.3438 2.8954,-8.0548 9.6834,-24.6719 19.9687,-49 0.1903,0.653 0.4782,1.5933 0.5938,1.9688 7.0012,22.423 11.8012,38.6576 14.4062,48.7187 2.6047,10.061 4.125,16.14 4.5626,18.2187 34.9378,-13.4047 55.8775,-21.2311 62.8124,-23.5 -2.7626,-12.1123 -6.1162,-22.1844 -10.0312,-30.1874 -11.2804,3.6678 -19.2099,6.5805 -23.8125,8.7187 -4.7718,2.1571 -8.8111,3.6986 -12.125,4.6563 l -0.5625,-0.031 c -0.5053,-1.6625 -1.541,-5.1164 -3.0938,-10.3437 l 0.1876,-0.375 19.1874,-7.1563 -5.0624,-20.8437 c -1.328,-0.03 -8.4931,2.1631 -21.4688,6.5937 -0.6625,-2.2695 -1.3122,-5.2467 -1.9688,-8.9375 11.0307,-4.8237 23.8943,-9.3221 38.5626,-13.4688 -1.1935,-11.9207 -3.0735,-21.1368 -5.625,-27.62495 -15.51,5.19581 -32.6414,10.67205 -51.25,16.37495 l -20.4063,-5.9062 c -6.1973,18.8084 -13.6175,38.4797 -22.25,59 l -2.0937,-11.1562 c -0.844,-5.9802 -1.4509,-11.3363 -1.8126,-16.0626 -1.5913,-20.1826 -2.0858,-32.2568 -1.5312,-36.1874 -14.1303,0.7475 -24.4368,2.0495 -30.875,3.9062 0.6695,8.0422 1.3131,14.9605 1.9062,20.9688 -2.0012,-4.1513 -4.3292,-8.0139 -7.0312,-11.5938 -15.9629,-17.72313 -33.2595,-16.42107 -51.875,3.9062 -3.3998,4.2922 -5.3758,7.1685 -5.9062,8.6876 -2.2426,3.9304 -4.4905,9.65 -6.7813,17.125 -0.2307,0.89 -0.454,1.7697 -0.6563,2.6562 -5.8442,-19.8764 -12.9595,-43.3942 -21.4687,-70.90625 z m 61.8437,59.62505 c 5.5459,-0.1928 9.703,5.0892 12.5,15.8437 2.0497,8.4637 1.192,16.8899 -2.5937,25.2813 -3.4483,6.5829 -8.0354,9.5716 -13.75,8.9687 -6.4865,-0.1929 -10.6816,-5.1789 -12.5625,-14.9687 -0.7475,-5.1361 -0.3771,-10.6092 1.0938,-16.4688 3.1829,-11.4296 8.2953,-17.6675 15.3124,-18.6562 z m 207.4688,65.375 c -4.947,0.086 -10.1359,0.8632 -15.5938,2.3437 -10.1114,3.0405 -14.6817,8.5723 -13.6562,16.5625 2.0505,6.7882 6.8714,11.5777 14.4375,14.4062 6.7528,2.0153 15.6526,1.3086 26.7187,-2.1562 6.6468,-2.6516 11.3129,-5.5451 14,-8.6562 1.8027,-2.0154 2.6137,-4.7268 2.4376,-8.1563 -0.2125,-3.5708 -2.7733,-6.9472 -7.6876,-10.0937 -3.2525,-1.6618 -7.2585,-2.8785 -12.0312,-3.6563 -2.7842,-0.4508 -5.6568,-0.6451 -8.625,-0.5937 z"
       id="path5565" />
  </g>
</svg>
