<?xml version="1.0" encoding="UTF-8" standalone="no"?>
<!-- Created with Inkscape (http://www.inkscape.org/) -->

<svg
   xmlns:dc="http://purl.org/dc/elements/1.1/"
   xmlns:cc="http://creativecommons.org/ns#"
   xmlns:rdf="http://www.w3.org/1999/02/22-rdf-syntax-ns#"
   xmlns:svg="http://www.w3.org/2000/svg"
   xmlns="http://www.w3.org/2000/svg"
   xmlns:sodipodi="http://sodipodi.sourceforge.net/DTD/sodipodi-0.dtd"
   xmlns:inkscape="http://www.inkscape.org/namespaces/inkscape"
   width="589.86652"
   height="301.26627"
   id="svg6046"
   version="1.1"
   inkscape:version="0.48.1 r9760"
   sodipodi:docname="New document 10">
  <defs
     id="defs6048" />
  <sodipodi:namedview
     id="base"
     pagecolor="#ffffff"
     bordercolor="#666666"
     borderopacity="1.0"
     inkscape:pageopacity="0.0"
     inkscape:pageshadow="2"
     inkscape:zoom="0.35"
     inkscape:cx="4.2189637"
     inkscape:cy="-35.081149"
     inkscape:document-units="px"
     inkscape:current-layer="layer1"
     showgrid="false"
     fit-margin-top="0"
     fit-margin-left="0"
     fit-margin-right="0"
     fit-margin-bottom="0"
     inkscape:window-width="1440"
     inkscape:window-height="832"
     inkscape:window-x="0"
     inkscape:window-y="24"
     inkscape:window-maximized="1" />
  <metadata
     id="metadata6051">
    <rdf:RDF>
      <cc:Work
         rdf:about="">
        <dc:format>image/svg+xml</dc:format>
        <dc:type
           rdf:resource="http://purl.org/dc/dcmitype/StillImage" />
        <dc:title></dc:title>
      </cc:Work>
    </rdf:RDF>
  </metadata>
  <g
     inkscape:label="Layer 1"
     inkscape:groupmode="layer"
     id="layer1"
     transform="translate(-370.78104,-196.01477)">
    <path
       inkscape:connector-curvature="0"
       style="font-size:63.49426651px;font-style:normal;font-variant:normal;font-weight:bold;font-stretch:normal;text-indent:0;text-align:center;text-decoration:none;line-height:125%;letter-spacing:-5px;word-spacing:0px;text-transform:none;direction:ltr;block-progression:tb;writing-mode:lr-tb;text-anchor:middle;color:#000000;fill:#000000;fill-opacity:1;fill-rule:nonzero;stroke:none;stroke-width:2;marker:none;visibility:visible;font-family:Otaku Rant;-inkscape-font-specification:Otaku Rant Bold"
       d="m 596.30358,196.01487 c -23.2195,3.46968 -37.4115,5.82144 -42.5937,7.0625 -21.7898,2.36638 -32.7801,4.48795 -32.9688,6.375 -0.1089,1.08889 0.4012,1.69648 1.5625,1.8125 -0.065,0.65337 -0.4357,1.50067 -1.125,2.53125 -0.6534,35.85644 -0.691,53.89066 -0.125,54.09375 -2.6782,50.97564 -2.6335,76.59915 0.125,76.875 l 3.4687,0.34375 c 5.3713,0.53712 23.3412,-1.73163 53.9063,-6.8125 12.2467,-0.3765 19.033,-1.78034 20.375,-4.21875 1.0637,0.73712 5.3009,1.50509 12.75,2.25 l 4.5937,0.4375 3.375,0.0312 c -0.022,0.21665 0.1603,0.3317 0.5938,0.375 l 0.75,-0.90625 2.2812,0.5625 1.9688,0.1875 c 1.2461,0.12461 2.0692,-0.45257 2.5,-1.75 4.411,-15.26746 8.7581,-29.6438 13,-43.21875 -0.1655,10.32585 -0.1855,15.83969 0,15.90625 -0.9992,19.02267 -0.9668,28.58457 0.062,28.6875 l 1.2813,0.125 c 2.0044,0.20044 8.7188,-0.63522 20.125,-2.53125 5.0216,-0.15439 7.5792,-0.79155 7.6874,-1.875 2e-4,-0.0238 -1e-4,-0.0388 0,-0.0625 10.8684,0.2827 16.4022,-0.0553 16.5,-1.03125 l 1.1876,-12 0.6874,0.0937 c 1.3896,4.43402 4.3421,9.43797 8.8438,15.03125 l 1.0625,0.0937 c 6.024,-3.06344 9.9598,-5.63727 11.8125,-7.75 -0.5795,-1.31636 -0.8475,-2.14785 -0.8125,-2.5 -5.4227,-10.0625 -8.1152,-15.50405 -8.0313,-16.34375 l 0.3438,0.0312 c 6.395,-4.03852 9.8195,-8.53902 10.3125,-13.46875 0.038,-0.37642 0.064,-1.36249 0.062,-2.65625 2.6961,4.86411 4.5438,8.2494 4.5312,8.375 1.4356,0.14358 1.173,10.14583 -0.8124,30 l -0.094,0.875 c -0.103,1.02928 3.818,1.95367 11.7812,2.75 l 2.1563,0.21875 c 0.6771,0.0677 1.4291,-0.17162 2.25,-0.71875 0.8964,-8.96551 2.0673,-18.55619 3.5,-28.78125 3.9762,-3.37763 8.7559,-8.79313 14.3437,-16.25 0.2247,-2.24811 -3.5632,-5.6232 -11.375,-10.125 l -0.9374,-0.0937 c -2.4594,3.52939 -5.289,6.96469 -8.4688,10.3125 l -0.5938,-0.0625 c -0.929,-2.47293 -4.1098,-7.13756 -9.5,-13.96875 l -0.5937,-0.0625 c -4.4204,0.98059 -8.3536,3.19178 -11.8125,6.59375 0.2587,0.5866 0.4066,0.9869 0.5625,1.375 -3.3266,-3.32424 -7.8361,-5.2742 -13.5313,-5.84375 -4.5234,-0.45227 -10.1305,-0.76557 -16.8124,-0.96875 -0.7857,-0.0785 -1.5516,1.88275 -2.3126,5.9375 -0.024,0.24383 0.046,0.60749 0.2188,1.0625 l -2.6562,19.4375 c -0.057,3.03098 -0.1746,5.55813 -0.375,7.5625 -0.092,0.92049 -0.6792,5.41904 -1.5,11.5625 -0.057,-1.84007 -0.1311,-2.9256 -0.25,-2.9375 -1.9314,-0.3846 -6.8422,0.22401 -14.7188,1.84375 l 0,-3.34375 c 5.9049,-0.50377 8.916,-1.19155 9,-2.03125 l 0.062,-0.65625 c 0.9832,-6.00226 0.7043,-8.93435 -0.8125,-8.8125 l 0.062,-0.5625 c -1.6088,0.22215 -3.7575,0.3452 -6.4687,0.375 l 0,-3.4375 c 3.261,-0.0569 4.9104,-0.22909 4.9374,-0.5 5.0056,-0.2654 7.5613,-0.86445 7.6563,-1.8125 l 0.375,-3.90625 c 0.9234,-9.23637 0.646,-13.91346 -0.8437,-14.0625 -8.6649,1.29478 -13.9723,2.16188 -15.9063,2.625 -4.7525,0.51612 -8.0636,1.01373 -10.0625,1.46875 0.2708,-0.85409 0.5424,-1.74665 0.8125,-2.59375 l 0.031,-0.3125 c 0.081,-0.81254 -3.3939,-1.74777 -10.4063,-2.75 -6.7987,-0.67979 -10.2519,-0.23137 -10.4063,1.3125 -4.9051,19.23393 -7.6498,28.8069 -8.2187,28.75 0.2113,-2.1127 0.4396,-10.92811 0.6563,-26.5 0.057,-0.56875 0.262,-1.45752 0.625,-2.625 -0.3792,-0.0379 -0.587,-0.27716 -0.625,-0.71875 -5.4119,-0.32227 -9.2752,-0.36205 -11.5938,-0.15625 0.022,-0.21666 -0.1,-0.3506 -0.3438,-0.375 l -0.3124,-0.0312 c -0.5554,1.72274 -1.1515,4.21846 -1.75,7.46875 -1.0249,14.04506 -1.7171,24.84342 -2.1563,33.125 -0.034,-16.26999 -0.3269,-24.81703 -0.9063,-24.875 -5.1755,-1.03063 -18.2992,0.62826 -39.4062,4.96875 l 0,-9 c 15.8229,-1.35004 23.8688,-3.15608 24.0938,-5.40625 l 0.1562,-1.75 c 2.6346,-16.08448 1.9395,-23.95155 -2.125,-23.625 l 0.1562,-1.53125 c -4.3115,0.59528 -10.1093,0.9202 -17.375,1 l 0.031,-9.21875 c 8.7387,-0.15238 13.1458,-0.58654 13.2187,-1.3125 13.4135,-0.7112 20.2459,-2.33445 20.5,-4.875 l 1.0626,-10.46875 c 2.4751,-24.75092 1.7108,-37.31936 -2.2813,-37.71875 z m -160.12499,87.15625 c -14.4376,0.0563 -32.4837,3.11782 -54.125,9.1875 -8.163,2.28967 -11.8974,4.68773 -11.1875,7.21875 1.2486,1.28812 2.2417,1.85155 2.9375,1.65625 -1.392,0.39057 6.9544,36.01533 25.0625,106.90625 1.6233,3.84495 3.0161,7.85485 4.1875,12.03125 0.7195,4.50792 1.3922,7.90947 2.0313,10.1875 2.3243,0.98624 4.0798,1.31942 5.2187,1 6.798,-1.90665 19.5783,-5.77102 37.6563,-11.34375 0.2794,0.43214 0.5643,0.65625 0.8437,0.65625 l 1,0 c 0.5881,0 4.2328,-0.23308 10.9687,-0.6875 l 1.375,0 c 0.9089,-0.5346 1.3749,-0.96953 1.375,-1.34375 l 0,-10.625 c 0,-0.93555 0.099,-1.86789 0.3126,-2.75 -10e-5,-0.80189 2.8422,-1.46989 8.56239,-2.03125 l 1.75,9.21875 c 0.6683,5.72025 2.0356,8.59375 4.0938,8.59375 l 1.3438,0 c 8.6872,-0.6148 13.0311,-1.21539 13.0312,-1.75 -0.072,-0.3515 -0.1468,-0.65169 -0.2188,-1 8.6342,-0.72343 12.9688,-1.50767 12.9688,-2.375 l 0,-11.8125 0.6875,0 c 1.791,4.19663 5.1487,8.78724 10.0937,13.8125 l 1.0626,0 c 5.5864,-3.58183 9.1775,-6.47341 10.7812,-8.71875 -0.695,-1.22957 -1.0625,-2.02749 -1.0625,-2.375 -6.2815,-9.30206 -9.4063,-14.35884 -9.4063,-15.1875 l 0.3126,0 c 4.5927,-3.58603 7.3855,-7.26419 8.375,-11.03125 1.8233,-0.16985 3.8976,-0.36077 6.75,-0.65625 l 0.3124,0 0,6.8125 c 10e-5,2.43246 0.1346,4.3691 0.375,5.8125 -0.2405,1.63056 -0.375,3.69711 -0.375,6.15625 l 0,13.9375 c 10e-5,2.05822 0.5693,3.09375 1.7188,3.09375 4.0095,0 8.5463,-0.56935 13.625,-1.71875 1.1227,0 1.6873,-1.36727 1.6875,-4.09375 -0.2135,-13.8729 -0.3125,-22.40831 -0.3125,-25.5625 0,-1.14936 0.099,-2.85291 0.3125,-5.125 -2e-4,-0.90879 2.0666,-1.34371 6.1563,-1.34375 2.2719,4e-5 3.4062,-1.03097 3.4062,-3.0625 l 0,-2.40625 c 0,-1.1364 0.1204,-3.17368 0.3438,-5.71875 6.4268,9.20003 9.875,14.1968 9.875,14.375 1.4167,3e-5 2.125,9.78183 2.125,29.375 l 0,0.90625 c 0,1.01575 3.9537,1.5 11.8124,1.5 l 2.125,0 c 0.6683,0 1.3765,-0.29145 2.125,-0.90625 -2e-4,-8.84765 0.1929,-18.33802 0.5938,-28.46875 3.5551,-3.68873 7.7062,-9.44928 12.4375,-17.28125 -10e-5,-2.21854 -4.0525,-5.14589 -12.125,-8.78125 l -0.9063,0 c -2.0583,3.68881 -4.5014,7.32446 -7.2812,10.90625 l -0.5938,0 c -1.1495,-2.32548 -4.6909,-6.57076 -10.625,-12.71875 l -0.5937,0 c -3.1056,1.02215 -5.8741,2.68683 -8.3437,4.9375 0.03,-0.27996 0.031,-0.42983 0.062,-0.71875 l 0,-0.34375 c -10e-5,-0.50782 -0.5692,-0.83955 -1.7187,-1 l -4.0937,0 c -20.2614,1.09599 -32.0696,2.56192 -35.4376,4.40625 0.081,0.34204 0.1408,1.3213 0.2188,2.59375 -3.4751,-2.57999 -7.8447,-3.87497 -13.125,-3.875 -4.4639,6e-5 -9.9824,0.23313 -16.5312,0.6875 -0.7753,5e-5 -1.3401,2.02631 -1.6876,6.0625 0,0.24062 0.099,0.57236 0.3126,1 l -0.6563,19.25 c 0.2405,2.96707 0.3437,5.42824 0.3437,7.40625 0,0.43556 -0.047,2.46851 -0.094,4.09375 -4.602,-19.56761 -8.6999,-31.84702 -12.25,-36.65625 -12.32259,1.06926 -18.46869,2.00161 -18.46869,2.75 -5.1647,12.86996 -8.3279,24.85109 -9.4688,35.96875 -2.2944,-7.37209 -4.7123,-14.27677 -7.2812,-20.6875 -0.3823,-3.30559 -1.1319,-6.95086 -2.25,-10.9375 l 19.3124,-10.34375 c 20.28069,-14.08368 27.86119,-30.24424 22.74999,-48.46875 -2.3962,-8.54248 -6.4291,-15.12727 -12.09369,-19.75 -7.2339,-5.95709 -18.0624,-8.90006 -32.5,-8.84375 z m 253.06249,5.9375 0.6562,0.0625 c 0.7041,0.0705 1.0533,0.22085 1.0313,0.4375 3.5646,1.01307 5.2302,2.66646 5,4.96875 l -0.062,0.375 c -0.2871,2.87117 -3.0085,4.8843 -8.1875,6.0625 0.7802,-5.33863 1.3024,-9.30594 1.5625,-11.90625 z m -250.93749,26.21875 c 6.7148,-0.33468 11.4842,2.21528 14.2813,7.625 1.1181,3.98665 -2.2637,7.66607 -10.125,11.03125 l -14.5,4.0625 -1.5,-5.3125 c -0.515,-1.83491 -1.4315,-4.07641 -2.7188,-6.71875 0.328,-0.77448 0.097,-2.62024 -0.7188,-5.53125 l -0.4374,-1.5 8.375,-2.34375 c 2.6735,-0.74983 5.1054,-1.20094 7.3437,-1.3125 z m 269.78129,40.21875 c -5.2662,-0.0919 -14.7821,0.53354 -28.5313,1.90625 0.079,0.43503 -0.096,0.70245 -0.5313,0.78125 -2.3308,14.0286 -2.637,31.36562 -0.875,52.03125 l -0.625,0.125 c -1.7271,-4.56378 -2.8782,-6.7889 -3.4374,-6.6875 -7.3234,-26.90802 -11.4431,-40.29401 -12.375,-40.125 -23.4098,-0.62768 -37.0542,-0.5741 -40.9063,0.125 l -7.0937,1.28125 c -2.5472,0.46254 -3.999,1.68842 -4.4063,3.6875 l 0.25,1.5 c 4.9318,56.86339 9.6363,97.64775 14.125,122.375 l 0.6563,3.53125 c 0.3833,2.1124 13.4068,1.44357 39.0937,-2 1.6455,-1.5188 2.2087,-3.79942 1.6563,-6.84375 l -0.2813,-1.46875 c -0.5075,-2.79579 -2.2593,-8.55153 -5.25,-17.25 l -1.9063,-10.625 0.6563,-0.125 c 6.2718,9.45056 12.2778,17.11339 18.0313,23 0.9472,5.21885 11.3372,6.03521 31.1562,2.4375 l 16.2812,-2.96875 c 4.6542,-1.2299 6.7634,-3.07729 6.3126,-5.5625 -1.2824,-4.92337 -2.1447,-8.51441 -2.6563,-10.8125 4.635,-0.2313 9.7777,-0.72246 15.4063,-1.4375 l 3.4374,0.0625 c 1.9963,-0.75998 3.0288,-3.05908 3.0938,-6.90625 l 0.062,-3.40625 c 4.8267,11.89203 15.6365,17.9991 32.4687,18.28125 5.1165,0.0858 13.0103,-1.19754 23.6876,-3.875 -0.3997,2.53235 -0.5838,3.96396 -0.5938,4.28125 -0.018,1.07087 0.3171,1.613 1.0312,1.625 l 17.7188,0.28125 c 2.4986,0.0419 3.7692,-0.28611 3.7812,-1 1.7992,-0.84264 3.2748,-13.72956 4.4063,-38.625 l -0.5,-2.6875 c 0.041,-2.45896 -9.738,-5.82907 -29.3437,-10.125 -1.2295,-0.0206 -2.1492,0.15307 -2.75,0.5 -0.7142,-0.0119 -2.7836,5.66265 -6.1876,17.03125 -0.029,1.74514 1.7504,2.87892 5.3126,3.375 l -0.031,1.0625 c -4.5515,1.70899 -7.9581,2.5379 -10.2187,2.5 -0.9124,-0.0153 -3.0471,-0.41706 -6.4063,-1.1875 -7.8481,-2.78959 -11.6847,-8.74441 -11.5313,-17.90625 l 0,-0.5625 c 3.3929,-10.69435 10.2963,-15.92412 20.6876,-15.75 l 1.5937,0 c 10.7243,1.60805 16.0865,3.13475 16.0625,4.5625 l 1.5938,0.0312 c 1.6261,0.0273 4.9595,-6.17234 9.9687,-18.625 0.045,-2.6969 -2.2299,-4.89816 -6.8437,-6.5625 l -1.0938,0.53125 c -6.5201,-1.53742 -13.8382,-2.39488 -21.9688,-2.53125 -7.3771,-0.12357 -13.3225,1.21892 -17.8124,4 -7.9177,5.69702 -13.9859,11.86175 -18.2813,18.46875 1.2239,-7.57909 2.6724,-15.89988 4.375,-25.1875 0.044,-2.65724 -5.7314,-4.08703 -17.3125,-4.28125 l -3.0312,-0.0625 c -5.2748,-0.0883 -7.9895,4.85755 -8.1563,14.8125 l -7.6563,39.5 c -3.6283,-23.82573 -6.7489,-49.43391 -9.3124,-76.90625 l -0.125,-0.65625 c -0.1058,-0.58241 -1.7154,-0.88236 -4.875,-0.9375 z m -204.0313,18.9375 0.625,0 c 0.695,5e-5 1.0625,0.0987 1.0625,0.3125 3.5818,0.64156 5.375,2.10297 5.375,4.375 l 0,0.34375 c 0,2.83342 -2.4924,5.09277 -7.4375,6.75 0.2406,-5.29252 0.375,-9.21512 0.375,-11.78125 z m 446.8437,4 c -34.138,1.27322 -54.0597,3.42788 -59.7812,6.4375 0.2275,1.03833 0.4048,4.90852 0.5312,11 -1.0899,-0.0403 -2.1914,-0.0734 -3.4062,-0.0937 l -2.2812,-0.0313 c -1.5867,-0.0265 -4.176,0.0635 -7.75,0.28125 -1.3089,-0.0219 -2.7015,10.90745 -4.2188,32.78125 -2.7265,-0.64076 -4.685,-0.98 -5.875,-1 0.01,-0.31725 0.1499,-0.75345 0.4375,-1.34375 0.4425,-7.49065 0.7083,-13.41842 0.7813,-17.78125 l 0,-1.375 c 0.054,-3.2125 -0.01,-8.08386 -0.2188,-14.59375 0.029,-1.74502 -10.1132,-3.44379 -30.4375,-5.09375 l -0.4687,0 c 0.01,-0.31721 -0.1386,-0.77534 -0.4063,-1.375 -2.1417,-0.0358 -3.4309,12.2453 -3.8437,36.875 -0.3019,32.20913 0.039,48.32715 1.0312,48.34375 1.0708,0.018 6.5397,-0.77795 16.4062,-2.4375 1.5863,0.0266 4.6401,0.23192 9.1563,0.625 l 0.9063,-0.46875 c 1.2294,0.0206 2.2759,-8.46394 3.1562,-25.46875 l 0.031,-0.5 c 5.2298,0.405 8.2611,0.64235 9.0938,0.65625 l 0.4688,0 -2.25,24.59375 c 0.411,1.51445 1.4508,2.2839 3.1562,2.3125 l 10.0625,0.15625 c 2.1022,0.0352 5.4441,0.2625 10,0.65625 0.01,-0.51561 0.3092,-0.8285 0.9063,-0.9375 1.5259,-15.84398 3.9961,-34.51648 7.4062,-55.9375 2.8171,-0.22157 5.5182,-0.4307 9.5625,-0.78125 l 0.5313,0 -0.1876,11.46875 c -0.069,4.09468 0.073,7.37596 0.4376,9.8125 -0.4509,2.73803 -0.7123,6.17289 -0.7813,10.3125 l -0.4063,23.46875 c -0.058,3.4647 0.8776,5.2176 2.8126,5.25 6.7493,0.11313 14.4184,-0.70846 23,-2.5 1.8898,0.0317 2.8917,-2.25414 2.9687,-6.84375 0.032,-23.359 0.099,-37.69041 0.1875,-43 0.032,-1.93479 0.2321,-4.80632 0.6562,-8.625 0.026,-1.52982 3.4907,-2.24033 10.375,-2.125 3.8246,0.0642 5.7546,-1.61149 5.8126,-5.03125 l 0.094,-4.0625 c 0.056,-3.37464 0.7434,-10.42168 2.0937,-21.15625 l 0,-0.625 c 0.014,-0.85485 -0.9133,-1.41623 -2.8437,-1.71875 l -6.9063,-0.125 z m -483.62499,0.0937 0.3438,0 c 1.1493,5.10549 2.055,8.51257 2.75,10.25 0,0.45444 -1.9366,1.15371 -5.8125,2.0625 l -0.375,0 c 0.8286,-4.70446 1.8643,-8.81082 3.0937,-12.3125 z"
       id="path5439" />
  </g>
</svg>
