<?xml version="1.0" encoding="UTF-8" standalone="no"?>
<!-- Created with Inkscape (http://www.inkscape.org/) -->

<svg
   xmlns:dc="http://purl.org/dc/elements/1.1/"
   xmlns:cc="http://creativecommons.org/ns#"
   xmlns:rdf="http://www.w3.org/1999/02/22-rdf-syntax-ns#"
   xmlns:svg="http://www.w3.org/2000/svg"
   xmlns="http://www.w3.org/2000/svg"
   xmlns:sodipodi="http://sodipodi.sourceforge.net/DTD/sodipodi-0.dtd"
   xmlns:inkscape="http://www.inkscape.org/namespaces/inkscape"
   width="529.6875"
   height="259.18127"
   id="svg6091"
   version="1.1"
   inkscape:version="0.48.1 r9760"
   sodipodi:docname="New document 13">
  <defs
     id="defs6093" />
  <sodipodi:namedview
     id="base"
     pagecolor="#ffffff"
     bordercolor="#666666"
     borderopacity="1.0"
     inkscape:pageopacity="0.0"
     inkscape:pageshadow="2"
     inkscape:zoom="0.35"
     inkscape:cx="-11.58482"
     inkscape:cy="49.590637"
     inkscape:document-units="px"
     inkscape:current-layer="layer1"
     showgrid="false"
     fit-margin-top="0"
     fit-margin-left="0"
     fit-margin-right="0"
     fit-margin-bottom="0"
     inkscape:window-width="1440"
     inkscape:window-height="832"
     inkscape:window-x="0"
     inkscape:window-y="24"
     inkscape:window-maximized="1" />
  <metadata
     id="metadata6096">
    <rdf:RDF>
      <cc:Work
         rdf:about="">
        <dc:format>image/svg+xml</dc:format>
        <dc:type
           rdf:resource="http://purl.org/dc/dcmitype/StillImage" />
        <dc:title></dc:title>
      </cc:Work>
    </rdf:RDF>
  </metadata>
  <g
     inkscape:label="Layer 1"
     inkscape:groupmode="layer"
     id="layer1"
     transform="translate(-386.58482,-322.77154)">
    <path
       inkscape:connector-curvature="0"
       style="font-size:70.86363983px;font-style:normal;font-variant:normal;font-weight:900;font-stretch:normal;text-indent:0;text-align:center;text-decoration:none;line-height:125%;letter-spacing:0px;word-spacing:0px;text-transform:none;direction:ltr;block-progression:tb;writing-mode:lr-tb;text-anchor:middle;color:#000000;fill:#000000;fill-opacity:1;fill-rule:nonzero;stroke:none;stroke-width:2;marker:none;visibility:visible;font-family:VAL;-inkscape-font-specification:VAL Heavy"
       d="m 808.02232,322.79657 c -5.016,0.25183 -9.9439,2.40823 -13.7812,6.4375 -8.1865,8.32289 -8.1865,22.09173 0,30.6875 l 18.6874,19.125 0,19.09375 c 0,12.00679 9.8172,21.6875 21.6876,21.6875 12.0068,0 21.8437,-9.68071 21.8437,-21.6875 l 0,-19.09375 18.6875,-19.125 c 8.1864,-8.59577 8.1864,-22.36461 0,-30.6875 -8.1864,-8.59577 -21.7084,-8.59577 -30.0312,0 l -10.5,10.90625 -10.7813,-10.90625 c -4.349,-4.5665 -10.1277,-6.72291 -15.8125,-6.4375 z m -226.25,0.1875 c -6.1505,-0.016 -12.259,2.60804 -16.4375,7.46875 l -51.8437,52.53125 c -8.323,8.45933 -8.323,21.83337 0,30.15625 8.4592,8.45934 22.2281,8.45934 30.6874,0 l 23.625,-23.0625 c 0.6821,-0.81865 1.7529,0.002 1.3438,1.09375 l -8.3125,12.84375 c 2.3195,9.14154 9.8118,15.9375 21,15.9375 10.9152,0 21.5625,-9.5359 21.5625,-21.40625 l 0,-53.90625 c 0,-8.18644 -4.2204,-15.27647 -10.9062,-18.6875 -3.3258,-1.99545 -7.0285,-2.95916 -10.7188,-2.96875 z m -132.7812,0.25 c -12.689,0 -22.625,9.95052 -22.625,22.09375 l 0,53.5 c 0,12.41611 9.9359,22.21875 22.625,22.21875 12.0068,0 21.9687,-10.21196 21.9687,-22.21875 l 0,-11.0625 c 0,-1.09153 0.9657,-1.37278 1.375,-0.28125 l 2.4687,13.375 c 21.8306,0.68221 39.8438,-17.05591 39.8438,-38.75 0,-21.55764 -17.0559,-38.875 -38.75,-38.875 l -26.9062,0 z m 180.5312,0 c -12.1431,0 -22.0938,9.55571 -22.0938,21.5625 l 0,53.46875 c 0,12.14323 9.9538,22.125 21.6876,22.125 11.8703,0 21.1616,-8.88272 21.8437,-20.34375 l 11.7187,13.90625 c 7.3678,9.96018 22.1292,8.46463 29.9063,0.6875 7.7771,-7.77712 8.8587,-19.23654 2.7187,-27.96875 -3.5475,4.09323 -7.7786,6.95339 -12.2812,9 -0.8186,0.40933 -1.4947,-0.93443 -0.8125,-1.34375 10.3694,-7.23137 16.625,-18.97255 16.625,-32.34375 0,-21.4212 -17.3288,-38.75 -38.75,-38.75 l -30.5625,0 z m 92.1875,0 c -12.1433,0 -21.5625,9.96196 -21.5625,21.96875 0,11.59747 9.4192,21.5625 21.5625,21.5625 l 0,31.78125 c 0,12.14323 9.8287,22.09375 21.5625,22.09375 12.0068,0 21.9688,-9.95052 21.9688,-22.09375 l -0.125,-31.78125 c 12.1433,0 21.5625,-9.96503 21.5624,-21.5625 0,-12.00679 -9.8253,-21.96875 -21.9687,-21.96875 l -43,0 z m -248.6875,33.84375 c 2.8652,0 5.3125,2.166 5.3125,5.03125 0,2.86526 -2.4473,5.3125 -5.3125,5.3125 -0.6822,0 -1.3803,-0.24693 -2.0625,-0.65625 l 0,-9.4375 c 0.6822,-0.27288 1.3803,-0.25 2.0625,-0.25 z m 180.375,0.53125 c 2.8652,0 4.9375,2.44724 4.9375,5.3125 0,2.86526 -2.0723,5.0625 -4.9375,5.0625 -1.0915,0 -1.7553,0.003 -2.4375,-0.40625 l 0,-9.28125 c 0.6822,-0.40933 1.346,-0.6875 2.4375,-0.6875 z m -32.0625,83.75 c -8.4352,0.33907 -16.6976,4.10414 -22.4375,10.78125 l -74.9688,75.96875 c -12.0349,12.23212 -12.0349,31.55893 0,43.59375 12.2324,12.23212 32.1742,12.23212 44.4063,0 l 34.125,-33.34375 c 0.9864,-1.18376 2.5608,0.0154 1.9687,1.59375 l -12.0312,18.53125 c 3.3539,13.21858 14.1971,23.09375 30.375,23.09375 15.7833,0 31.1875,-13.83559 31.1875,-31 l 0,-77.90625 c 0,-11.83753 -6.114,-22.09894 -15.7813,-27.03125 -5.2097,-3.12585 -11.0723,-4.51325 -16.8437,-4.28125 z m -203.7813,0.125 c -17.1644,0 -30.9687,13.62849 -30.9687,31.1875 l 0,77.125 c 0,16.96713 14.1989,31.78125 30.9687,31.78125 l 52.0626,0 c 20.9128,0 43.8124,-22.50307 43.8124,-43.21875 0,-17.95359 -3.7393,-21.49123 -10.25,-28.59375 -7.1026,7.6944 -16.7737,12.23042 -27.625,12.625 -1.3809,0 -1.3809,-1.98041 0,-2.375 17.5593,-4.14313 31.1563,-19.94474 31.1563,-38.6875 0,-22.49131 -18.349,-39.84375 -39.6563,-39.84375 l -49.5,0 z m 292.9376,0 c -57.0175,-0.59188 -65.919,63.7414 -27.25,84.0625 5.1298,2.5648 10.8508,4.73042 16.375,5.125 1.5783,0.59188 1.2033,2.5625 -0.375,2.5625 -9.2729,0 -19.5556,-2.5579 -27.25,-7.6875 -8.6809,6.31335 -12.4063,14.18997 -12.4063,24.84375 0,14.00775 14.6052,31.5625 31.375,31.5625 l 43.1875,0 c 62.5418,0 67.0833,-77.34018 14.4062,-89.375 -1.5785,-0.39458 -0.9844,-2.5625 0.5938,-2.5625 7.8915,0.59188 15.5831,2.56394 22.0938,6.3125 9.2726,-4.73502 14,-13.39706 14,-23.65625 0,-17.36171 -14.3784,-31.1875 -31.9376,-31.1875 l -42.8124,0 z m 131,0 c -57.0175,-0.59188 -65.8883,63.7414 -27.2188,84.0625 5.1293,2.5648 10.8508,4.73042 16.375,5.125 1.5784,0.59188 1.172,2.5625 -0.4062,2.5625 -9.2726,0 -19.5247,-2.5579 -27.2188,-7.6875 -8.6808,6.31335 -12.4375,14.18997 -12.4375,24.84375 0,14.00775 14.6054,31.5625 31.375,31.5625 l 43.2187,0 c 62.5418,0 67.0835,-77.34018 14.4063,-89.375 -1.5783,-0.39458 -1.0158,-2.5625 0.5625,-2.5625 7.892,0.59188 15.6143,2.56394 22.125,6.3125 9.2727,-4.73502 14,-13.39706 14,-23.65625 0,-17.36171 -14.4101,-31.1875 -31.9688,-31.1875 l -42.8124,0 z"
       id="path5471" />
  </g>
</svg>
