<?xml version="1.0" encoding="UTF-8" standalone="no"?>
<!-- Created with Inkscape (http://www.inkscape.org/) -->

<svg
   xmlns:dc="http://purl.org/dc/elements/1.1/"
   xmlns:cc="http://creativecommons.org/ns#"
   xmlns:rdf="http://www.w3.org/1999/02/22-rdf-syntax-ns#"
   xmlns:svg="http://www.w3.org/2000/svg"
   xmlns="http://www.w3.org/2000/svg"
   xmlns:sodipodi="http://sodipodi.sourceforge.net/DTD/sodipodi-0.dtd"
   xmlns:inkscape="http://www.inkscape.org/namespaces/inkscape"
   width="589.86377"
   height="301.10892"
   id="svg6046"
   version="1.1"
   inkscape:version="0.48.1 r9760"
   sodipodi:docname="partyeverynight.svg">
  <defs
     id="defs6048" />
  <sodipodi:namedview
     id="base"
     pagecolor="#ffffff"
     bordercolor="#666666"
     borderopacity="1.0"
     inkscape:pageopacity="0.0"
     inkscape:pageshadow="2"
     inkscape:zoom="0.7"
     inkscape:cx="459.16388"
     inkscape:cy="-45.993568"
     inkscape:document-units="px"
     inkscape:current-layer="layer1"
     showgrid="false"
     fit-margin-top="0"
     fit-margin-left="0"
     fit-margin-right="0"
     fit-margin-bottom="0"
     inkscape:window-width="1440"
     inkscape:window-height="832"
     inkscape:window-x="0"
     inkscape:window-y="24"
     inkscape:window-maximized="1" />
  <metadata
     id="metadata6051">
    <rdf:RDF>
      <cc:Work
         rdf:about="">
        <dc:format>image/svg+xml</dc:format>
        <dc:type
           rdf:resource="http://purl.org/dc/dcmitype/StillImage" />
        <dc:title></dc:title>
      </cc:Work>
    </rdf:RDF>
  </metadata>
  <g
     inkscape:label="Layer 1"
     inkscape:groupmode="layer"
     id="layer1"
     transform="translate(-402.19438,-178.97467)">
    <path
       style="fill:#000000"
       d="m 657.15677,479.9226 c -0.4574,-0.0691 -1.0136,-0.42018 -1.2361,-0.7802 -0.6376,-1.03177 -3.2849,-17.26111 -5.2462,-32.16152 -2.4654,-18.73031 -5.4253,-46.28622 -8.1467,-75.84355 -1.8238,-19.80847 -1.8381,-20.04209 -1.2877,-21.00462 0.8124,-1.42068 2.6716,-2.18824 7.5973,-3.13649 l 4.3505,-0.83752 19.9038,0 19.9037,0 0.5501,0.67934 c 1.0136,1.25191 4.6745,12.99177 9.7409,31.23758 1.5019,5.40883 2.5188,8.53265 2.9792,9.15201 0.3846,0.51717 1.1486,2.05431 1.6979,3.41586 0.5493,1.36155 1.1229,2.47554 1.2747,2.47554 0.1581,0 0.1975,-0.80098 0.092,-1.87541 -0.3013,-3.07468 -0.7438,-11.3711 -0.9481,-17.77891 -0.3845,-12.05211 1.1005,-31.57168 2.5017,-32.88594 0.4054,-0.38022 2.5493,-0.64254 10.4116,-1.2739 5.4457,-0.43729 11.6564,-0.87414 13.8016,-0.97078 3.9298,-0.17703 8.6767,0.17866 9.1863,0.68834 0.1514,0.15138 0.8058,5.54319 1.4543,11.9818 1.4019,13.91959 2.9132,27.12716 4.5019,39.34296 1.702,13.08678 3.4212,24.97672 3.6115,24.97672 0.3278,0 7.2729,-36.70182 7.678,-40.57502 0.7467,-7.139 2.14,-10.16496 5.3716,-11.66596 1.4229,-0.66092 3.9209,-0.71885 11.1681,-0.25899 5.0029,0.31746 8.7076,1.03968 10.4061,2.02869 1.8386,1.07063 1.8449,0.86886 -0.4311,13.86762 -1.141,6.51652 -2.0782,12.0287 -2.0827,12.24929 -0.01,0.22058 0.8202,-0.72462 1.8327,-2.10047 3.9554,-5.37471 13.6056,-14.10617 18.0903,-16.36808 4.6078,-2.32396 11.1228,-3.19344 20.4723,-2.73218 4.7159,0.23265 11.6696,1.08278 15.3919,1.88173 1.2749,0.27365 2.1208,0.31919 2.4689,0.1329 0.8318,-0.44527 4.7537,1.54817 6.0688,3.08473 1.712,2.00036 1.6983,2.70755 -0.1375,7.09949 -4.4055,10.53967 -7.1654,15.05223 -9.2059,15.05223 -0.5057,0 -0.9893,-0.18197 -1.0746,-0.40438 -0.4087,-1.06515 -4.519,-2.28683 -12.2667,-3.64601 -3.6492,-0.64016 -4.4778,-0.68974 -7.3538,-0.44004 -3.5326,0.30671 -4.6419,0.53136 -6.6916,1.35515 -4.3629,1.75355 -7.6779,5.11597 -10.1546,10.2999 -1.1851,2.48047 -1.3948,3.20489 -1.4872,5.13808 -0.202,4.22391 1.4655,9.34281 3.987,12.23891 1.2754,1.46492 3.8397,3.28434 5.9176,4.19863 1.2234,0.53837 3.4492,1.06963 7.0374,1.67983 1.3665,0.23236 4.2894,-0.27835 7.8263,-1.36743 3.6325,-1.11853 4.0058,-1.685 1.5002,-2.27658 -1.8052,-0.4262 -2.913,-1.14385 -3.448,-2.2335 -0.3312,-0.67459 -0.1108,-1.55633 1.9804,-7.92476 3.058,-9.31226 3.345,-9.91222 4.9496,-10.34786 1.401,-0.38037 1.2962,-0.4 12.4317,2.32766 6.8115,1.66849 13.3845,3.74636 15.9117,5.03005 2.4419,1.24039 2.9686,1.92836 3.2112,4.19468 0.3653,3.41173 -1.0476,24.9512 -2.1377,32.58876 -0.8476,5.93872 -1.6131,7.66023 -3.6057,8.10969 -1.7226,0.38856 -20.1291,-0.0274 -20.7323,-0.46848 -0.4444,-0.32499 -0.4663,-0.6529 -0.192,-2.87874 0.1703,-1.38159 0.297,-2.53523 0.2817,-2.56364 -0.015,-0.0284 -1.6703,0.33818 -3.6777,0.81465 -9.216,2.18753 -16.5182,3.13966 -21.8498,2.84898 -14.6855,-0.80063 -24.1166,-5.80644 -29.2852,-15.54386 l -1.1525,-2.17121 -0.01,2.42108 c -0.01,2.95615 -0.6778,5.34661 -1.8113,6.48023 -0.7393,0.7394 -1.0793,0.85083 -2.5962,0.85083 -1.4934,0 -8.3706,0.63649 -15.4328,1.42832 l -1.9805,0.22205 1.3503,5.57712 c 1.5041,6.21274 1.4994,6.74649 -0.072,8.22852 -1.6059,1.51463 -3.9784,2.19613 -14.1195,4.05572 -16.986,3.11476 -24.4928,3.93282 -30.3255,3.30476 -4.7682,-0.51344 -6.8484,-1.48216 -7.9721,-3.71255 -0.3464,-0.68751 -1.3969,-2.06019 -2.3346,-3.0504 -3.603,-3.80477 -9.4438,-11.25033 -13.6528,-17.40383 -1.1288,-1.65037 -2.1017,-3.05692 -2.1619,-3.12569 -1.1222,-1.28157 0.8427,8.72039 3.0898,15.72846 2.9686,9.25811 3.7884,12.54049 3.8222,15.30337 0.026,2.09441 -0.073,2.57522 -0.776,3.77048 l -0.8053,1.36996 -9.2458,1.12195 c -5.0852,0.61707 -11.4061,1.31316 -14.0464,1.54691 -4.439,0.39294 -12.6876,0.52089 -14.6332,0.22694 z m 288.3608,-23.1572 c -1.5175,-1.21249 -1.5574,-1.71604 -1.329,-16.78592 0.1159,-7.65176 0.3511,-15.41808 0.5226,-17.25848 0.1715,-1.84041 0.2663,-4.42643 0.2107,-5.74672 -0.056,-1.32029 -0.081,-6.36762 -0.056,-11.21629 l 0.045,-8.81576 -2.5952,0.19935 c -7.688,0.59054 -7.2464,0.519 -7.3895,1.19717 -1.0133,4.80434 -5.2314,35.89931 -6.5842,48.53807 -0.8871,8.2876 -0.5993,7.88164 -5.3036,7.48193 -1.8812,-0.15984 -6.5884,-0.37772 -10.4606,-0.48418 -7.576,-0.20829 -8.4781,-0.38962 -9.0192,-1.81277 -0.1936,-0.50947 0.061,-4.50547 0.8128,-12.76496 0.8829,-9.69619 1.0197,-12.0697 0.7071,-12.26296 -0.2133,-0.1318 -2.0922,-0.33132 -4.1753,-0.44336 -2.0832,-0.11205 -3.9996,-0.26374 -4.2588,-0.33709 -0.4087,-0.1157 -0.5197,0.67182 -0.8378,5.94608 -0.7638,12.66031 -1.6323,18.87124 -2.7699,19.80747 -0.7063,0.5812 -2.5348,0.644 -7.3224,0.25146 -2.3156,-0.18985 -3.5979,-0.0779 -9.001,0.78584 -3.4654,0.55399 -7.2591,1.08854 -8.4304,1.18791 l -2.1297,0.18067 -0.191,-0.95518 c -1.2095,-6.04805 -0.922,-58.02652 0.4035,-72.94142 0.5924,-6.66628 1.585,-10.99493 2.5963,-11.32236 0.1922,-0.0623 0.4361,0.15962 0.5419,0.49304 0.2304,0.72602 0.4042,0.758 7.5094,1.38246 11.0178,0.96831 20.4595,2.46137 22.6152,3.57623 0.7677,0.39706 0.866,0.63127 1.0405,2.47941 0.4768,5.04886 -0.064,29.914 -0.7056,32.42293 -0.2803,1.09663 -0.5391,0.96317 3.0914,1.59393 1.1213,0.19481 2.0911,0.30173 2.1553,0.23759 0.064,-0.0641 0.3343,-2.94995 0.6005,-6.41292 0.2662,-3.46297 0.821,-9.45442 1.2329,-13.31432 0.9238,-8.65633 1.6227,-12.22955 2.4976,-12.77036 0.1712,-0.10579 3.2837,-0.20906 6.9167,-0.22949 l 6.6056,-0.0371 -0.1404,-1.97514 c -0.077,-1.08632 -0.2107,-3.5454 -0.2967,-5.46461 l -0.1563,-3.48947 1.7244,-0.62628 c 6.6992,-2.43298 21.2009,-4.07071 47.05,-5.3135 12.5181,-0.60186 18.8451,-0.52354 20.0209,0.24785 1.0112,0.66336 1.0266,1.25462 0.2089,8.01985 -0.7045,5.82827 -1.498,15.52948 -1.4981,18.31546 0,1.44285 -0.1786,2.31147 -0.6751,3.28334 -1.0539,2.06304 -1.9114,2.35145 -7.9605,2.67738 -6.5144,0.35101 -7.3028,0.64781 -7.6489,2.87979 -0.128,0.82518 -0.3653,13.16316 -0.5274,27.41772 -0.3181,27.98298 -0.3569,28.58484 -1.9063,29.60018 -1.526,1.00001 -13.1151,2.69519 -20.7363,3.03318 -3.9887,0.1769 -4.241,0.15393 -5.0038,-0.4556 z M 438.14541,413.94561 c -0.78012,-0.23998 -1.54536,-0.67356 -1.70053,-0.96352 -0.15516,-0.28996 -0.57694,-2.0759 -0.93727,-3.96876 -1.06582,-5.59878 -2.00324,-9.0729 -3.62464,-13.433 -1.6601,-4.46417 -9.10056,-33.29579 -17.36154,-67.27555 -5.8972,-24.25685 -8.41306,-35.45915 -9.33354,-41.55914 -0.35714,-2.36674 -0.38065,-2.41248 -1.67026,-3.24923 -1.57825,-1.02403 -1.73328,-2.05057 -0.52631,-3.48512 2.05501,-2.44251 8.12225,-4.57174 23.52103,-8.25444 39.17652,-9.36928 64.21892,-7.42538 76.73572,5.95658 5.9553,6.36697 10.0355,16.47582 10.4886,25.98593 0.3805,7.9866 -1.7587,15.16804 -6.7473,22.65136 -2.5294,3.79426 -9.6914,11.06483 -14.2146,14.42999 -2.213,1.64642 -5.9998,3.87599 -12.3169,7.25181 -5.0168,2.68095 -9.3603,5.04918 -9.6523,5.26271 -0.5046,0.36901 -0.494,0.53635 0.2135,3.37734 0.4094,1.64401 0.9023,4.00183 1.0952,5.2396 0.1929,1.23777 1.0957,4.25024 2.0062,6.69438 0.9105,2.44413 2.5029,6.96763 3.5387,10.05221 1.6668,4.96358 1.9032,5.48759 2.0569,4.55809 0.096,-0.57762 0.4653,-2.80561 0.8219,-4.95109 0.7602,-4.5748 2.5113,-11.83184 3.9873,-16.52518 1.6621,-5.28474 4.4112,-12.54948 4.8925,-12.92874 0.7786,-0.61351 7.9609,-1.67923 16.047,-2.38108 l 2.2938,-0.1991 1.2316,2.21402 c 2.6261,4.72096 5.3159,12.62671 8.8694,26.06926 l 1.9434,7.35162 -0.065,-7.95175 c -0.088,-10.72351 0.2965,-25.18833 0.713,-26.8426 0.1863,-0.74 0.5012,-1.48034 0.6999,-1.64519 0.5112,-0.42432 8.341,-0.90856 14.7793,-0.91404 7.0768,-0.006 10.4834,0.69138 13.8936,2.84435 l 1.2027,0.75933 0,-1.19347 c 0,-0.87508 0.1557,-1.27679 0.5835,-1.50579 0.806,-0.43139 5.1044,-1.4275 7.8174,-1.8116 6.1987,-0.87758 24.5347,-2.38432 29.1335,-2.39401 2.47,-0.005 3.8703,0.44365 3.8703,1.2406 0,0.50035 0.2766,0.38853 1.8937,-0.76554 2.1356,-1.52408 5.4493,-3.17924 6.3658,-3.17959 0.9529,-3e-4 7.4664,7.02073 10.0908,10.87715 0.6458,0.94896 1.2767,1.72538 1.4019,1.72538 0.2811,0 4.2702,-5.67312 6.0661,-8.6269 1.0478,-1.72334 1.4716,-2.17547 2.0388,-2.17547 0.9791,0 7.2519,3.28772 9.6685,5.06757 1.1927,0.87841 2.1724,1.87531 2.4799,2.52329 l 0.5083,1.07119 -2.1427,3.39567 c -2.8282,4.48222 -6.4299,9.50261 -8.6636,12.07599 -1.5677,1.8062 -1.8047,2.23911 -1.8069,3.30072 -10e-4,0.67203 -0.1385,7.02815 -0.3047,14.12471 -0.3,12.80945 -0.307,12.90691 -0.9726,13.4663 -0.6224,0.52315 -1.0999,0.55162 -6.6711,0.39777 -3.7523,-0.10361 -6.5066,-0.31952 -7.3508,-0.57622 l -1.3502,-0.41052 -0.2001,-9.58936 c -0.2032,-9.73597 -0.6353,-16.89429 -1.1615,-19.24263 -0.1598,-0.71308 -0.7289,-1.88336 -1.2647,-2.60063 -0.5357,-0.71727 -2.7968,-3.94574 -5.0245,-7.17437 -2.4593,-3.56434 -4.137,-5.73412 -4.2709,-5.5237 -0.1212,0.19061 -0.2233,1.83189 -0.2267,3.64728 -0.01,3.83209 -0.3514,5.37249 -1.3455,6.02396 -0.4522,0.2963 -1.9002,0.55844 -3.9606,0.71702 -1.7863,0.13747 -3.4701,0.3402 -3.7418,0.45049 -0.3077,0.12488 -0.5748,0.73063 -0.708,1.60566 -0.1176,0.77281 -0.1653,8.22412 -0.106,16.55845 0.1211,17.012 0.135,16.87813 -1.8029,17.38448 -3.7034,0.96766 -12.6769,2.03923 -13.8797,1.65744 -1.4043,-0.44575 -1.4507,-1.06793 -1.4091,-18.8705 0.022,-9.176 -0.015,-16.72702 -0.082,-16.78004 -0.066,-0.053 -1.5897,0.0502 -3.3851,0.22934 l -3.2643,0.32575 -0.6834,1.55094 c -1.1157,2.53226 -2.9497,4.97256 -5.5593,7.39721 l -2.4553,2.28125 0.8277,1.58689 c 0.4552,0.87278 2.4964,4.12542 4.536,7.22808 2.0397,3.10266 3.9993,6.31727 4.3547,7.14359 l 0.6463,1.50239 -1.1694,1.21329 c -2.4139,2.50446 -9.2367,7.45458 -10.2748,7.45458 -1.1737,0 -7.217,-7.41791 -9.5934,-11.77559 -0.6069,-1.11289 -1.2019,-2.02434 -1.3223,-2.02544 -0.1203,-10e-4 -0.2553,2.7265 -0.3,6.06135 l -0.081,6.06335 -1.3501,0.39856 c -1.3656,0.40312 -5.664,1.05622 -9.3761,1.42461 -1.7116,0.16987 -2.0252,0.28843 -2.0252,0.76567 0,0.76992 -1.2361,1.0608 -6.9008,1.62389 -5.8778,0.58429 -8.0866,0.59095 -8.8919,0.0269 -1.1088,-0.77678 -1.8989,-3.32085 -3.1481,-10.13786 -0.6731,-3.67319 -1.3199,-6.7819 -1.4374,-6.90825 -0.2643,-0.28435 -4.4327,0.2546 -6.5174,0.84265 -0.8748,0.24679 -1.6409,0.66294 -1.7696,0.96135 -0.1248,0.2894 -0.2905,3.52557 -0.3681,7.19148 -0.1355,6.39483 -0.1672,6.68203 -0.7807,7.07789 -0.9097,0.58698 -13.8163,1.32858 -14.4188,0.8285 -0.3349,-0.27804 -2.7129,0.3492 -11.2679,2.97221 -17.38719,5.33098 -27.02494,8.11329 -28.02625,8.09085 -0.51294,-0.0115 -1.57089,-0.21724 -2.35102,-0.45721 z m 60.59946,-41.09521 c 1.3781,-0.42039 2.579,-0.95571 2.6688,-1.1896 0.09,-0.2339 -0.1087,-1.274 -0.4411,-2.31134 -0.3323,-1.03734 -0.9116,-3.20296 -1.2873,-4.81248 -0.3758,-1.60953 -0.7763,-2.82479 -0.89,-2.7006 -0.4289,0.46829 -2.9751,10.34404 -2.9751,11.53926 0,0.34653 0.1627,0.3173 2.9247,-0.52524 z m 38.5176,-4.75661 c 3.6094,-1.61138 5.0629,-3.3459 5.0629,-6.04151 0,-1.23328 -0.1376,-1.54935 -1.0487,-2.40876 -1.3435,-1.26722 -5.1537,-2.57107 -5.5738,-1.90736 -0.148,0.23385 -0.2726,2.3156 -0.2769,4.62611 0,2.3105 -0.092,4.70728 -0.1939,5.32617 -0.2209,1.3364 -0.1063,1.35928 2.0304,0.40535 z m -69.9972,-49.52478 c 8.3001,-2.31313 11.3818,-3.73791 14.3141,-6.61783 3.0309,-2.9769 3.2457,-5.19785 0.8117,-8.39468 -1.5302,-2.00969 -3.5825,-3.50598 -6.0107,-4.38211 -1.7189,-0.6202 -2.5381,-0.7243 -5.613,-0.71328 -4.0098,0.0144 -7.3731,0.70589 -16.08401,3.3071 -0.43883,0.13105 -0.43229,0.35264 0.0727,2.46289 0.30519,1.27539 0.55594,2.89726 0.55723,3.60415 0.001,0.73825 0.30047,1.88762 0.70286,2.70059 0.85057,1.71853 1.75967,4.25691 2.60246,7.26663 0.86512,3.08945 0.82862,3.00687 1.26118,2.85383 0.21252,-0.0752 3.53598,-1.01446 7.38558,-2.08729 z m 85.7617,9.2184 c -2.1131,-0.31678 -2.4593,-3.74842 -2.4152,-23.93801 0.028,-12.7727 0.2063,-19.79327 0.8425,-33.1573 0.6282,-13.1973 0.7637,-18.44964 0.6114,-23.70521 -0.1075,-3.71332 -0.045,-16.60233 0.1381,-28.64226 0.281,-18.43378 0.4039,-21.99794 0.7783,-22.56941 0.57,-0.87 0.5654,-1.48938 -0.013,-1.71122 -0.5359,-0.20566 -1.0288,-1.36898 -0.8165,-1.92695 0.6088,-1.59971 9.2652,-3.42816 25.772,-5.44365 4.1505,-0.50678 8.8496,-1.1896 10.4424,-1.51737 8.3213,-1.71237 38.8422,-6.45087 39.8771,-6.19109 0.9948,0.24969 1.798,1.6722 2.4777,4.38796 0.4902,1.9583 0.5627,3.43875 0.5586,11.40251 0,5.0336 -0.1792,11.10994 -0.3925,13.50297 -1.0016,11.23658 -1.8572,18.95143 -2.1659,19.52823 -0.8807,1.64575 -6.0532,2.99387 -14.7622,3.8475 -3.1775,0.31145 -6.3174,0.71685 -6.9774,0.90089 -0.6601,0.18403 -3.0904,0.40782 -5.4006,0.49729 -2.3103,0.0895 -4.6393,0.22931 -5.1756,0.31075 l -0.9751,0.14808 -3e-4,4.41237 -3e-4,4.41238 5.926,-0.1898 c 5.7519,-0.18423 9.5749,-0.45512 10.6515,-0.75474 0.3942,-0.10972 0.5251,0.0323 0.5251,0.5701 0,0.51996 0.2672,0.83385 0.9751,1.14547 2.9708,1.30772 3.3822,7.69432 1.4091,21.8745 -0.4864,3.49493 -0.6552,4.11169 -1.2483,4.56086 -1.8645,1.41195 -8.651,2.83475 -18.0878,3.79216 l -5.1006,0.51748 -0.083,4.44423 c -0.077,4.13838 -0.046,4.43349 0.45,4.28823 0.2933,-0.0858 3.7736,-0.76589 7.7341,-1.5113 14.1407,-2.6615 25.223,-4.03043 29.1998,-3.60691 1.6793,0.17885 1.9332,0.29237 2.2139,0.98992 0.186,0.46246 0.394,4.94014 0.5034,10.84013 0.1711,9.22407 0.2056,9.71848 0.4186,6.00132 1.1197,-19.53686 1.9,-27.60761 3.0606,-31.65697 l 0.43,-1.50033 3.5393,0.0739 c 1.9465,0.0406 4.7887,0.15456 6.3158,0.25315 2.5731,0.16612 2.7893,0.22963 2.9491,0.86636 0.095,0.37791 0.028,1.2092 -0.1497,1.84732 -0.1822,0.65638 -0.3338,4.15717 -0.3491,8.06172 -0.015,3.79583 -0.1271,9.53459 -0.2495,12.7528 -0.1224,3.21821 -0.1869,5.89922 -0.1432,5.9578 0.1746,0.23441 2.169,-6.691 5.0417,-17.50676 2.96,-11.14497 3.0475,-11.40904 3.9266,-11.85261 2.6275,-1.32577 18.1562,0.44522 19.646,2.24057 0.291,0.3507 0.2701,0.72531 -0.1014,1.81564 -0.4367,1.2819 -0.4337,1.36352 0.044,1.22037 0.2818,-0.0844 2.0651,-0.36765 3.9628,-0.62949 2.8524,-0.39356 9.6889,-1.47461 19.8022,-3.13133 1.4454,-0.23677 1.7241,-0.1984 2.2456,0.30913 0.5077,0.49402 0.6124,1.07544 0.7106,3.94355 0.1078,3.15037 -0.3886,11.81572 -0.7671,13.38948 -0.2968,1.23434 -1.211,1.4451 -11.4151,2.6318 l -1.2752,0.14829 0,1.52444 0,1.52444 3.2461,-0.15388 3.246,-0.15387 0.6998,1.02136 c 0.666,0.97202 0.69,1.18392 0.4986,4.38732 -0.2748,4.5979 -0.3867,5.00392 -1.5081,5.47253 -0.9885,0.41306 -3.3889,0.87086 -6.2574,1.19339 l -1.7252,0.19398 0,1.518 0,1.518 0.9751,-0.16989 c 0.5364,-0.0934 2.5953,-0.45236 4.5756,-0.7976 5.0621,-0.88254 8.8329,-1.12603 9.1631,-0.59169 0.2141,0.34635 0.2798,0.34179 0.4044,-0.0281 0.3322,-0.9869 1.1304,-8.23349 1.3871,-12.59436 0.1506,-2.55806 0.7582,-8.09428 1.3502,-12.30271 0.5921,-4.20842 1.198,-9.06949 1.3465,-10.80237 0.2772,-3.23283 0.9323,-5.7465 1.7407,-6.67909 0.5,-0.57674 -0.072,-0.58201 11.461,0.10559 9.8641,0.58811 14.4755,1.88502 18.138,5.10114 0.7981,0.70081 0.9812,0.77009 0.8655,0.32739 -0.1547,-0.59178 1.3451,-2.00125 4.1596,-3.90905 2.1968,-1.48904 7.4562,-3.5589 8.0735,-3.17734 0.9035,0.55848 7.573,9.94262 8.7962,12.37642 0.4427,0.88091 0.9732,1.55236 1.1855,1.50033 0.5027,-0.12324 4.3804,-4.53148 6.7476,-7.67084 1.0267,-1.36155 2.067,-2.47554 2.3118,-2.47554 0.5461,0 5.6279,3.17712 7.9087,4.94443 2.2483,1.74219 3.1968,2.78736 3.7659,4.14998 l 0.4773,1.14267 -2.0166,2.60816 c -3.1578,4.08401 -6.8938,8.37215 -9.7877,11.23429 l -2.6539,2.62482 -0.8921,6.67723 c -0.4908,3.67248 -1.2789,10.11186 -1.7516,14.30976 -0.7268,6.45561 -0.9452,7.69774 -1.4161,8.05545 -1.2107,0.9197 -13.3173,-0.66409 -15.3969,-2.01422 -0.3827,-0.24846 -0.3513,-1.30961 0.2464,-8.32955 0.8475,-9.95476 1.2108,-17.93063 0.9334,-20.49754 -0.155,-1.43521 -0.4896,-2.42602 -1.2664,-3.75083 -0.5806,-0.99022 -1.6764,-2.94815 -2.435,-4.35096 l -1.3793,-2.55056 -0.01,1.39371 c -0.01,1.97634 -1.0032,4.95269 -2.3509,7.02978 -1.2743,1.96386 -4.1931,4.80859 -6.5972,6.42978 -0.8566,0.57763 -1.5577,1.23082 -1.558,1.45154 -3e-4,0.22073 1.6994,3.7315 3.7771,7.80172 2.0777,4.07022 4.0324,8.06818 4.3439,8.88434 0.6646,1.74145 0.6434,1.78027 -2.143,3.9306 -2.0576,1.58793 -8.9379,5.53741 -9.647,5.53768 -1.3242,6e-4 -7.2019,-8.95661 -8.9585,-13.65199 -0.6057,-1.61921 -1.1752,-2.16541 -1.174,-1.12607 0,0.73135 -0.8787,9.6144 -1.0684,10.79146 -0.2262,1.40287 -1.2674,1.60207 -9.2834,1.77596 -6.0311,0.13083 -7.0364,0.22183 -7.9773,0.72204 -0.6412,0.34089 -2.2791,0.70694 -4.0504,0.90519 -1.6357,0.18307 -6.1468,0.80955 -10.0248,1.39217 -3.8779,0.58263 -8.7652,1.12932 -10.8606,1.21487 l -3.8099,0.15555 -0.2406,-0.86444 c -0.2908,-1.04484 -0.2896,-10.61205 0,-28.92062 l 0.2187,-13.653 -2.5787,8.25181 c -1.4183,4.5385 -4.3189,14.12561 -6.4457,21.30469 -2.9648,10.00776 -4.0174,13.17537 -4.5117,13.57798 -0.7413,0.60366 -2.8064,0.69458 -4.5813,0.2017 -0.9349,-0.25964 -1.2476,-0.23402 -1.6561,0.13569 -0.3949,0.35743 -0.7612,0.39602 -1.6977,0.17887 -0.6568,-0.15229 -2.0043,-0.28072 -2.9944,-0.28541 -3.4328,-0.0162 -13.7088,-1.3909 -15.9957,-2.1398 -0.7945,-0.26019 -1.0954,-0.2363 -1.5001,0.11913 -2.0763,1.82356 -7.3168,2.9874 -15.2079,3.37748 -2.4249,0.11987 -8.4973,0.91498 -16.0518,2.10183 -23.06,3.62278 -34.2311,4.96391 -40.7522,4.89245 -2.2566,-0.0247 -4.4853,-0.10228 -4.9526,-0.17234 z m 168.851,-44.90391 c 3.5496,-1.28859 5.2652,-3.12618 5.2672,-5.64194 0,-1.08663 -0.1812,-1.61897 -0.8088,-2.3649 -0.8366,-0.99429 -4.3455,-2.77545 -5.1591,-2.61876 -0.3597,0.0693 -0.6081,1.20597 -1.1338,5.18776 -0.7779,5.89142 -0.7951,6.14928 -0.4117,6.14928 0.1575,0 1.1683,-0.32015 2.2462,-0.71144 z"
       id="path3758"
       inkscape:connector-curvature="0" />
  </g>
</svg>
