<?xml version="1.0" encoding="UTF-8" standalone="no"?>
<!-- Created with Inkscape (http://www.inkscape.org/) -->

<svg
   xmlns:dc="http://purl.org/dc/elements/1.1/"
   xmlns:cc="http://creativecommons.org/ns#"
   xmlns:rdf="http://www.w3.org/1999/02/22-rdf-syntax-ns#"
   xmlns:svg="http://www.w3.org/2000/svg"
   xmlns="http://www.w3.org/2000/svg"
   xmlns:sodipodi="http://sodipodi.sourceforge.net/DTD/sodipodi-0.dtd"
   xmlns:inkscape="http://www.inkscape.org/namespaces/inkscape"
   width="476.26016"
   height="131.86041"
   id="svg6467"
   version="1.1"
   inkscape:version="0.48.1 r9760"
   sodipodi:docname="New document 37">
  <defs
     id="defs6469" />
  <sodipodi:namedview
     id="base"
     pagecolor="#ffffff"
     bordercolor="#666666"
     borderopacity="1.0"
     inkscape:pageopacity="0.0"
     inkscape:pageshadow="2"
     inkscape:zoom="0.35"
     inkscape:cx="238.13008"
     inkscape:cy="65.93021"
     inkscape:document-units="px"
     inkscape:current-layer="layer1"
     showgrid="false"
     fit-margin-top="0"
     fit-margin-left="0"
     fit-margin-right="0"
     fit-margin-bottom="0"
     inkscape:window-width="1440"
     inkscape:window-height="832"
     inkscape:window-x="0"
     inkscape:window-y="24"
     inkscape:window-maximized="1" />
  <metadata
     id="metadata6472">
    <rdf:RDF>
      <cc:Work
         rdf:about="">
        <dc:format>image/svg+xml</dc:format>
        <dc:type
           rdf:resource="http://purl.org/dc/dcmitype/StillImage" />
        <dc:title></dc:title>
      </cc:Work>
    </rdf:RDF>
  </metadata>
  <g
     inkscape:label="Layer 1"
     inkscape:groupmode="layer"
     id="layer1"
     transform="translate(-136.86992,-466.43197)">
    <path
       inkscape:connector-curvature="0"
       style="font-size:64.534729px;font-style:normal;font-variant:normal;font-weight:normal;font-stretch:normal;text-indent:0;text-align:center;text-decoration:none;line-height:125%;letter-spacing:0px;word-spacing:0px;text-transform:none;direction:ltr;block-progression:tb;writing-mode:lr-tb;text-anchor:middle;color:#000000;fill:#000000;fill-opacity:1;fill-rule:nonzero;stroke:none;stroke-width:2;marker:none;visibility:visible;font-family:Komika Axis;-inkscape-font-specification:Komika Axis"
       d="m 194.46362,466.45889 c -1.231,0.048 -2.4352,0.1821 -3.5937,0.375 -2.2205,0.3863 -4.2279,1.0062 -6.0626,1.875 -1.8342,0.7725 -3.401,1.5999 -4.6562,2.4688 -3.4756,2.1241 -6.9021,4.7231 -10.2812,7.8124 -3.3794,3.0897 -6.45,6.4279 -9.25,10 -2.7998,3.5725 -5.2822,7.2347 -7.4063,11 -2.0275,3.7654 -3.4748,7.2799 -4.3437,10.5626 -1.2551,3.862 -1.8153,7.584 -1.7188,11.1562 0.097,3.5724 0.7164,6.9703 1.875,10.1562 1.1584,3.0897 2.7537,5.9842 4.7812,8.6876 2.1241,2.6068 4.4871,4.9697 7.0938,7.0937 2.4138,2.0275 5.0724,4.0066 7.9688,5.9375 2.9929,1.931 5.9473,3.7907 8.8437,5.625 2.993,1.8345 5.768,3.6371 8.375,5.375 2.7033,1.6413 4.9182,3.17681 6.6563,4.62501 1.8344,1.3517 3.0458,2.6227 3.625,3.7812 0.6759,1.1587 0.4993,2.0743 -0.5626,2.75 -2.7033,2.1241 -7.1048,2.4483 -13.1874,1 -5.986,-1.4482 -13.0463,-4.6386 -21.1563,-9.5624 -1.4483,-0.96561 -3.0718,-1.67351 -4.9063,-2.15631 -1.7377,-0.5792 -3.569,-0.9346 -5.5,-1.0313 -2.0275,-0.1929 -4.0064,-0.073 -5.9374,0.3126 -1.9309,0.2897 -3.7622,0.7617 -5.5,1.4374 -1.8345,1.06221 -2.7498,2.50941 -2.75,4.34381 0.1929,1.7379 2.3485,4.3965 6.5,7.9688 7.8204,7.2411 15.4122,12.3507 22.75,15.3437 7.3375,2.8964 14.8697,4.2556 22.5937,4.0625 5.7929,-0.096 10.7544,-0.8359 14.9063,-2.1875 4.1512,-1.3517 7.666,-2.9752 10.5624,-4.9063 2.8965,-2.0274 5.2307,-4.214 6.9688,-6.5312 1.7376,-2.3171 3.0971,-4.4725 4.0625,-6.5 1.5449,-2.7999 2.0167,-5.43 1.4375,-7.8438 -0.483,-2.5101 -1.754,-4.87301 -3.7812,-7.09371 -1.9311,-2.3171 -4.4419,-4.5322 -7.5313,-6.6563 -2.9932,-2.124 -6.2116,-4.2509 -9.6875,-6.375 -3.3792,-2.2204 -6.8057,-4.4952 -10.2812,-6.8124 -3.3794,-2.3171 -6.4816,-4.7682 -9.2813,-7.375 -2.2207,-1.9311 -3.6081,-4.146 -4.1875,-6.6563 -0.5792,-2.5101 -0.6378,-5.0807 -0.1562,-7.6875 0.4827,-2.6068 1.3981,-5.2056 2.75,-7.8125 1.4481,-2.6067 3.0434,-5.0294 4.7812,-7.25 1.8344,-2.2206 3.7252,-4.1995 5.6562,-5.9375 1.9309,-1.7377 3.674,-3.0371 5.2188,-3.9062 1.8343,-1.2551 3.1339,-1.7868 3.9062,-1.5938 0.7722,0.1932 1.2159,0.9325 1.3126,2.1875 0.193,1.2553 0.074,2.8789 -0.3126,4.9063 -0.3861,1.931 -0.8583,4.0295 -1.4374,6.25 -0.4831,2.1241 -1.0146,4.2794 -1.5938,6.5 -0.4829,2.1241 -0.7785,4.015 -0.875,5.6562 -0.9657,8.0136 5.1196,14.3345 18.25,18.9688 2.2205,0.8689 3.9637,1.0765 5.2188,0.5937 1.255,-0.4827 2.4065,-1.694 3.4687,-3.625 1.0619,-2.124 2.1254,-4.6348 3.1875,-7.5313 0.8141,-2.2205 1.5492,-4.5409 2.25,-6.875 0.2194,4.5868 0.4541,9.1805 0.7188,13.8126 0.3861,6.7583 0.8298,13.2272 1.3124,19.4062 0.4828,5.8895 1.0743,11.4427 1.75,16.65621 0.5795,5.1171 1.2589,9.6666 2.0313,13.625 0.2897,2.7033 0.9093,4.7109 1.875,6.0626 1.0619,1.2551 2.7453,2.29 5.0625,3.0624 2.5103,0.7724 5.1093,1.4805 7.8125,2.1563 2.8,0.7724 5.6946,1.3922 8.6875,1.875 2.2205,0.2896 3.9637,0.2612 5.2188,-0.125 1.3515,-0.2896 2.6226,-1.4128 3.7812,-3.3437 1.06191,-2.4138 2.4497,-5.4562 4.1875,-9.125 1.7379,-3.7654 3.6286,-7.8117 5.6563,-12.1563 2.1239,-4.3447 4.3392,-8.77471 6.6562,-13.31251 2.3172,-4.6343 4.5917,-9.0957 6.8125,-13.3438 -2e-4,3.3793 0.1467,6.8653 0.4375,10.4376 0.386,3.5723 0.7697,7.0867 1.1562,10.56241 0.386,3.3793 0.7701,6.5098 1.1563,9.4063 0.4827,2.8964 0.8665,5.3787 1.1563,7.4063 0.3861,2.0274 1.1537,3.9184 2.3124,5.6562 1.1584,1.6414 3.0778,2.9408 5.7813,3.9062 1.3514,0.2898 2.5628,0.5541 3.625,0.8438 1.1586,0.3862 2.2816,0.7417 3.3437,1.0312 1.1587,0.2898 2.3699,0.5853 3.625,0.875 1.2551,0.3862 2.7307,0.7105 4.4688,1 3.0894,0.4828 5.4835,0.4828 7.125,0 1.6411,-0.4827 2.9406,-1.6343 3.9062,-3.4687 1.7378,-3.9585 3.8051,-8.596 6.2188,-13.9063 2.4136,-5.31 4.984,-10.9514 7.6875,-16.93741 2.8,-6.0825 5.6945,-12.3154 8.6875,-18.6876 3.0894,-6.4686 6.1318,-12.7896 9.125,-18.9687 2.993,-6.179 5.9161,-12.1161 8.8125,-17.8125 2.8965,-5.6963 5.555,-10.7775 7.9687,-15.2188 1.1587,-2.51 1.7784,-4.9611 1.875,-7.375 0.096,-2.4136 -0.9669,-4.6883 -3.1874,-6.8124 -2.0276,-1.6413 -4.1232,-3.0886 -6.3438,-4.3438 -2.1242,-1.3516 -4.3106,-2.5628 -6.5312,-3.625 -3.0896,-1.255 -5.3644,-1.6985 -6.8126,-1.3125 -1.4484,0.2898 -2.8956,1.9446 -4.3437,4.9375 -1.1588,2.2207 -2.606,5.1154 -4.3437,8.6875 -1.6413,3.4758 -3.5325,7.4339 -5.6563,11.875 -2.0278,4.4413 -4.2426,9.2268 -6.6563,14.3437 -2.3171,5.0207 -4.6802,10.1899 -7.0937,15.5 -2.414,5.3102 -4.8362,10.6276 -7.25,15.9376 -2.3173,5.2137 -4.4726,10.1754 -6.5,14.9062 0.386,-5.6963 0.77,-11.5451 1.1563,-17.5312 0.4827,-5.9859 0.926,-11.6273 1.3124,-16.9376 0.386,-5.3099 0.7104,-9.9476 1,-13.9062 0.2895,-3.9584 0.4376,-6.7648 0.4376,-8.4062 0,-1.4482 -0.06,-2.6878 -0.1563,-3.75 -2e-4,-1.0619 -0.1761,-1.9776 -0.5625,-2.75 -0.2897,-0.7724 -0.8216,-1.4519 -1.5938,-2.0313 -0.6759,-0.5792 -1.7394,-1.1705 -3.1874,-1.75 -2.607,-1.0619 -4.8817,-1.9178 -6.8126,-2.5937 -1.8344,-0.6758 -4.1377,-1.2956 -6.9374,-1.875 -2.8001,-0.6758 -4.9269,-0.7355 -6.375,-0.1563 -1.352,0.5794 -2.6229,1.9386 -3.7813,4.0625 -1.5449,2.5104 -3.5523,6.4088 -6.0625,11.7188 -2.4138,5.3103 -5.0723,11.1876 -7.9688,17.6562 -2.8,6.4688 -5.6945,13.2049 -8.6874,20.1562 -2.89649,6.9515 -5.615,13.3606 -8.125,19.25 -4e-4,-5.7927 0.062,-11.8777 0.1562,-18.25 0.193,-6.4685 0.3695,-12.6417 0.5625,-18.5312 0.28971,-5.9859 0.5255,-11.3912 0.7187,-16.2188 0.2897,-4.8272 0.4973,-8.4896 0.5938,-11 0.097,-1.255 0.097,-2.6142 0,-4.0624 -0.097,-1.5447 -0.3923,-2.992 -0.875,-4.3438 -0.3863,-1.4481 -1.0061,-2.8072 -1.875,-4.0625 -0.8689,-1.255 -2.0206,-2.3184 -3.4688,-3.1875 -2.5104,-1.4481 -5.2285,-2.54 -8.125,-3.3125 -2.8964,-0.8688 -6.1152,-1.6961 -9.6874,-2.4687 -3.0896,-0.6758 -5.1882,-0.5876 -6.25,0.2812 -1.0622,0.869 -1.6223,2.8481 -1.7188,5.9375 0,1.8544 0.02,3.8485 0.031,5.8125 -0.6032,-0.6879 -1.2518,-1.3579 -2,-2.0312 -2.89639,-2.7999 -6.5303,-5.3106 -10.875,-7.5313 -4.3447,-2.2205 -8.6866,-4.1113 -13.0312,-5.6563 -2.8965,-0.8687 -5.6717,-1.372 -8.375,-1.4687 -1.3035,-0.097 -2.5815,-0.1108 -3.8125,-0.062 z m 375.1563,1.0938 c -2.0276,0 -4.126,0.148 -6.25,0.4374 -2.0276,0.2899 -4.0353,0.8215 -6.0626,1.5938 -2.02749,0.7725 -3.9183,1.8359 -5.6562,3.1875 -5.4067,3.9586 -10.2804,8.7441 -14.625,14.3437 -4.2481,5.5999 -7.97,11.6251 -11.1562,18.0938 -3.0894,6.3722 -5.5405,12.9889 -7.375,19.8438 -1.8343,6.7583 -2.9861,13.4034 -3.4688,19.9687 -0.4827,6.5653 -0.2467,12.7981 0.7188,18.6875 0.9654,5.79291 2.7085,10.87411 5.2187,15.21881 1.3519,2.7032 3.1827,5.2141 5.5,7.5312 2.4135,2.2206 4.8648,3.9922 7.375,5.3438 7.0481,3.0896 14.2845,5.1282 21.7187,6.0937 4.24811,0.5792 8.3254,0.5196 12.1876,-0.1563 3.8618,-0.5793 7.524,-1.8191 11,-3.75 5.4067,-3.186 10.4281,-7.7355 15.0624,-13.625 4.63441,-5.8894 8.7401,-13.1856 12.3126,-21.87501 0.8686,-2.5101 1.2527,-4.6369 1.1562,-6.375 0,-1.7378 -0.8275,-3.7168 -2.4688,-5.9374 -0.86879,-1.1586 -1.844,-2.3982 -2.9062,-3.75 -0.96539,-1.3516 -2.0291,-2.6512 -3.1875,-3.9063 -1.73809,-1.9309 -3.5974,-3.1422 -5.625,-3.625 -2.0275,-0.5792 -4.686,-0.6391 -7.9687,-0.1563 -2.7999,0.4828 -6.1383,0.9861 -10,1.4688 -3.8619,0.3862 -7.5839,0.9464 -11.1563,1.7188 -1.9308,0.2897 -3.6738,0.5853 -5.2187,0.875 -1.5449,0.1931 -2.84439,0.5173 -3.9063,1 -1.0621,0.3862 -1.8298,0.9776 -2.3125,1.75 -0.3863,0.6758 -0.3863,1.6511 0,2.9062 1.8343,5.5032 4.2853,9.4016 7.375,11.7188 3.18591,2.3172 7.67591,3.3209 13.4688,3.0312 -1.5449,3.1861 -3.1685,6.2001 -4.9063,9.00001 -1.7379,2.7034 -3.54049,5.0065 -5.375,6.9375 -1.8343,1.9309 -3.7255,3.3498 -5.6563,4.2187 -1.8346,0.869 -3.6059,0.9856 -5.3437,0.4063 -2.0275,-0.6758 -3.6228,-2.4473 -4.7813,-5.3437 -1.15859,-2.993 -1.83819,-6.5672 -2.0312,-10.71881 -0.193,-4.1515 0.044,-8.6413 0.7188,-13.4688 0.7723,-4.9239 1.9836,-9.7093 3.625,-14.3437 1.8342,-5.7928 4.04951,-11.346 6.6562,-16.6563 2.6068,-5.4066 5.2655,-10.1324 7.9688,-14.1874 2.8,-4.055 5.518,-7.126 8.125,-9.25 2.7031,-2.2205 5.0064,-3.048 6.9374,-2.4688 0.9655,0.2898 1.5854,1.0574 1.875,2.3125 0.386,1.2552 0.8012,2.7907 1.1876,4.625 0.097,0.9656 0.1847,1.9408 0.2812,2.9063 0.097,0.9655 0.1539,1.9693 0.1562,3.0312 -0.097,1.0621 -0.1562,2.0971 -0.1562,3.0625 0.097,0.869 0.2445,1.7846 0.4375,2.75 0.4827,4.924 2.2543,8.8821 5.3437,11.875 3.18631,2.9931 8.1789,4.9721 14.9376,5.9375 2.4135,0.1932 4.037,-0.014 4.9062,-0.5938 0.9654,-0.6757 1.79271,-1.9751 2.4688,-3.9062 0.3859,-1.5447 0.7102,-3.4641 1,-5.7812 0.3861,-2.3171 0.6817,-4.7396 0.875,-7.25 0.2894,-2.5101 0.4374,-5.021 0.4374,-7.5313 0.097,-2.5102 0.097,-4.7848 0,-6.8125 -0.4827,-3.8618 -1.3986,-7.3478 -2.75,-10.4375 -1.35169,-3.0894 -3.65499,-5.9242 -6.9374,-8.5313 -1.7382,-1.4481 -3.7171,-2.7476 -5.9376,-3.9062 -2.12419,-1.2551 -4.45849,-2.3184 -6.9687,-3.1875 -2.41379,-0.9653 -4.92449,-1.7929 -7.5313,-2.4687 -2.6069,-0.6758 -5.1774,-1.1478 -7.6874,-1.4376 -1.738,-0.2895 -3.5976,-0.4374 -5.625,-0.4374 z m -68.4063,2.7187 c -0.8191,0.05 -1.5408,0.2153 -2.1563,0.4687 -1.5448,0.6759 -2.6965,2.419 -3.4687,5.2188 -2.7999,10.3307 -5.666,21.6134 -8.5625,33.875 -2.8,12.2616 -5.1626,24.7272 -7.0938,37.375 -1.0621,-4.9239 -2.1255,-10.0335 -3.1874,-15.3438 -1.0622,-5.4066 -2.0658,-10.6356 -3.0313,-15.6562 -0.9654,-5.1169 -1.8213,-9.8428 -2.5937,-14.1875 -0.7724,-4.3446 -1.4238,-7.9187 -1.9063,-10.7187 -0.5794,-3.6687 -1.4949,-6.4156 -2.75,-8.25 -1.2551,-1.931 -3.382,-3.526 -6.375,-4.7813 -3.6689,-1.7377 -7.1833,-3.1566 -10.5625,-4.2187 -3.3791,-1.0619 -6.8651,-2.1254 -10.4375,-3.1876 -2.9929,-0.7723 -5.356,-0.7722 -7.0937,0 -1.738,0.676 -2.9181,2.4787 -3.5938,5.375 -1.0622,5.0207 -2.1853,10.7501 -3.3438,17.2188 -1.0621,6.4688 -2.1255,13.2049 -3.1874,20.1562 -1.0622,6.9517 -2.0374,13.952 -2.9063,21 -0.9654,6.9515 -1.7928,13.5085 -2.4687,19.6876 -0.7724,6.0825 -1.3326,11.5475 -1.7188,16.37501 -0.4827,4.8273 -0.8381,8.5181 -1.0312,11.125 -0.1931,2.5102 0.1029,4.4892 0.875,5.9374 0.6756,1.3517 2.0946,2.563 4.2187,3.625 2.2205,1.3517 4.464,2.3868 6.7813,3.0626 2.4137,0.5793 4.8078,1.1394 7.125,1.7187 2.5102,0.6758 4.1935,0.764 5.0624,0.2813 0.8689,-0.3862 1.4889,-1.39 1.875,-3.0313 0.4828,-3.4757 1.1026,-7.522 1.875,-12.1563 0.8691,-4.7308 1.7843,-9.812 2.75,-15.21871 1.062,-5.5032 2.1256,-11.2326 3.1876,-17.2187 1.1586,-5.9859 2.2818,-11.9828 3.3437,-17.9688 1.2551,5.0206 2.6144,10.0421 4.0625,15.0625 1.4481,4.924 2.8954,9.7095 4.3438,14.3437 1.4481,4.5379 2.8356,8.79171 4.1874,12.75001 1.4482,3.9585 2.8358,7.4134 4.1876,10.4063 1.7379,4.1516 4.7519,7.0462 9,8.6875 4.6343,1.6413 9.1524,2.9122 13.5937,3.7812 5.2135,1.1586 8.1081,-0.1118 8.6875,-3.7812 1.5447,-6.7584 3.407,-14.5551 5.5312,-23.4375 2.22071,-8.97901 4.4641,-18.16611 6.7813,-27.53131 2.4138,-9.365 4.836,-18.5806 7.25,-27.6562 2.4135,-9.0754 4.71671,-17.1991 6.9375,-24.3438 0.7724,-2.5101 0.9798,-4.6369 0.5938,-6.375 -0.29,-1.8342 -1.8253,-3.6057 -4.625,-5.3437 -1.64159,-1.0619 -3.0887,-1.9178 -4.3438,-2.5937 -1.2551,-0.6758 -2.4664,-1.2671 -3.625,-1.75 -1.0621,-0.4827 -2.1852,-0.8665 -3.3438,-1.1563 -1.15859,-0.2895 -2.4581,-0.6449 -3.9062,-1.0313 -1.9311,-0.4826 -3.5723,-0.6767 -4.9375,-0.5937 z m -109.375,0.1875 c -0.783,0.036 -1.4832,0.1529 -2.0625,0.4062 -1.4481,0.5795 -2.59979,2.294 -3.4688,5.0938 -1.0619,4.5378 -2.2136,9.8239 -3.4687,15.9062 -1.2551,5.9862 -2.4948,12.3667 -3.75,19.125 -1.1586,6.7584 -2.3414,13.6709 -3.5,20.7188 -1.1584,7.0481 -2.16229,13.7529 -3.0313,20.125 -0.9654,6.3722 -1.7332,12.2496 -2.3124,17.65621 -0.67599,5.3102 -1.11929,9.6833 -1.3126,13.0626 -0.2894,2.5102 -0.052,4.4892 0.7188,5.9374 0.6759,1.3517 2.123,2.5317 4.3438,3.5938 2.0273,1.062 4.1544,1.9491 6.375,2.625 2.317,0.6758 4.7398,1.3554 7.25,2.0312 2.5102,0.5794 4.1651,0.608 4.9374,0.125 0.8691,-0.4827 1.5173,-1.5461 2,-3.1874 0.8689,-4.3448 1.904,-9.2469 3.0626,-14.75 1.255,-5.5998 2.5828,-11.5084 4.0312,-17.68761 1.4481,-6.2755 2.9552,-12.625 4.5,-19.0937 1.5446,-6.5653 3.0802,-12.9458 4.625,-19.125 1.6413,-6.2755 3.2364,-12.2126 4.7812,-17.8125 1.6414,-5.5997 3.1483,-10.5927 4.5,-14.9375 0.6757,-2.6067 0.7346,-4.5857 0.1563,-5.9375 -0.4827,-1.3516 -2.078,-2.9155 -4.7813,-4.75 -2.6068,-1.7377 -5.6493,-3.3926 -9.125,-4.9375 -3.4756,-1.5447 -6.7257,-2.6961 -9.7187,-3.4687 -1.8706,-0.543 -3.445,-0.7791 -4.75,-0.7188 z"
       id="path5615" />
  </g>
</svg>
