<?xml version="1.0" encoding="UTF-8" standalone="no"?>
<!-- Created with Inkscape (http://www.inkscape.org/) -->

<svg
   xmlns:dc="http://purl.org/dc/elements/1.1/"
   xmlns:cc="http://creativecommons.org/ns#"
   xmlns:rdf="http://www.w3.org/1999/02/22-rdf-syntax-ns#"
   xmlns:svg="http://www.w3.org/2000/svg"
   xmlns="http://www.w3.org/2000/svg"
   xmlns:sodipodi="http://sodipodi.sourceforge.net/DTD/sodipodi-0.dtd"
   xmlns:inkscape="http://www.inkscape.org/namespaces/inkscape"
   width="733.15112"
   height="162.56737"
   id="svg6181"
   version="1.1"
   inkscape:version="0.48.1 r9760"
   sodipodi:docname="New document 19">
  <defs
     id="defs6183" />
  <sodipodi:namedview
     id="base"
     pagecolor="#ffffff"
     bordercolor="#666666"
     borderopacity="1.0"
     inkscape:pageopacity="0.0"
     inkscape:pageshadow="2"
     inkscape:zoom="0.35"
     inkscape:cx="366.57556"
     inkscape:cy="81.283689"
     inkscape:document-units="px"
     inkscape:current-layer="layer1"
     showgrid="false"
     fit-margin-top="0"
     fit-margin-left="0"
     fit-margin-right="0"
     fit-margin-bottom="0"
     inkscape:window-width="1440"
     inkscape:window-height="832"
     inkscape:window-x="0"
     inkscape:window-y="24"
     inkscape:window-maximized="1" />
  <metadata
     id="metadata6186">
    <rdf:RDF>
      <cc:Work
         rdf:about="">
        <dc:format>image/svg+xml</dc:format>
        <dc:type
           rdf:resource="http://purl.org/dc/dcmitype/StillImage" />
        <dc:title></dc:title>
      </cc:Work>
    </rdf:RDF>
  </metadata>
  <g
     inkscape:label="Layer 1"
     inkscape:groupmode="layer"
     id="layer1"
     transform="translate(-8.4244415,-451.0785)">
    <path
       inkscape:connector-curvature="0"
       style="font-size:209.76057434px;font-style:normal;font-variant:normal;font-weight:bold;font-stretch:normal;text-indent:0;text-align:start;text-decoration:none;line-height:125%;letter-spacing:0px;word-spacing:0px;text-transform:none;direction:ltr;block-progression:tb;writing-mode:lr-tb;text-anchor:start;color:#000000;fill:#000000;fill-opacity:1;fill-rule:nonzero;stroke:none;stroke-width:2;marker:none;visibility:visible;font-family:Otaku Rant;-inkscape-font-specification:Otaku Rant Bold"
       d="m 697.27533,451.09229 c -3.0047,0.10939 -4.6355,0.85623 -4.9063,2.25 l -0.625,3.25 c -0.2023,1.04089 0.47,1.69685 2.0313,2 -2.932,15.091 -11.9327,48.79134 -27.0313,101.09375 -0.3322,1.70985 2.3363,3.31435 8.0625,4.8125 5.9471,1.15545 17.2139,2.26 33.75,3.3125 3.6426,0.70774 14.635,-33.42043 32.9688,-102.375 0.8232,-4.23719 -8.4727,-8.23036 -27.875,-12 l -9.5,-1.84375 c -2.787,-0.39674 -5.0723,-0.56563 -6.875,-0.5 z m -53.125,2.21875 c -3.8156,0.0818 -5.8352,0.8632 -6.0313,2.375 l -0.375,2.9375 c -0.122,0.94089 0.5265,1.50467 1.9375,1.6875 -1.7686,13.64092 -7.93,44.22661 -18.4688,91.78125 -0.2003,1.54555 2.3025,2.82823 7.5,3.84375 5.3756,0.69705 15.4871,1.0535 30.3126,1.0625 3.2924,0.42695 11.197,-30.67454 23.6874,-93.28125 0.4966,-3.83004 -8.0244,-6.88212 -25.5624,-9.15625 l -8.5938,-1.09375 c -1.674,-0.1316 -3.1344,-0.18353 -4.4062,-0.15625 z m -549.374999,1.125 -3.2813,1.53125 c -9.8611,2.51401 -17.0062,4.4191 -21.4375,5.71875 l -1.1875,0.34375 c 0.1068,6.07913 1.7072,21.44983 4.7813,46.125 -0.6474,0.18994 -1.5264,-0.6104 -2.5938,-2.40625 -8.8252,-12.38981 -13.7231,-18.44822 -14.7188,-18.15625 l -1.125,0.34375 c -1.4672,4.21562 -2.5781,14.54416 -3.375,31 l -0.625,0.1875 c -8.4799,-24.11696 -14.0541,-38.13957 -16.7187,-42.0625 -2.4436,-5.93423 -5.251,-8.43455 -8.4375,-7.5 l -12.0938,3.53125 c -1.5933,0.46746 -3.0918,1.13242 -4.4686999,1.96875 -2.141,0.62809 -1.0676,9.26515 3.2186999,25.90625 2.0155,6.87112 6.1643,18.83418 12.4063,35.875 10.2961,26.99098 15.885,40.32539 16.7813,40.0625 2.2405,-0.65717 6.9126,-1.79123 14,-3.4375 0.9459,-0.27746 3.7559,-1.34133 8.4687,-3.15625 2.6562,-0.3465 5.2164,-0.87811 7.6563,-1.59375 0.3982,-0.11682 0.9011,-0.47634 1.5312,-1.09375 0.8962,-0.26286 0.4711,-7.41404 -1.2812,-21.5 l 0.5937,-0.1875 c 1.6211,5.52673 6.0424,12.76979 13.2187,21.75 3.9832,-1.16831 7.1299,-1.88074 9.4376,-2.125 4.961699,-1.88793 10.261299,-3.64759 15.937399,-5.3125 l 1.125,-0.34375 c 1.0456,-0.3067 2.1119,-0.99842 3.1876,-2.125 -0.2183,-1.32938 -0.4104,-2.47746 -0.625,-3.78125 5.9669,4.73008 14.5073,7.84613 25.625,9.34375 3.8791,0 8.3901,-0.61999 13.5624,-1.875 8.2723,-3.90313 14.4204,-9.3113 18.4688,-16.21875 5.9207,9.69179 17.6615,15.72445 35.25,18.09375 4.2859,0 9.2854,-0.6759 15,-2.0625 8.9112,-4.20459 15.6189,-9.98371 20.0938,-17.34375 5.5153,14.09896 19.776,22.70933 42.8124,25.8125 4.896,0 10.5971,-0.791 17.125,-2.375 7.5842,-3.57844 13.7914,-8.13955 18.5626,-13.71875 7.6885,10.80373 21.7784,17.61315 42.2812,20.375 5.3027,0 11.4921,-0.87815 18.5625,-2.59375 9.6348,-4.54601 17.1505,-10.56642 22.5937,-18.09375 l 0,5.34375 0.6563,7.40625 c -0.4314,10e-6 -0.6563,0.40403 -0.6563,1.21875 0.6231,1.19813 1.252,1.78125 1.875,1.78125 l 1.7813,0 c 1.0543,0 7.6417,-0.40402 19.7187,-1.21875 l 2.4376,0 c 1.6293,-0.9585 2.4373,-1.76655 2.4374,-2.4375 l 0,-19.0625 c -1e-4,-1.67735 0.1791,-3.29345 0.5626,-4.875 0,-1.43772 5.1502,-2.6498 15.4062,-3.65625 l 3.0938,16.53125 c 1.198,10.25596 3.6221,15.375 7.3124,15.375 l 2.4688,0 c 9.7115,-0.68728 16.3749,-1.33737 20.0312,-1.96875 0.3813,8.26692 0.8316,12.625 1.4063,12.625 1.4016,0 8.5639,-1.17464 21.4375,-3.5625 2.0764,10e-6 6.0511,0.20972 11.9688,0.625 l 1.1874,-0.625 c 1.6093,10e-6 2.7839,-11.13687 3.5626,-33.40625 l 0,-0.625 c 6.852,0.41532 10.8161,0.62504 11.9062,0.625 l 0.625,0 -2.4062,32.21875 c 0.571,1.97258 1.9865,2.96875 4.2187,2.96875 l 13.1563,0 c 2.7511,0 7.0927,0.20973 13.0624,0.625 0,-0.67482 0.4089,-1.09427 1.1876,-1.25 2.0244,-25.48776 5.8204,-56.48659 11.375,-93.03125 l 0,-0.625 c -1e-4,-2.75113 -7.7603,-4.1249 -23.2813,-4.125 l -2.9687,0 c -2.0765,1e-4 -5.4532,0.16798 -10.125,0.53125 -1.7133,1e-4 -3.3385,14.31455 -4.8438,42.96875 -3.5818,-0.77859 -6.1303,-1.15619 -7.6875,-1.15625 0,-0.41522 0.1678,-1.00254 0.5313,-1.78125 0.4151,-9.81091 0.6248,-17.57108 0.625,-23.28125 l 0,-1.8125 c -1e-4,-4.20462 -0.2099,-10.54918 -0.625,-19.0625 -1e-4,-2.28394 -13.3077,-4.28686 -39.9376,-6 l -0.625,0 c 0,-0.41517 -0.1678,-1.00249 -0.5312,-1.78125 -2.8032,1.1e-4 -4.2188,16.10777 -4.2188,48.34375 0.09,12.11219 0.2041,22.27454 0.375,30.90625 -9.7435,-44.45243 -18.2535,-71.64101 -25.5312,-81.5 -22.0934,1.9171 -33.1564,3.5332 -33.1562,4.875 -3.7672,9.38746 -6.8957,18.53878 -9.4688,27.40625 -1.5977,-5.79491 -4.0381,-11.21845 -7.3125,-16.25 -10.8135,-13.20481 -24.447,-19.81239 -40.875,-19.8125 -3.2233,0.31204 -7.9386,1.36804 -14.125,3.1875 -10.7595,5.64474 -19.1338,12.67179 -25.125,21.09375 -0.3459,-0.5775 -0.6935,-1.15174 -1.0625,-1.71875 -9.984,-12.19191 -22.582,-18.28115 -37.75,-18.28125 -2.976,0.2881 -7.3193,1.2576 -13.0312,2.9375 -13.1393,6.89325 -22.4062,16.02729 -27.8438,27.40625 -1.1219,-2.76844 -2.51,-5.4078 -4.1562,-7.9375 -8.7398,-10.67256 -19.7536,-16.03116 -33.0313,-16.03125 -2.6052,0.2522 -6.4061,1.1232 -11.4063,2.59375 -11.3663,5.96313 -19.4051,13.85841 -24.1874,23.65625 -0.5827,-1.09351 -1.2241,-2.17053 -1.9063,-3.21875 -7.9104,-9.65966 -17.8574,-14.49992 -29.875,-14.5 -2.3578,0.22827 -5.8182,1.01277 -10.3437,2.34375 -11.8605,6.22234 -19.7476,14.75824 -23.6876,25.59375 -5.0217,-29.02731 -8.480899,-46.94255 -10.312399,-53.1875 l -2.625,-2.3125 z m 500.312399,16.4375 c -5.1368,0.25955 -7.7187,1.16223 -7.7187,2.71875 l 0,2.25 c 0,0.72654 0.5667,1.09386 1.6563,1.09375 0,10.53333 -1.6793,34.37964 -5,71.53125 0,1.19345 2.0151,1.89684 6.0624,2.15625 4.151,3e-5 11.8653,-0.70336 23.125,-2.15625 2.5425,4e-5 5.4916,-24.41289 8.8126,-73.1875 -1e-4,-2.9575 -6.8012,-4.40614 -20.3438,-4.40625 l -6.5938,0 z m -155,22.75 0.5938,0 c 2.0607,9.15374 3.6914,15.29119 4.9375,18.40625 -1e-4,0.81478 -3.4572,2.02686 -10.4063,3.65625 l -0.6562,0 c 1.4857,-8.43474 3.3266,-15.78425 5.5312,-22.0625 z m -78.75,7.5625 c -1e-4,0.83188 2.1432,1.25007 6.4063,1.25 5.5626,4.47103 8.3436,8.72626 8.3437,12.78125 -2.2355,11.07346 -6.2817,16.62504 -12.1562,16.625 l -1.875,0 c -8.526,-1.55959 -12.7812,-5.17702 -12.7812,-10.84375 0,-8.21402 4.0043,-14.8216 12.0624,-19.8125 z m -77.75,1.3125 c 10e-5,0.76807 1.9703,1.15632 5.9063,1.15625 5.136,4.12807 7.7187,8.06856 7.7187,11.8125 -2.0639,10.22405 -5.826,15.34379 -11.25,15.34375 l -1.7187,0 c -7.872,-1.43996 -11.8125,-4.7992 -11.8125,-10.03125 0,-7.58395 3.7162,-13.67318 11.1562,-18.28125 z m -77.5937,2 c -1e-4,0.67235 1.7108,1.00006 5.1563,1 4.496,3.61363 6.75,7.06638 6.75,10.34375 -1.8069,8.94994 -5.0958,13.40629 -9.8438,13.40625 l -1.5,0 c -6.891,-1.26051 -10.3439,-4.16997 -10.3438,-8.75 0,-6.63884 3.2685,-11.96619 9.7813,-16 z m -67.125,5.5625 c -1e-4,0.60854 1.569,0.93755 4.6875,0.9375 4.0692,3.27067 6.0936,6.37742 6.0938,9.34375 -1.6354,8.10052 -4.5777,12.15628 -8.875,12.15625 l -1.375,0 c -6.2371,-1.14088 -9.3438,-3.79214 -9.3438,-7.9375 0,-6.00877 2.9177,-10.84903 8.8125,-14.5 z m 446.8125,47.75 c -2.9188,0.27972 -4.375,2.68094 -4.375,7.15625 l 0,10.40625 c 0,4.77368 1.102,7.1875 3.2812,7.1875 1.2455,0 2.1586,-0.19929 2.7813,-0.5625 l 3.8125,0.5625 c 14.3211,0 21.5,-1.26999 21.5,-3.8125 l 0,-1.1875 c 0,-2.02362 0.5353,-7.15608 1.625,-15.40625 l 0,-0.53125 c 0,-2.54248 -2.2146,-3.81248 -6.625,-3.8125 l -21.4062,0 c -0.2076,0 -0.3992,-0.0186 -0.5938,0 z m 35.375,6.6875 c -3.3802,0.24926 -5.4235,3.09074 -6.125,8.5 l -1.75,13.5 c -0.8015,6.18204 0.2092,9.47783 3.0312,9.84375 1.6129,0.20911 2.8516,0.11583 3.7188,-0.25 l 4.8438,1.34375 c 18.5461,2.40469 28.0418,1.9801 28.4687,-1.3125 l 0.1875,-1.53125 c 0.3397,-2.62064 1.9223,-9.18629 4.7188,-19.6875 l 0.062,-0.6875 c 0.4269,-3.29258 -2.1945,-5.32189 -7.9062,-6.0625 l -27.7188,-3.59375 c -0.5375,-0.0697 -1.0483,-0.0981 -1.5312,-0.0625 z m 44.5938,9.03125 c -3.788,0.0404 -6.2437,3.07823 -7.4063,9.0625 l -2.9063,14.9375 c -1.3287,6.83921 -0.4349,10.54964 2.6876,11.15625 1.784,0.34674 3.163,0.34707 4.1562,0 l 5.3125,1.84375 c 20.5176,3.98615 31.1361,4.14261 31.8437,0.5 l 0.3126,-1.65625 c 0.5632,-2.89924 2.7987,-10.10833 6.6562,-21.625 l 0.125,-0.78125 c 0.7077,-3.64258 -2.0874,-6.08486 -8.4062,-7.3125 l -30.6563,-5.9375 c -0.5947,-0.11553 -1.1776,-0.19327 -1.7187,-0.1875 z"
       id="path5685" />
  </g>
</svg>
