<?xml version="1.0" encoding="UTF-8" standalone="no"?>
<!-- Created with Inkscape (http://www.inkscape.org/) -->

<svg
   xmlns:dc="http://purl.org/dc/elements/1.1/"
   xmlns:cc="http://creativecommons.org/ns#"
   xmlns:rdf="http://www.w3.org/1999/02/22-rdf-syntax-ns#"
   xmlns:svg="http://www.w3.org/2000/svg"
   xmlns="http://www.w3.org/2000/svg"
   xmlns:sodipodi="http://sodipodi.sourceforge.net/DTD/sodipodi-0.dtd"
   xmlns:inkscape="http://www.inkscape.org/namespaces/inkscape"
   width="465.52042"
   height="271.34369"
   id="svg6557"
   version="1.1"
   inkscape:version="0.48.1 r9760"
   sodipodi:docname="wobblerap.svg">
  <defs
     id="defs6559" />
  <sodipodi:namedview
     id="base"
     pagecolor="#ffffff"
     bordercolor="#666666"
     borderopacity="1.0"
     inkscape:pageopacity="0.0"
     inkscape:pageshadow="2"
     inkscape:zoom="0.35"
     inkscape:cx="232.76021"
     inkscape:cy="135.67185"
     inkscape:document-units="px"
     inkscape:current-layer="layer1"
     showgrid="false"
     inkscape:window-width="1440"
     inkscape:window-height="832"
     inkscape:window-x="0"
     inkscape:window-y="24"
     inkscape:window-maximized="1"
     fit-margin-top="0"
     fit-margin-left="0"
     fit-margin-right="0"
     fit-margin-bottom="0" />
  <metadata
     id="metadata6562">
    <rdf:RDF>
      <cc:Work
         rdf:about="">
        <dc:format>image/svg+xml</dc:format>
        <dc:type
           rdf:resource="http://purl.org/dc/dcmitype/StillImage" />
        <dc:title></dc:title>
      </cc:Work>
    </rdf:RDF>
  </metadata>
  <g
     inkscape:label="Layer 1"
     inkscape:groupmode="layer"
     id="layer1"
     transform="translate(-142.23979,-396.69033)">
    <path
       inkscape:connector-curvature="0"
       style="font-size:102.54291534px;font-style:normal;font-variant:normal;font-weight:bold;font-stretch:normal;text-indent:0;text-align:center;text-decoration:none;line-height:125%;letter-spacing:-8.07497501px;word-spacing:0px;text-transform:none;direction:ltr;block-progression:tb;writing-mode:lr-tb;text-anchor:middle;color:#000000;fill:#000000;fill-opacity:1;fill-rule:nonzero;stroke:none;stroke-width:2;marker:none;visibility:visible;font-family:Otaku Rant;-inkscape-font-specification:Otaku Rant Bold"
       d="m 246.59028,396.69033 -4,1.5313 c -11.8916,2.1581 -20.5171,3.8287 -25.875,5 l -1.4375,0.3124 c -0.3793,7.2107 0.2231,25.5735 1.8125,55.0626 -0.7829,0.1711 -1.7285,-0.8462 -2.8437,-3.0626 -9.425,-15.4122 -14.7649,-23.0131 -15.9688,-22.75 l -1.3438,0.3126 c -2.0889,4.8722 -4.2809,17.0079 -6.5937,36.4374 l -0.7187,0.1563 c -8.0399,-29.2772 -13.4822,-46.349 -16.3126,-51.2187 -2.4016,-7.2336 -5.5219,-10.4046 -9.375,-9.5626 l -14.6562,3.1876 c -1.9262,0.4213 -3.7366,1.0612 -5.4375,1.9374 -2.5886,0.5662 -2.0376,10.897 1.6563,30.9688 1.8162,8.308 5.7411,22.8232 11.7187,43.5312 9.953,32.8333 15.4475,49.1119 16.5313,48.875 2.7091,-0.5923 8.3413,-1.5767 16.875,-2.9374 1.1437,-0.2501 4.5778,-1.2418 10.3124,-3 3.1754,-0.1896 6.2378,-0.6054 9.1876,-1.25 0.4817,-0.1053 1.1397,-0.5087 1.9374,-1.1876 1.0838,-0.237 1.1542,-8.7599 0.25,-25.5937 l 0.7188,-0.1563 c 1.4608,6.6825 6.0889,15.6387 13.8438,26.875 4.8162,-1.0528 8.5894,-1.6207 11.3437,-1.7187 6.0353,-1.8241 12.4808,-3.4998 19.3437,-5 l 1.3438,-0.2813 c 1.2642,-0.2763 2.6008,-1.036 3.9688,-2.2812 -0.2093,-2.2531 -0.3888,-4.2144 -0.5938,-6.4062 6.9797,4.118 16.039,6.9357 27.1875,8.4374 4.8195,0 10.449,-0.7846 16.875,-2.3437 10.8995,-5.1428 18.8464,-12.3779 23.8437,-21.7187 1.4483,11.6092 3.2177,18.4485 5.3438,20.4062 l 0.5938,0 c 24.5893,-6.3128 40.7556,-14.9197 48.4687,-25.8125 1.6427,16.4081 3.781,25.8326 6.4063,28.25 l 0.625,0 c 27.7237,-7.1174 45.2339,-17.0038 52.5624,-29.6563 -0.5526,8.5216 -1.139,15.7898 -1.7812,21.6563 0.727,1.2521 4.6411,1.875 11.75,1.875 l 22.5312,0 c 6.0941,0 10.3887,-0.3175 13,-0.9375 0.7371,6.1112 1.4693,9.3438 2.25,9.3438 l 2.3126,0 c 3.5728,0 15.2658,-2.6717 35.0624,-8.0313 8.836,-1.1588 13.25,-2.6937 13.25,-4.625 -1.5933,-16.803 -2.6109,-25.2187 -3.0937,-25.2187 -3.4765,-0.338 -12.0401,1.626 -25.6563,5.875 l -0.5624,-5.9376 c 10.3326,-1.9314 15.5,-3.6593 15.5,-5.1562 l 0,-1.1562 c 0.6758,-10.7673 -0.3131,-15.8893 -2.9688,-15.4063 l 0,-1.0313 c -2.8005,0.6761 -6.5949,1.2814 -11.375,1.8126 l -0.5938,-6.0938 c 5.7459,-0.6759 8.625,-1.2359 8.625,-1.7188 8.7876,-1.3519 13.1876,-2.8724 13.1876,-4.5624 l 0,-6.9688 c 0,-16.465 -1.3446,-24.6873 -4,-24.6875 -15.0647,3.8146 -24.2623,6.3099 -27.5938,7.4687 -14.1956,2.9938 -21.2812,5.1198 -21.2812,6.375 0,0.7246 0.3837,1.0626 1.1562,1.0626 0,0.4345 -0.2074,1.0257 -0.5938,1.75 1.9315,23.6591 3.1137,35.5279 3.5,35.625 0.141,2.9862 0.2634,5.6842 0.4063,8.4062 -7.2206,0.8174 -13.1316,1.772 -17.5625,2.8125 l -0.4688,0 c 0,-0.3231 0.1456,-0.5 0.4688,-0.5 0,-8.2803 1.4226,-25.9595 4.25,-53.0625 0,-1.5751 -1.1222,-2.3749 -3.3438,-2.375 l -11.25,0 c -1.6965,10e-5 -4.842,0.4774 -9.4062,1.4062 -0.6867,2e-4 -1.9324,7.0285 -3.75,21.125 -0.1939,5.3828 -0.4132,10.4287 -0.625,15.2813 -2.5993,-6.3344 -6.7755,-9.5 -12.5312,-9.5 4.2846,-7.233 6.4374,-12.8832 6.4374,-16.9375 l 0,-2.9062 c -2.9485,-9.7206 -11.5292,-14.5936 -25.7187,-14.5938 l -4.0625,0 c -7.0028,2e-4 -15.1624,1.1818 -24.4688,3.5312 -2.3495,2e-4 -3.5312,5.6339 -3.5312,16.875 0.1932,5.95 0.4161,11.5626 0.6562,16.8438 -1.9311,-1.3785 -4.2256,-2.0625 -6.8437,-2.0625 4.0733,-6.8765 6.125,-12.2393 6.125,-16.0937 l 0,-2.7813 c -2.8031,-9.2413 -10.9476,-13.8436 -24.4375,-13.8437 l -3.875,0 c -6.6574,10e-5 -14.4026,1.1101 -23.25,3.3437 -1.7923,2e-4 -2.8645,3.4948 -3.2188,10.375 -9.6656,-11.2184 -21.6894,-16.8437 -36.125,-16.8437 -2.9294,0.2835 -7.221,1.2526 -12.8437,2.9062 -9.6384,5.0565 -17.1655,11.335 -22.5937,18.8438 -2.4929,-23.1172 -4.4102,-37.9512 -5.7188,-43.9376 l -2.9375,-2.9687 z m 161.875,46.8437 c 5.897,0.5069 9.0212,1.478 9.3437,2.9063 -4.3768,5.4362 -8.635,8.1564 -12.7812,8.1563 l -0.625,-2.9063 0,-7 4.0625,-1.1563 z m -56.3125,1.4063 c 5.6062,0.4819 8.5684,1.3922 8.875,2.75 -4.1609,5.1683 -8.2144,7.7501 -12.1562,7.75 l -0.5938,-2.75 0,-6.625 3.875,-1.125 z m -65.0312,11.7813 c 0,0.7559 1.938,1.125 5.8124,1.125 5.0557,4.0634 7.5938,7.9398 7.5938,11.625 -2.0319,10.0641 -5.7233,15.0937 -11.0625,15.0937 l -1.6875,0 c -7.749,-1.4175 -11.625,-4.6937 -11.625,-9.8437 0,-7.4655 3.6451,-13.4642 10.9688,-18 z m 73.9062,20.9374 2.8125,0 c 0.7008,0 1.0625,0.3492 1.0625,1.0938 l 0,0.5312 c 0,4.3362 -3.2926,7.6787 -9.9062,10 -0.3505,3e-4 -1.3111,-3.1429 -2.8438,-9.4062 3.1096,-1.4891 6.0718,-2.2188 8.875,-2.2188 z m 56.7812,0.2813 2.9688,0 c 0.737,0 1.0938,0.4043 1.0938,1.1875 l 0,0.5312 c -10e-5,4.5611 -3.481,8.0584 -10.4376,10.5 -0.3685,1e-4 -1.3562,-3.2869 -2.9687,-9.875 3.271,-1.5664 6.3951,-2.3437 9.3437,-2.3437 z m -52,44.75 c -4.261,0.018 -8.7222,0.5502 -13.4062,1.5937 -10.2169,2.2766 -22.7117,5.5892 -37.4688,9.9688 -1.7742,0.3954 -2.044,5.3036 -0.7812,14.7188 0.1227,0.5507 0.5426,1.2552 1.25,2.125 l 8.25,44.4062 c 2.0635,6.6684 3.6163,12.2852 4.625,16.8125 0.6951,3.1202 3.8393,19.6926 9.4375,49.7187 l 2.0625,1.9376 c 25.2865,-7.5605 37.6917,-12.4865 37.1875,-14.75 l -6.0313,-27.0626 1.5626,-0.3437 c 6.2392,8.6921 16.2753,17.5199 30.1562,26.5 l 1.5,-0.3437 0.4688,5.375 c -0.5642,0 -0.8438,0.5281 -0.8438,1.5937 0.8148,1.567 1.6227,2.3437 2.4375,2.3437 l 2.3437,0 c 1.3793,10e-5 9.9858,-0.5281 25.7813,-1.5937 l 3.1875,0 c 2.1311,-1.2533 3.1875,-2.3412 3.1875,-3.2187 l 0,-24.9063 c 0,-2.1939 0.2796,-4.3064 0.7813,-6.375 -3e-4,-1.8802 6.6801,-3.4962 20.0937,-4.8125 l 4.0625,21.625 c 1.567,13.4135 4.7672,20.125 9.5938,20.125 l 3.1874,0 c 7.1694,-0.5074 13.0101,-1.0159 17.6563,-1.5 -0.3007,1.3804 -0.5433,2.6024 -0.6875,3.5938 1.6442,1.7592 3.0086,2.7125 4.125,2.875 6.9472,1.0107 20.011,2.6543 39.1875,4.9374 2.102,-0.5175 3.3619,-2.1141 3.75,-4.7812 l 0.2187,-1.5625 c 1.5702,-10.7928 2.5319,-20.863 2.875,-30.1875 0.9473,-3.029 1.7127,-6.4986 2.2813,-10.4062 l 20.8437,-1.5313 c 23.1296,-4.4258 35.9637,-15.5736 38.5626,-33.4375 1.2182,-8.3735 0.2732,-15.653 -2.875,-21.875 -7.999,-15.9852 -33.23,-27.0773 -75.6563,-33.25 -8.0016,-1.1638 -12.1703,-0.5123 -12.5313,1.9688 0.5897,1.606 1.2242,2.4634 1.9063,2.5624 -1.2354,-0.1796 -6.7349,28.216 -16.4063,84.5938 -11.8456,-52.4048 -22.273,-84.7452 -31.25,-96.9062 -28.8955,2.5074 -43.3437,4.6201 -43.3437,6.375 -10.385,25.8789 -17.2717,50.2363 -20.7187,73.0937 -8.9786,-8.818 -13.7119,-13.9571 -14,-15.25 l 0.75,-0.1875 c 11.0673,-13.4469 15.3557,-25.7403 12.875,-36.875 -0.2455,-1.1012 -1.1269,-3.8627 -2.625,-8.2812 -9.8227,-13.0126 -22.3445,-19.4715 -37.5626,-19.4063 z m -9.7187,31.7813 c 0.425,0.034 0.6643,0.1616 0.7187,0.4062 8.5254,-0.358 13.3727,2.0811 14.5313,7.2812 l 0.1875,0.8126 c 1.4449,6.4851 -3.0892,12.904 -13.5625,19.2187 -2.1483,-12.236 -3.8789,-21.314 -5.1875,-27.1875 l 1.4688,-0.3125 c 0.7952,-0.1771 1.4187,-0.2525 1.8437,-0.2187 z m 93.4687,4.0937 0.75,0 c 2.6951,11.9719 4.8702,19.9886 6.5,24.0625 0,1.0657 -4.5365,2.6503 -13.625,4.7812 l -0.8437,0 c 1.943,-11.0314 4.3355,-20.6326 7.2187,-28.8437 z m 104.1876,11.3437 8.1874,1.1876 c 10.4824,1.5252 15.9788,6.144 16.4376,13.875 -0.5685,3.9076 -4.9389,5.7975 -13.0938,5.6874 l -14.25,-2.0624 0.7812,-5.2188 c 0.2619,-1.7986 0.3178,-4.1047 0.2188,-6.9062 0.5864,-0.548 1.0848,-2.2402 1.5,-5.0938 l 0.2188,-1.4688 z"
       id="path5651" />
  </g>
</svg>
